<svg width="282" height="283" viewBox="0 0 282 283" fill="none" xmlns="http://www.w3.org/2000/svg">
<g clip-path="url(#clip0_164_1884)">
<path d="M54.8027 80.2531L98.4246 123.875L151.3 176.75L202.247 227.697C185.007 240.035 163.857 247.25 141 247.25C82.6172 247.25 35.25 199.883 35.25 141.5C35.25 118.643 42.4652 97.4926 54.8027 80.2531ZM183.575 159.125L165.95 141.5H211.5V159.125H183.575ZM201.2 176.75H220.312C225.159 176.75 229.125 172.784 229.125 167.938V132.688C229.125 127.841 225.159 123.875 220.312 123.875H148.325L79.7531 55.3027C96.9926 42.9652 118.143 35.75 141 35.75C199.383 35.75 246.75 83.1172 246.75 141.5C246.75 164.357 239.535 185.507 227.197 202.747L201.2 176.75ZM141 282.5C178.396 282.5 214.259 267.645 240.702 241.202C267.145 214.759 282 178.896 282 141.5C282 104.104 267.145 68.2406 240.702 41.7979C214.259 15.3553 178.396 0.5 141 0.5C103.604 0.5 67.7406 15.3553 41.2979 41.7979C14.8553 68.2406 0 104.104 0 141.5C0 178.896 14.8553 214.759 41.2979 241.202C67.7406 267.645 103.604 282.5 141 282.5ZM149.812 53.375C144.966 53.375 141 57.3406 141 62.1875C141 76.7832 152.842 88.625 167.438 88.625H185.062C189.909 88.625 193.875 92.5906 193.875 97.4375C193.875 102.284 197.841 106.25 202.688 106.25C207.534 106.25 211.5 102.284 211.5 97.4375C211.5 82.8418 199.658 71 185.062 71H167.438C162.591 71 158.625 67.0344 158.625 62.1875C158.625 57.3406 154.659 53.375 149.812 53.375ZM126.404 176.75L73.5293 123.875H61.6875C56.8406 123.875 52.875 127.841 52.875 132.688V167.938C52.875 172.784 56.8406 176.75 61.6875 176.75H126.404Z" fill="black"/>
</g>
<defs>
<clipPath id="clip0_164_1884">
<rect width="282" height="282" fill="white" transform="translate(0 0.5)"/>
</clipPath>
</defs>
</svg>
