<svg width="29" height="30" viewBox="0 0 29 30" fill="none" xmlns="http://www.w3.org/2000/svg">
<path d="M16.3125 26.7808H12.6875C12.4472 26.7808 12.2167 26.8763 12.0467 27.0462C11.8768 27.2162 11.7813 27.4467 11.7813 27.687C11.7813 27.9274 11.8768 28.1579 12.0467 28.3279C12.2167 28.4978 12.4472 28.5933 12.6875 28.5933H16.3125C16.5529 28.5933 16.7834 28.4978 16.9533 28.3279C17.1233 28.1579 17.2188 27.9274 17.2188 27.687C17.2188 27.4467 17.1233 27.2162 16.9533 27.0462C16.7834 26.8763 16.5529 26.7808 16.3125 26.7808ZM17.2188 24.062H11.7813C11.5409 24.062 11.3104 24.1575 11.1405 24.3275C10.9705 24.4974 10.875 24.7279 10.875 24.9683C10.875 25.2086 10.9705 25.4391 11.1405 25.6091C11.3104 25.7791 11.5409 25.8745 11.7813 25.8745H17.2188C17.4591 25.8745 17.6896 25.7791 17.8596 25.6091C18.0295 25.4391 18.125 25.2086 18.125 24.9683C18.125 24.7279 18.0295 24.4974 17.8596 24.3275C17.6896 24.1575 17.4591 24.062 17.2188 24.062ZM20.9242 4.05034C19.221 2.34489 16.9395 1.40579 14.5 1.40579C13.3091 1.40295 12.1294 1.63542 11.0286 2.08985C9.92781 2.54428 8.92764 3.21171 8.08554 4.0538C7.24344 4.8959 6.57601 5.89607 6.12159 6.99686C5.66716 8.09766 5.43469 9.27739 5.43753 10.4683C5.43753 13.1089 6.44969 15.579 8.21292 17.2448L8.45987 17.4764C9.47997 18.4303 10.875 19.737 10.875 20.8902V22.2495C10.875 22.4899 10.9705 22.7204 11.1405 22.8904C11.3104 23.0603 11.5409 23.1558 11.7813 23.1558H13.1407C13.2608 23.1558 13.3761 23.108 13.4611 23.0231C13.546 22.9381 13.5938 22.8228 13.5938 22.7027V16.0655C13.5938 15.9739 13.5661 15.8844 13.5142 15.8089C13.4623 15.7333 13.3887 15.6753 13.3032 15.6424C12.7799 15.4289 12.2828 15.1562 11.8215 14.8296C11.7178 14.7634 11.6287 14.6768 11.5596 14.5751C11.4905 14.4734 11.4428 14.3586 11.4195 14.2379C11.3961 14.1171 11.3976 13.9929 11.4238 13.8727C11.45 13.7525 11.5004 13.639 11.5719 13.5389C11.6434 13.4388 11.7345 13.3544 11.8397 13.2907C11.9449 13.2269 12.062 13.1853 12.1838 13.1683C12.3056 13.1513 12.4296 13.1592 12.5482 13.1917C12.6669 13.2241 12.7777 13.2803 12.8739 13.357C13.293 13.6538 14.1001 14.0933 14.5 14.0933C14.8999 14.0933 15.707 13.6526 16.1273 13.357C16.323 13.2339 16.5583 13.1903 16.7851 13.2351C17.0118 13.2798 17.213 13.4095 17.3473 13.5977C17.4815 13.7858 17.5389 14.0181 17.5075 14.2471C17.4762 14.4761 17.3585 14.6845 17.1786 14.8296C16.7172 15.1556 16.2201 15.4278 15.6968 15.6407C15.6113 15.6736 15.5378 15.7316 15.4859 15.8072C15.434 15.8827 15.4062 15.9722 15.4063 16.0638V22.7027C15.4063 22.8228 15.454 22.9381 15.539 23.0231C15.624 23.108 15.7392 23.1558 15.8594 23.1558H17.2188C17.4591 23.1558 17.6896 23.0603 17.8596 22.8904C18.0295 22.7204 18.125 22.4899 18.125 22.2495V20.8902C18.125 19.7641 19.5048 18.4586 20.5124 17.5048L20.7905 17.2408C22.6042 15.5093 23.5625 13.1649 23.5625 10.4683C23.5685 9.27727 23.3385 8.09688 22.8856 6.99529C22.4328 5.89371 21.7661 4.89278 20.9242 4.05034Z" fill="white"/>
</svg>
