<svg width="43" height="41" viewBox="0 0 43 41" fill="none" xmlns="http://www.w3.org/2000/svg">
<rect x="-0.000488281" y="0.00109863" width="43" height="41" rx="20.5" fill="#101010"/>
<path d="M14.3745 33.0011C13.7214 33.0011 13.1621 32.7678 12.6966 32.3011C12.2311 31.8344 11.9987 31.2741 11.9995 30.6201V18.7154C11.9995 18.0606 12.2323 17.4999 12.6978 17.0332C13.1633 16.5666 13.7222 16.3336 14.3745 16.3344H25.062V13.9535C25.062 12.9614 24.7157 12.1182 24.0229 11.4237C23.3302 10.7293 22.4891 10.3821 21.4995 10.3821C20.6881 10.3821 19.9704 10.6253 19.3466 11.1118C18.7227 11.5983 18.3028 12.2082 18.0866 12.9416C17.9877 13.2392 17.8341 13.4824 17.6259 13.6713C17.4177 13.8602 17.1754 13.9543 16.8991 13.9535C16.5033 13.9535 16.1866 13.8194 15.9491 13.5511C15.7116 13.2828 15.6325 12.9805 15.7116 12.644C16.0077 11.3146 16.6901 10.2082 17.7589 9.32491C18.8276 8.44158 20.0745 8.00031 21.4995 8.0011C23.1422 8.0011 24.5427 8.58166 25.7009 9.74277C26.8591 10.9039 27.4378 12.3074 27.437 13.9535V16.3344H28.6245C29.2776 16.3344 29.8369 16.5678 30.3024 17.0344C30.7679 17.5011 31.0003 18.0614 30.9995 18.7154V30.6201C30.9995 31.2749 30.7668 31.8356 30.3013 32.3023C29.8358 32.769 29.2768 33.0019 28.6245 33.0011H14.3745ZM21.4995 27.0487C22.1526 27.0487 22.7119 26.8154 23.1774 26.3487C23.6429 25.8821 23.8753 25.3217 23.8745 24.6678C23.8745 24.013 23.6418 23.4523 23.1763 22.9856C22.7108 22.519 22.1518 22.286 21.4995 22.2868C20.8464 22.2868 20.2871 22.5201 19.8216 22.9868C19.3561 23.4535 19.1237 24.0138 19.1245 24.6678C19.1245 25.3225 19.3573 25.8832 19.8228 26.3499C20.2883 26.8166 20.8472 27.0495 21.4995 27.0487Z" fill="#F8F8F8"/>
</svg>
