<svg width="39" height="38" viewBox="0 0 39 38" fill="none" xmlns="http://www.w3.org/2000/svg">
<path d="M4.2998 9.49952C4.2998 8.4917 4.70016 7.52516 5.4128 6.81252C6.12544 6.09988 7.09198 5.69952 8.0998 5.69952H21.3998C22.4076 5.69952 23.3742 6.09988 24.0868 6.81252C24.7994 7.52516 25.1998 8.4917 25.1998 9.49952V17.0995C25.1998 18.1073 24.7994 19.0739 24.0868 19.7865C23.3742 20.4992 22.4076 20.8995 21.3998 20.8995H17.5998L11.8998 26.5995V20.8995H8.0998C7.09198 20.8995 6.12544 20.4992 5.4128 19.7865C4.70016 19.0739 4.2998 18.1073 4.2998 17.0995V9.49952Z" fill="white"/>
<path d="M28.9996 13.2995V17.0995C28.9996 19.1151 28.1989 21.0482 26.7736 22.4735C25.3483 23.8988 23.4152 24.6995 21.3996 24.6995H19.1728L15.8174 28.0568C16.3494 28.3399 16.9555 28.4995 17.5996 28.4995H21.3996L27.0996 34.1995V28.4995H30.8996C31.9074 28.4995 32.8739 28.0991 33.5866 27.3865C34.2992 26.6739 34.6996 25.7073 34.6996 24.6995V17.0995C34.6996 16.0917 34.2992 15.1251 33.5866 14.4125C32.8739 13.6999 31.9074 13.2995 30.8996 13.2995H28.9996Z" fill="white"/>
</svg>
