<svg width="42" height="42" viewBox="0 0 42 42" fill="none" xmlns="http://www.w3.org/2000/svg">
<g clip-path="url(#clip0_111_2106)">
<path d="M21.0476 7.8125C24.1451 7.8125 26.9188 8.88 29.1063 10.9625L35.1001 4.96875C31.4601 1.5825 26.7088 -0.5 21.0476 -0.5C12.8401 -0.5 5.74385 4.2075 2.2876 11.0675L9.2701 16.4837C10.9238 11.505 15.5701 7.8125 21.0476 7.8125Z" fill="#EA4335"/>
<path d="M41.1549 20.9812C41.1549 19.6075 41.0236 18.2775 40.8224 17H21.0474V24.8925H32.3699C31.8624 27.4825 30.3924 29.6875 28.1874 31.175L34.9511 36.425C38.8974 32.7675 41.1549 27.36 41.1549 20.9812Z" fill="#4285F4"/>
<path d="M9.26111 24.5163C8.84111 23.2475 8.59611 21.9 8.59611 20.5C8.59611 19.1 8.83236 17.7525 9.26111 16.4838L2.27861 11.0675C0.852363 13.9025 0.0473633 17.105 0.0473633 20.5C0.0473633 23.895 0.852363 27.0975 2.28736 29.9325L9.26111 24.5163Z" fill="#FBBC05"/>
<path d="M21.0476 41.5C26.7176 41.5 31.4863 39.6363 34.9513 36.4163L28.1876 31.1663C26.3063 32.435 23.8826 33.1788 21.0476 33.1788C15.5701 33.1788 10.9238 29.4863 9.26131 24.5075L2.27881 29.9238C5.74381 36.7925 12.8401 41.5 21.0476 41.5Z" fill="#34A853"/>
</g>
<defs>
<clipPath id="clip0_111_2106">
<rect width="42" height="42" fill="white"/>
</clipPath>
</defs>
</svg>
