<svg width="895" height="621" viewBox="0 0 895 621" fill="none" xmlns="http://www.w3.org/2000/svg">
<path opacity="0.2" d="M267.962 80.4114L267.326 80.2512L65.6981 502.377L776.48 557.246L777.281 557.308L803.325 214.637L803.376 213.963L267.962 80.4114ZM472.147 351.877L68.4955 500.237L267.923 82.7202L472.147 351.877ZM473.331 353.148L773.578 555.411L70.6521 501.152L473.331 353.148ZM473.702 351.277L269.781 82.5135L799.988 214.765L473.702 351.277ZM775.848 555.01L475.119 352.421L801.627 215.817L775.848 555.01Z" fill="#367CFF"/>
<path d="M894.169 221.773C893.526 238.024 888.959 253.877 880.857 267.979C872.755 282.08 861.359 294.011 847.644 302.75C833.928 311.49 818.301 316.779 802.096 318.165C785.892 319.552 769.593 316.995 754.592 310.712C747.557 307.763 740.884 304.015 734.706 299.54C722.897 291.015 713.069 280.04 705.893 267.366V267.355C698.242 253.799 693.839 238.654 693.028 223.109C692.218 207.564 695.024 192.044 701.224 177.766C707.425 163.488 716.851 150.843 728.763 140.823C740.676 130.804 754.749 123.683 769.878 120.02C785.007 116.357 800.779 116.252 815.955 119.714C831.131 123.175 845.298 130.108 857.342 139.969C869.387 149.829 878.981 162.348 885.37 176.542C891.76 190.736 894.772 206.218 894.168 221.772L894.169 221.773Z" fill="white"/>
<path opacity="0.09" d="M894.169 221.773C893.526 238.024 888.959 253.877 880.857 267.979C872.755 282.08 861.359 294.011 847.644 302.75C833.928 311.49 818.301 316.779 802.096 318.165C785.892 319.552 769.593 316.995 754.592 310.712C747.557 307.763 740.884 304.015 734.706 299.54C722.897 291.015 713.069 280.04 705.893 267.366V267.355C698.242 253.799 693.839 238.654 693.028 223.109C692.218 207.564 695.024 192.044 701.224 177.766C707.425 163.488 716.851 150.843 728.763 140.823C740.676 130.804 754.749 123.683 769.878 120.02C785.007 116.357 800.779 116.252 815.955 119.714C831.131 123.175 845.298 130.108 857.342 139.969C869.387 149.829 878.981 162.348 885.37 176.542C891.76 190.736 894.772 206.218 894.168 221.772L894.169 221.773Z" fill="#367CFF"/>
<path d="M817.372 141.199C817.372 141.199 841.441 141.494 833.143 174.663L830.883 174.774L826.294 174.997" fill="#0C0C0C"/>
<path d="M790.497 209.464C790.609 209.454 791.053 230.143 815.101 229.274C831.75 228.674 838.352 211.291 838.734 211.306C836.958 210.856 833.965 210.184 833.188 209.731C830.628 208.226 827.45 206.639 826.804 201.529C826.433 198.584 827.837 183.649 827.698 180.679L801.996 185.377C802.11 191.644 804.04 206.233 795.206 208.459C793.735 208.828 792.154 209.157 790.497 209.464Z" fill="#E98862"/>
<path opacity="0.52" d="M800.963 202.751C801.413 201.48 801.721 200.164 801.884 198.825C802.283 195.773 802.346 192.686 802.074 189.62C807.28 189.122 812.242 187.174 816.396 183.996C816.802 185.759 819.108 193.499 818.319 195.132C816.838 198.219 810.24 203.111 800.963 202.751Z" fill="#0C0C0C"/>
<path d="M806.798 199.095C816.873 198.374 829.027 192.24 829.45 178.587L829.831 166.27C830.253 152.62 823.422 141.331 810.573 140.934C797.72 140.533 787.771 151.305 787.349 164.956L787.18 170.409C787.155 172.283 787.257 174.156 787.486 176.017C788.057 180.935 788.943 188.414 792.182 193.521C795.239 198.342 800.361 199.555 806.798 199.095Z" fill="#E98862"/>
<path d="M828.523 182.724C832.429 182.844 835.725 178.763 835.846 174.858C835.967 170.953 832.866 168.7 828.961 168.579L826.867 171.134L825.165 182.62L828.523 182.724Z" fill="#E98862"/>
<path d="M788.009 180.139C788.715 180.976 789.619 181.622 790.638 182.021C791.658 182.419 792.76 182.556 793.846 182.419C796.17 182.126 797.71 183.08 799.65 182.888C801.277 182.728 801.559 181.976 804.338 181.812C815.062 181.176 823.11 180.5 823.632 167.043L830.457 160.981C830.457 160.981 833.506 198.273 813.336 203.231C800.941 206.275 789.316 205.162 787.821 193.521C786.607 184.063 788.009 180.139 788.009 180.139Z" fill="#0C0C0C"/>
<path d="M793.091 172.351C793.966 172.351 794.675 171.642 794.675 170.767C794.675 169.892 793.966 169.183 793.091 169.183C792.216 169.183 791.507 169.892 791.507 170.767C791.507 171.642 792.216 172.351 793.091 172.351Z" fill="#0C0C0C"/>
<path d="M807.24 172.056C808.115 172.056 808.824 171.347 808.824 170.472C808.824 169.597 808.115 168.888 807.24 168.888C806.365 168.888 805.656 169.597 805.656 170.472C805.656 171.347 806.365 172.056 807.24 172.056Z" fill="#0C0C0C"/>
<path d="M824.75 176.375C824.75 176.375 823.783 157.031 817.947 155.731C814.059 154.865 804.497 160.228 795.763 158.396C791.942 157.595 788.285 158.476 787.881 160.282C787.721 160.997 784.698 154.659 790.845 146.948C795.739 140.808 811.654 139.081 818.733 141.252C838.338 147.265 829.752 169.445 829.752 169.445L828.751 176.089L824.75 176.375Z" fill="#0C0C0C"/>
<path d="M833.659 160.777C839.43 160.777 844.107 156.099 844.107 150.329C844.107 144.559 839.43 139.881 833.659 139.881C827.889 139.881 823.211 144.559 823.211 150.329C823.211 156.099 827.889 160.777 833.659 160.777Z" fill="#0C0C0C"/>
<g opacity="0.52">
<path d="M799.841 182.267H799.816C798.558 182.231 796.451 182.03 796.475 181.089C796.498 180.309 798.872 171.947 799.143 170.995C799.166 170.913 799.221 170.844 799.296 170.803C799.37 170.761 799.458 170.751 799.539 170.774C799.621 170.798 799.69 170.853 799.732 170.927C799.773 171.001 799.783 171.089 799.76 171.171C798.706 174.874 797.132 180.576 797.116 181.104C797.234 181.33 798.53 181.585 799.834 181.623C799.919 181.622 800.001 181.654 800.061 181.714C800.122 181.773 800.157 181.854 800.158 181.939C800.159 182.024 800.126 182.106 800.066 182.167C800.007 182.228 799.926 182.262 799.841 182.263V182.267Z" fill="#0C0C0C"/>
</g>
<path d="M796.009 165.386C794.709 165.001 793.329 164.973 792.014 165.306C791.367 165.465 790.748 165.72 790.176 166.064C789.611 166.4 789.09 166.807 788.626 167.274C788.546 167.346 788.497 167.447 788.491 167.555C788.486 167.663 788.523 167.768 788.595 167.849C788.667 167.929 788.768 167.978 788.875 167.984C788.983 167.99 789.089 167.952 789.169 167.88L789.194 167.86C789.627 167.47 790.106 167.136 790.622 166.865C791.129 166.596 791.675 166.406 792.239 166.3C793.354 166.082 794.506 166.162 795.579 166.533L795.62 166.548C795.696 166.578 795.777 166.591 795.858 166.589C795.939 166.587 796.019 166.569 796.093 166.535C796.167 166.502 796.234 166.454 796.289 166.394C796.344 166.335 796.387 166.265 796.415 166.189C796.443 166.112 796.456 166.031 796.452 165.95C796.449 165.869 796.429 165.789 796.394 165.716C796.359 165.642 796.31 165.576 796.25 165.522C796.19 165.468 796.119 165.426 796.042 165.399L796.009 165.386Z" fill="#0C0C0C"/>
<path d="M805.341 166.535C806.372 166.061 807.512 165.869 808.642 165.978C809.214 166.028 809.776 166.165 810.307 166.384C810.846 166.603 811.356 166.888 811.824 167.234L811.849 167.252C811.937 167.308 812.042 167.33 812.145 167.311C812.247 167.292 812.338 167.235 812.4 167.151C812.461 167.068 812.488 166.963 812.475 166.86C812.462 166.757 812.41 166.662 812.33 166.596C811.823 166.177 811.265 165.822 810.669 165.542C810.068 165.256 809.426 165.062 808.767 164.966C807.426 164.764 806.055 164.926 804.798 165.436C804.651 165.5 804.534 165.619 804.474 165.769C804.413 165.918 804.414 166.084 804.476 166.233C804.537 166.381 804.655 166.5 804.803 166.562C804.951 166.625 805.118 166.626 805.268 166.567L805.297 166.554L805.341 166.535Z" fill="#0C0C0C"/>
<path d="M869.503 261.125C868.608 267.888 867.733 277.179 866.952 286.785C863.901 290.032 860.639 293.073 857.187 295.89C854.993 297.673 852.728 299.367 850.392 300.974C837.764 309.594 823.341 315.231 808.215 317.458C793.088 319.685 777.653 318.443 763.076 313.828C762.877 304.906 762.607 292.87 762.337 281.843C762.029 269.124 761.717 257.736 761.55 253.994C760.859 239.143 756.923 229.234 759.899 221.132C760.789 218.734 762.219 216.573 764.08 214.817C771.013 208.031 788.236 208.185 795.144 208.454C795.264 208.459 793.13 224.401 815.858 224.209C832.564 224.072 833.817 209.954 833.817 209.954C833.817 209.954 842.049 210.811 847.515 211.76C856.457 213.326 862.271 216.606 866.795 221.504C871.016 226.071 873.505 230.919 869.503 261.125Z" fill="#367CFF"/>
<path d="M735.885 210.026L736.572 193.014C736.588 192.64 736.526 192.267 736.389 191.918C736.252 191.57 736.045 191.253 735.779 190.989C735.513 190.726 735.195 190.52 734.846 190.386C734.496 190.252 734.122 190.192 733.748 190.21C733.06 190.266 732.416 190.575 731.942 191.079C731.469 191.582 731.199 192.243 731.185 192.934L731.038 196.582L726.233 184.9C725.722 183.592 724.258 182.313 722.828 182.984C722.261 183.206 721.786 183.613 721.48 184.14C721.175 184.666 721.057 185.281 721.146 185.884C721.132 185.885 721.119 185.888 721.105 185.892C721.096 185.898 721.088 185.903 721.08 185.91L720.292 183.893C720.145 183.519 719.918 183.183 719.625 182.908C719.332 182.634 718.982 182.428 718.6 182.306C718.218 182.184 717.813 182.149 717.416 182.203C717.018 182.258 716.638 182.4 716.302 182.62C715.781 182.977 715.397 183.502 715.217 184.108C715.036 184.713 715.069 185.363 715.31 185.947L715.645 186.805C715.625 186.826 715.608 186.851 715.596 186.878C715.235 186.351 714.698 185.97 714.082 185.802C713.466 185.634 712.81 185.691 712.232 185.962C711.607 186.278 711.125 186.818 710.881 187.474C710.638 188.13 710.65 188.853 710.916 189.501L711.749 191.633C711.717 191.611 711.679 191.597 711.64 191.593C711.6 191.589 711.56 191.593 711.523 191.607C711.48 191.627 711.444 191.658 711.418 191.697C710.966 191.317 710.401 191.095 709.811 191.067C709.22 191.039 708.637 191.205 708.151 191.541C707.647 191.904 707.281 192.426 707.111 193.023C706.941 193.62 706.978 194.257 707.215 194.831L714.246 212.823C715.23 215.34 716.943 217.506 719.165 219.043C721.388 220.58 724.019 221.419 726.721 221.451C729.051 221.478 731.3 220.596 732.991 218.992C734.681 217.388 735.679 215.188 735.774 212.86L735.885 210.026Z" fill="#E98862"/>
<g opacity="0.2">
<path d="M725.842 197.472C725.781 197.495 725.713 197.494 725.653 197.468C725.593 197.442 725.546 197.394 725.521 197.334L720.969 186.217C720.954 186.186 720.946 186.153 720.945 186.119C720.944 186.086 720.95 186.052 720.962 186.02C720.974 185.989 720.993 185.96 721.016 185.936C721.04 185.912 721.068 185.893 721.1 185.88C721.131 185.867 721.165 185.861 721.198 185.862C721.232 185.862 721.265 185.87 721.296 185.884C721.327 185.898 721.355 185.918 721.378 185.942C721.4 185.967 721.418 185.997 721.429 186.029L725.982 197.146C725.994 197.176 726.001 197.208 726 197.241C726 197.274 725.994 197.306 725.981 197.336C725.968 197.366 725.95 197.394 725.927 197.416C725.903 197.439 725.876 197.458 725.846 197.47L725.842 197.472Z" fill="#0C0C0C"/>
</g>
<g opacity="0.2">
<path d="M720.994 199.615C720.933 199.639 720.865 199.638 720.805 199.612C720.745 199.586 720.698 199.537 720.674 199.477L715.593 187.07C715.569 187.009 715.57 186.942 715.596 186.882C715.621 186.822 715.669 186.774 715.729 186.749C715.79 186.728 715.857 186.73 715.916 186.755C715.975 186.78 716.023 186.826 716.05 186.885L721.13 199.292C721.155 199.353 721.155 199.421 721.129 199.482C721.104 199.543 721.055 199.591 720.994 199.616V199.615Z" fill="#0C0C0C"/>
</g>
<g opacity="0.2">
<path d="M715.757 201.967C715.696 201.99 715.629 201.989 715.569 201.963C715.509 201.937 715.461 201.889 715.437 201.828L711.384 191.932C711.359 191.871 711.359 191.803 711.385 191.742C711.41 191.681 711.459 191.633 711.52 191.608C711.581 191.583 711.649 191.583 711.71 191.609C711.771 191.634 711.819 191.683 711.844 191.744L715.899 201.637C715.924 201.698 715.924 201.767 715.898 201.828C715.873 201.888 715.824 201.937 715.763 201.962L715.757 201.967Z" fill="#0C0C0C"/>
</g>
<path d="M792.197 236.696L750.796 300.348C749.29 302.662 747.273 304.599 744.901 306.012C741.372 304.066 737.967 301.905 734.705 299.54C727.752 294.523 721.468 288.637 716.007 282.026L707.311 214.602L742.114 209.026L746.081 241.48L761.982 217.036L792.197 236.696Z" fill="#367CFF"/>
<path d="M797.051 185.739C800.848 185.992 804.622 184.971 807.774 182.839C807.884 182.765 808.012 182.725 808.143 182.721C808.275 182.718 808.405 182.752 808.518 182.82C808.631 182.888 808.722 182.986 808.781 183.104C808.84 183.222 808.864 183.354 808.851 183.485C808.597 185.728 807.489 189.854 802.783 190.379C799.744 190.718 797.542 188.385 796.432 186.833C796.356 186.726 796.311 186.599 796.304 186.467C796.297 186.335 796.328 186.204 796.393 186.089C796.458 185.974 796.554 185.88 796.671 185.818C796.787 185.756 796.919 185.729 797.051 185.739Z" fill="white"/>
<path d="M880.73 268.279C874.611 278.827 866.635 288.181 857.187 295.89C854.992 297.673 852.727 299.367 850.392 300.974L834.222 239.457L870.638 229.878L880.73 268.279Z" fill="#367CFF"/>
<path d="M850.746 300.734C850.631 300.809 850.506 300.894 850.392 300.974C850.278 301.054 850.161 301.134 850.046 301.209L837.722 254.344L838.5 254.141L850.746 300.734Z" fill="#0C0C0C"/>
<path d="M762.435 284.741C762.335 284.737 762.24 284.696 762.169 284.625C762.098 284.554 762.056 284.459 762.051 284.359L761.257 266.895C761.252 266.789 761.29 266.685 761.361 266.607C761.433 266.528 761.533 266.481 761.639 266.476C761.745 266.472 761.849 266.509 761.928 266.581C762.006 266.653 762.053 266.753 762.058 266.859L762.852 284.323C762.856 284.429 762.819 284.533 762.748 284.611C762.676 284.689 762.576 284.736 762.47 284.741H762.435Z" fill="#0C0C0C"/>
<path d="M462.927 446.346C519.61 446.346 565.56 400.395 565.56 343.713C565.56 287.03 519.61 241.079 462.927 241.079C406.245 241.079 360.294 287.03 360.294 343.713C360.294 400.395 406.245 446.346 462.927 446.346Z" fill="white"/>
<path opacity="0.09" d="M565.561 343.71C565.561 364.009 559.542 383.851 548.265 400.729C536.987 417.607 520.959 430.761 502.205 438.529C483.452 446.297 462.816 448.33 442.907 444.37C422.999 440.41 404.712 430.635 390.358 416.282C376.005 401.928 366.23 383.641 362.27 363.732C358.31 343.824 360.343 323.188 368.111 304.435C375.879 285.681 389.033 269.652 405.911 258.375C422.788 247.098 442.631 241.079 462.93 241.079C476.421 241.029 489.79 243.649 502.264 248.789C514.738 253.929 526.072 261.487 535.612 271.027C545.153 280.568 552.71 291.901 557.85 304.376C562.991 316.85 565.611 330.218 565.561 343.71Z" fill="#367CFF"/>
<path d="M417.497 283.177C417.497 283.177 416.465 298.671 412.979 304.292C402.944 320.474 400.037 338.679 410.086 348.192C420.135 357.705 484.232 357.836 489.087 335.96C493.173 317.542 484.402 315.562 482.268 300.369C481.302 293.495 478.645 279.08 478.645 279.08" fill="#0A0A0A"/>
<path d="M472.497 332.749C472.386 332.735 471.159 353.108 447.491 351.335C431.107 350.108 425.265 332.724 424.889 332.724C426.656 332.349 429.63 331.803 430.417 331.384C432.997 329.998 436.189 328.556 437.021 323.545C437.501 320.661 436.687 305.884 436.94 302.962L462.09 308.575C461.739 314.744 459.279 329.052 467.9 331.583C469.33 331.999 470.875 332.384 472.497 332.749Z" fill="#E98862"/>
<path opacity="0.5" d="M462.438 325.734C462.044 324.464 461.791 323.155 461.682 321.83C461.405 318.807 461.46 315.763 461.846 312.752C456.734 312.062 451.919 309.953 447.946 306.663C447.479 308.388 444.911 315.924 445.623 317.564C446.969 320.66 453.282 325.734 462.438 325.734Z" fill="#0C0C0C"/>
<path d="M459.186 319.387C449.27 320.348 436.441 316.38 433.783 303.175L431.385 291.26C428.728 278.056 433.509 265.955 445.941 263.453C458.374 260.951 469.822 269.782 472.479 282.99L473.541 288.264C474.561 293.331 476.878 317.675 459.186 319.387Z" fill="#E98862"/>
<path opacity="0.1" d="M452.882 302.087C454.514 301.892 455.721 300.764 455.578 299.566C455.435 298.369 453.997 297.557 452.365 297.751C450.734 297.946 449.527 299.074 449.67 300.271C449.812 301.469 451.251 302.281 452.882 302.087Z" fill="#0C0C0C"/>
<path opacity="0.1" d="M470.125 297.298C470.272 298.493 471.71 299.301 473.342 299.112C473.624 299.078 473.902 299.015 474.171 298.925C474.246 297.499 474.251 296.128 474.209 294.859C473.756 294.746 473.286 294.719 472.823 294.779C471.191 294.97 469.984 296.098 470.125 297.298Z" fill="#0C0C0C"/>
<path opacity="0.5" d="M462.915 300.992H462.939C463.443 300.886 463.94 300.752 464.429 300.592C465.159 300.351 466.112 299.947 465.982 299.287C465.831 298.534 462.137 290.831 461.714 289.955C461.675 289.883 461.61 289.829 461.531 289.804C461.453 289.779 461.369 289.785 461.295 289.82C461.221 289.856 461.163 289.918 461.134 289.995C461.105 290.071 461.106 290.156 461.138 290.232C462.713 293.516 465.252 298.906 465.354 299.412C465.274 299.649 464.063 300.11 462.813 300.363C462.733 300.381 462.664 300.428 462.619 300.496C462.573 300.564 462.555 300.646 462.568 300.726C462.581 300.807 462.624 300.879 462.689 300.929C462.753 300.978 462.834 301.002 462.915 300.994V300.992Z" fill="#0C0C0C"/>
<path d="M421.465 295.538L432.611 293.36C441.031 289.835 443.42 275.166 443.42 275.166C443.42 275.166 453.811 285.062 478.645 279.077C478.645 279.077 473.25 244.409 436.581 254.932C424.756 258.325 416.381 270.377 417.627 286.34C418.499 297.529 421.465 295.538 421.465 295.538Z" fill="#0A0A0A"/>
<path d="M435.365 307.043C431.587 307.803 427.71 304.378 426.953 300.599C426.196 296.82 428.836 294.12 432.614 293.36L435.071 295.5L438.616 306.389L435.365 307.043Z" fill="#E98862"/>
<path d="M464.394 283.812C465.339 283.142 466.445 282.736 467.599 282.634C468.178 282.579 468.762 282.611 469.331 282.729C469.906 282.846 470.464 283.035 470.991 283.29L471.008 283.297C471.066 283.321 471.131 283.321 471.189 283.298C471.248 283.276 471.295 283.231 471.322 283.174C471.348 283.118 471.352 283.053 471.333 282.993C471.313 282.934 471.272 282.884 471.216 282.854C470.657 282.559 470.063 282.336 469.448 282.189C468.829 282.039 468.191 281.982 467.555 282.021C466.268 282.093 465.023 282.508 463.95 283.223C463.909 283.249 463.873 283.284 463.845 283.324C463.817 283.365 463.797 283.411 463.787 283.459C463.778 283.507 463.777 283.557 463.787 283.605C463.797 283.654 463.816 283.7 463.844 283.74C463.872 283.781 463.907 283.816 463.949 283.842C463.99 283.869 464.037 283.887 464.085 283.896C464.134 283.904 464.184 283.902 464.232 283.891C464.28 283.88 464.325 283.859 464.365 283.83L464.373 283.825L464.394 283.812Z" fill="#0C0C0C"/>
<path d="M454.212 285.218C452.947 284.967 451.637 285.06 450.419 285.487C449.817 285.694 449.25 285.991 448.737 286.368C448.225 286.739 447.762 287.173 447.358 287.659C447.317 287.708 447.296 287.77 447.3 287.834C447.304 287.897 447.333 287.956 447.38 287.999C447.427 288.042 447.488 288.065 447.552 288.063C447.615 288.061 447.676 288.035 447.72 287.989L447.733 287.976C448.122 287.537 448.565 287.149 449.051 286.821C449.531 286.493 450.059 286.24 450.615 286.069C451.72 285.723 452.897 285.675 454.026 285.931L454.054 285.937C454.102 285.95 454.151 285.953 454.2 285.946C454.248 285.939 454.295 285.923 454.337 285.898C454.379 285.873 454.416 285.839 454.445 285.8C454.474 285.761 454.495 285.716 454.506 285.668C454.518 285.621 454.52 285.571 454.512 285.523C454.504 285.475 454.486 285.428 454.46 285.387C454.435 285.345 454.401 285.309 454.361 285.281C454.32 285.253 454.275 285.233 454.227 285.222L454.212 285.218Z" fill="#0C0C0C"/>
<path d="M432.618 293.177C440.111 290.389 442.597 285.214 443.364 281.364C443.859 278.796 443.813 276.152 443.227 273.603L442.995 273.667C443.572 276.183 443.616 278.792 443.126 281.326C442.37 285.113 439.921 290.205 432.534 292.952L432.618 293.177Z" fill="#0C0C0C"/>
<path d="M527.35 328.692L531.837 313.471C531.935 313.137 532.102 312.826 532.327 312.56C532.552 312.294 532.83 312.077 533.143 311.924C533.457 311.771 533.798 311.685 534.147 311.672C534.495 311.658 534.842 311.717 535.167 311.845C535.758 312.1 536.234 312.565 536.501 313.15C536.769 313.736 536.81 314.4 536.616 315.014L535.655 318.278L543.388 309.403C544.23 308.401 545.905 307.71 546.966 308.73C547.4 309.096 547.698 309.597 547.81 310.154C547.922 310.71 547.842 311.288 547.584 311.793C547.595 311.798 547.606 311.805 547.616 311.813C547.623 311.82 547.628 311.828 547.633 311.836L548.933 310.291C549.174 310.005 549.475 309.776 549.816 309.622C550.156 309.467 550.527 309.39 550.9 309.397C551.274 309.404 551.642 309.494 551.976 309.661C552.311 309.827 552.604 310.067 552.834 310.361C553.188 310.832 553.369 311.41 553.347 311.999C553.325 312.587 553.102 313.15 552.715 313.594L552.162 314.251C552.174 314.276 552.181 314.304 552.183 314.331C552.66 313.974 553.248 313.798 553.842 313.835C554.437 313.871 554.999 314.118 555.428 314.531C555.885 314.996 556.149 315.617 556.168 316.269C556.187 316.92 555.96 317.555 555.531 318.047L554.158 319.68C554.193 319.67 554.231 319.669 554.267 319.677C554.303 319.685 554.337 319.701 554.365 319.724C554.398 319.754 554.421 319.793 554.432 319.836C554.945 319.636 555.51 319.61 556.039 319.763C556.569 319.916 557.033 320.238 557.361 320.681C557.697 321.152 557.863 321.723 557.834 322.3C557.805 322.878 557.582 323.429 557.201 323.864L545.614 337.643C543.993 339.57 541.833 340.969 539.412 341.66C536.99 342.352 534.418 342.305 532.023 341.525C529.959 340.852 528.238 339.401 527.226 337.48C526.214 335.559 525.992 333.319 526.605 331.236L527.35 328.692Z" fill="#E98862"/>
<g opacity="0.2">
<path d="M539.969 320.618C540.016 320.656 540.075 320.674 540.135 320.669C540.194 320.664 540.25 320.637 540.29 320.592L547.633 312.143C547.673 312.096 547.693 312.036 547.689 311.975C547.684 311.913 547.656 311.856 547.609 311.816C547.563 311.776 547.502 311.756 547.441 311.76C547.38 311.764 547.323 311.793 547.283 311.839L539.94 320.288C539.92 320.311 539.904 320.337 539.895 320.366C539.885 320.395 539.881 320.425 539.884 320.456C539.886 320.486 539.894 320.516 539.907 320.543C539.921 320.57 539.94 320.595 539.963 320.614L539.969 320.618Z" fill="#0C0C0C"/>
</g>
<g opacity="0.2">
<path d="M543.606 323.959C543.653 323.997 543.712 324.015 543.772 324.01C543.832 324.006 543.887 323.978 543.927 323.933L552.121 314.504C552.141 314.481 552.156 314.454 552.166 314.425C552.176 314.396 552.18 314.366 552.177 314.335C552.175 314.305 552.167 314.275 552.153 314.248C552.14 314.221 552.121 314.197 552.098 314.177C552.051 314.139 551.991 314.12 551.93 314.124C551.869 314.128 551.813 314.155 551.771 314.2L543.582 323.629C543.562 323.652 543.547 323.679 543.537 323.707C543.528 323.736 543.524 323.767 543.526 323.797C543.528 323.828 543.536 323.857 543.55 323.884C543.564 323.912 543.583 323.936 543.606 323.956L543.606 323.959Z" fill="#0C0C0C"/>
</g>
<g opacity="0.2">
<path d="M547.524 327.601C547.571 327.639 547.63 327.657 547.69 327.652C547.75 327.647 547.805 327.619 547.845 327.574L554.382 320.054C554.418 320.007 554.435 319.948 554.43 319.889C554.424 319.829 554.396 319.775 554.351 319.736C554.306 319.697 554.248 319.677 554.189 319.679C554.129 319.682 554.073 319.707 554.032 319.749L547.495 327.271C547.475 327.294 547.46 327.32 547.45 327.349C547.44 327.378 547.437 327.409 547.439 327.439C547.441 327.469 547.449 327.499 547.463 327.526C547.476 327.553 547.495 327.578 547.518 327.598L547.524 327.601Z" fill="#0C0C0C"/>
</g>
<path d="M554.653 335.336L537.309 414.02C537.269 414.197 537.229 414.381 537.181 414.557C533.285 418.633 529.066 422.386 524.563 425.78C523.658 426.453 522.753 427.118 521.824 427.759C521.249 427.823 520.671 427.855 520.093 427.855C517.002 427.854 513.965 427.04 511.288 425.495C508.611 423.95 506.387 421.727 504.84 419.051L471.787 361.857L502.309 344.226L512.651 362.123L520.229 327.747L554.653 335.336Z" fill="#0CBC8B"/>
<path d="M501.275 371.21C501.171 372.458 500.963 374.686 500.674 377.618C499.232 392.607 495.86 426.013 494.298 441.45C474.563 447.759 453.385 447.974 433.526 442.067H433.518C418.852 437.677 405.357 430.056 394.024 419.764C394.088 405.961 393.888 390.436 392.958 380.454C390.179 350.628 392.806 345.959 397.124 341.641C397.477 341.288 397.845 340.944 398.214 340.607C402.676 336.554 408.275 333.91 416.439 332.804C421.838 332.076 429.961 331.547 429.961 331.547C429.961 331.547 430.65 345.469 447.049 346.238C469.375 347.289 467.885 331.547 467.998 331.547C473.613 331.547 486.11 331.899 493.993 335.913C494.001 335.913 494.001 335.913 494.009 335.921C495.597 336.694 497.041 337.731 498.279 338.989C507.308 348.554 502.853 352.645 501.275 371.21Z" fill="#0CBC8B"/>
<path d="M466.239 303.595C463.017 305.233 459.342 305.751 455.793 305.067C455.67 305.044 455.543 305.056 455.427 305.103C455.311 305.149 455.21 305.227 455.137 305.329C455.063 305.43 455.02 305.55 455.013 305.675C455.005 305.8 455.034 305.924 455.094 306.034C456.154 307.898 458.662 311.085 462.967 309.787C465.747 308.948 466.798 306.088 467.188 304.318C467.215 304.196 467.206 304.068 467.163 303.951C467.12 303.833 467.044 303.73 466.944 303.654C466.844 303.578 466.725 303.532 466.6 303.522C466.475 303.511 466.35 303.537 466.239 303.595Z" fill="white"/>
<path d="M466.441 289.266C467.301 289.266 467.998 288.57 467.998 287.71C467.998 286.85 467.301 286.153 466.441 286.153C465.581 286.153 464.884 286.85 464.884 287.71C464.884 288.57 465.581 289.266 466.441 289.266Z" fill="#0C0C0C"/>
<path d="M451.481 291.885C452.341 291.885 453.038 291.188 453.038 290.329C453.038 289.469 452.341 288.772 451.481 288.772C450.622 288.772 449.925 289.469 449.925 290.329C449.925 291.188 450.622 291.885 451.481 291.885Z" fill="#0C0C0C"/>
<path d="M497.833 404.812C497.823 404.813 497.813 404.813 497.803 404.812C497.739 404.803 497.682 404.77 497.644 404.719C497.606 404.668 497.589 404.604 497.597 404.541L500.349 376.816C500.353 376.784 500.363 376.754 500.379 376.726C500.395 376.698 500.416 376.674 500.441 376.655C500.467 376.636 500.496 376.622 500.526 376.614C500.557 376.607 500.589 376.605 500.621 376.611C500.684 376.619 500.741 376.653 500.779 376.704C500.818 376.754 500.835 376.818 500.826 376.881L498.074 404.607C498.066 404.664 498.036 404.717 497.992 404.755C497.948 404.792 497.891 404.813 497.833 404.812Z" fill="#0C0C0C"/>
<path d="M481.177 403.476L496.217 396.759C496.547 396.612 496.905 396.536 497.266 396.534C497.628 396.533 497.986 396.607 498.317 396.751C498.648 396.895 498.946 397.107 499.192 397.372C499.437 397.638 499.624 397.951 499.742 398.293C499.94 398.931 499.894 399.62 499.612 400.226C499.331 400.832 498.835 401.313 498.22 401.574L494.995 403.016L507.216 403.141C508.578 403.132 510.249 403.989 510.16 405.514C510.163 406.103 509.967 406.677 509.604 407.14C509.24 407.604 508.73 407.93 508.157 408.067C508.16 408.079 508.162 408.092 508.162 408.105C508.161 408.115 508.159 408.125 508.157 408.135L510.252 408.12C510.64 408.118 511.024 408.202 511.375 408.366C511.726 408.53 512.036 408.771 512.283 409.07C512.529 409.369 512.706 409.72 512.8 410.096C512.894 410.472 512.903 410.864 512.826 411.245C512.692 411.841 512.358 412.373 511.878 412.752C511.399 413.131 510.804 413.334 510.192 413.327L509.301 413.334C509.289 413.36 509.273 413.383 509.253 413.403C509.856 413.539 510.392 413.885 510.764 414.379C511.136 414.873 511.32 415.483 511.283 416.101C511.223 416.775 510.911 417.402 510.409 417.856C509.907 418.311 509.253 418.559 508.576 418.552L506.361 418.567C506.392 418.589 506.418 418.618 506.436 418.652C506.454 418.686 506.464 418.724 506.464 418.762C506.462 418.807 506.447 418.851 506.422 418.889C506.926 419.159 507.328 419.588 507.565 420.109C507.802 420.63 507.861 421.215 507.733 421.773C507.587 422.355 507.25 422.872 506.774 423.239C506.299 423.605 505.713 423.801 505.113 423.794L486.424 423.927C483.809 423.945 481.249 423.183 479.07 421.737C476.892 420.29 475.195 418.227 474.197 415.81C473.336 413.726 473.322 411.389 474.158 409.294C474.993 407.2 476.612 405.514 478.671 404.595L481.177 403.476Z" fill="#E98862"/>
<g opacity="0.2">
<path d="M496.059 408.001C496.059 408.065 496.085 408.126 496.13 408.171C496.175 408.216 496.236 408.241 496.3 408.241L507.922 408.346C507.986 408.347 508.047 408.322 508.093 408.277C508.138 408.233 508.164 408.172 508.164 408.108C508.165 408.044 508.14 407.983 508.095 407.937C508.051 407.892 507.99 407.866 507.926 407.866L496.302 407.761C496.238 407.761 496.177 407.786 496.132 407.831C496.087 407.876 496.062 407.937 496.062 408.001H496.059Z" fill="#0C0C0C"/>
</g>
<g opacity="0.2">
<path d="M495.872 413.128C495.872 413.192 495.897 413.253 495.942 413.298C495.987 413.343 496.048 413.368 496.112 413.368L509.082 413.485C509.146 413.485 509.207 413.46 509.252 413.415C509.297 413.37 509.322 413.309 509.322 413.245C509.321 413.182 509.295 413.122 509.25 413.077C509.205 413.032 509.145 413.006 509.082 413.005L496.111 412.888C496.048 412.888 495.987 412.913 495.941 412.958C495.896 413.003 495.872 413.064 495.872 413.128Z" fill="#0C0C0C"/>
</g>
<g opacity="0.2">
<path d="M495.636 418.674C495.636 418.738 495.662 418.799 495.707 418.844C495.752 418.889 495.813 418.914 495.877 418.914L506.223 419.008C506.287 419.008 506.348 418.983 506.393 418.938C506.438 418.893 506.463 418.831 506.463 418.768C506.463 418.704 506.438 418.643 506.393 418.598C506.348 418.553 506.287 418.527 506.223 418.527L495.877 418.434C495.813 418.434 495.752 418.46 495.707 418.505C495.662 418.55 495.636 418.611 495.636 418.675V418.674Z" fill="#0C0C0C"/>
</g>
<path d="M485.486 430.259L433.526 442.067H433.518C418.852 437.677 405.357 430.056 394.024 419.764C392.806 418.659 391.615 417.526 390.451 416.367C388.421 414.341 386.48 412.234 384.627 410.047L391.901 351.534C392.694 346.818 395.329 342.609 399.226 339.835C403.122 337.061 407.961 335.949 412.677 336.742C417.394 337.536 421.603 340.17 424.377 344.067C427.151 347.963 428.263 352.802 427.47 357.519L422.872 412.458L480.807 399.343L485.486 430.259Z" fill="#0CBC8B"/>
<path d="M411.152 414.616C411.121 414.619 411.089 414.615 411.059 414.605C411.029 414.595 411.001 414.579 410.977 414.559C410.953 414.538 410.933 414.513 410.919 414.485C410.905 414.456 410.896 414.426 410.894 414.394C410.891 414.363 410.895 414.331 410.905 414.301C410.915 414.271 410.931 414.243 410.951 414.219C410.972 414.195 410.997 414.175 411.026 414.161C411.054 414.147 411.085 414.138 411.116 414.136L422.732 411.652C422.763 411.648 422.795 411.649 422.826 411.657C422.857 411.664 422.886 411.678 422.911 411.696C422.936 411.715 422.958 411.739 422.974 411.766C422.991 411.793 423.001 411.823 423.006 411.854C423.011 411.885 423.009 411.917 423.002 411.948C422.994 411.979 422.98 412.007 422.961 412.033C422.943 412.058 422.919 412.08 422.892 412.096C422.865 412.112 422.835 412.123 422.803 412.127L411.183 414.611C411.173 414.614 411.163 414.615 411.152 414.616Z" fill="#0C0C0C"/>
<path d="M485.486 430.259C485.499 430.32 485.488 430.384 485.455 430.438C485.422 430.492 485.37 430.531 485.309 430.547L434.832 442.443C434.511 442.355 434.199 442.267 433.887 442.17L484.957 430.147L480.407 399.705L422.815 412.129C422.778 412.135 422.74 412.133 422.704 412.122C422.668 412.111 422.635 412.091 422.607 412.066C422.583 412.037 422.565 412.004 422.554 411.968C422.543 411.932 422.539 411.895 422.543 411.857L425.771 380.462C425.777 380.431 425.789 380.401 425.806 380.375C425.823 380.348 425.846 380.325 425.872 380.308C425.898 380.29 425.927 380.277 425.958 380.27C425.989 380.264 426.021 380.263 426.052 380.269C426.115 380.279 426.171 380.313 426.208 380.364C426.246 380.416 426.262 380.48 426.252 380.542L423.072 411.617L480.511 399.168C480.542 399.159 480.575 399.157 480.606 399.163C480.638 399.169 480.669 399.181 480.695 399.2C480.723 399.215 480.747 399.235 480.766 399.26C480.785 399.285 480.799 399.313 480.807 399.343L485.486 430.259Z" fill="#0C0C0C"/>
<path d="M94.8646 564.598C146.839 564.598 188.973 522.464 188.973 470.489C188.973 418.514 146.839 376.381 94.8646 376.381C42.8898 376.381 0.755981 418.514 0.755981 470.489C0.755981 522.464 42.8898 564.598 94.8646 564.598Z" fill="white"/>
<path opacity="0.09" d="M94.8646 564.598C146.839 564.598 188.973 522.464 188.973 470.489C188.973 418.514 146.839 376.381 94.8646 376.381C42.8898 376.381 0.755981 418.514 0.755981 470.489C0.755981 522.464 42.8898 564.598 94.8646 564.598Z" fill="#367CFF"/>
<path d="M68.9481 417.111C68.9481 417.111 69.9679 445.455 88.8859 446.757L92.0903 409.381L68.9481 417.111Z" fill="#0A0A0A"/>
<path d="M72.5915 452.547C78.7812 452.547 83.7989 447.529 83.7989 441.34C83.7989 435.15 78.7812 430.132 72.5915 430.132C66.4019 430.132 61.3841 435.15 61.3841 441.34C61.3841 447.529 66.4019 452.547 72.5915 452.547Z" fill="#0A0A0A"/>
<path d="M116.443 459.912C116.343 459.899 115.236 478.278 93.8848 476.675C79.1037 475.571 73.834 459.888 73.496 459.888C75.1851 459.608 76.8513 459.204 78.4812 458.679C80.8084 457.429 83.6884 456.128 84.4382 451.608C84.8708 449.003 84.1378 435.675 84.3629 433.039L107.052 438.104C106.731 443.67 104.515 456.575 112.293 458.86C113.585 459.237 114.979 459.585 116.443 459.912Z" fill="#E98862"/>
<path opacity="0.5" d="M107.369 453.584C107.013 452.437 106.784 451.255 106.686 450.059C106.437 447.332 106.487 444.585 106.835 441.869C102.223 441.246 97.8788 439.343 94.295 436.375C93.8736 437.931 91.5568 444.73 92.1985 446.208C93.4114 449.008 99.1096 453.584 107.369 453.584Z" fill="#0C0C0C"/>
<path d="M103.814 448.632C94.8285 448.746 83.5947 444.212 82.2023 432.141L80.9462 421.246C79.5531 409.175 84.7643 398.655 96.1303 397.347C107.496 396.036 117.119 404.841 118.512 416.913L119.068 421.735C119.603 426.369 119.848 448.428 103.814 448.632Z" fill="#E98862"/>
<path d="M115.811 421.411C116.589 421.411 117.22 420.78 117.22 420.002C117.22 419.224 116.589 418.593 115.811 418.593C115.033 418.593 114.402 419.224 114.402 420.002C114.402 420.78 115.033 421.411 115.811 421.411Z" fill="#0C0C0C"/>
<path d="M101.408 423.058C102.186 423.058 102.817 422.427 102.817 421.649C102.817 420.871 102.186 420.24 101.408 420.24C100.63 420.24 99.9988 420.871 99.9988 421.649C99.9988 422.427 100.63 423.058 101.408 423.058Z" fill="#0C0C0C"/>
<path opacity="0.5" d="M108.555 432.378H108.578C109.038 432.321 109.495 432.239 109.947 432.132C110.621 431.968 111.511 431.68 111.441 431.076C111.361 430.388 108.622 423.184 108.309 422.365C108.296 422.33 108.276 422.298 108.25 422.27C108.223 422.243 108.192 422.22 108.158 422.205C108.123 422.189 108.086 422.181 108.048 422.18C108.01 422.179 107.972 422.185 107.937 422.199C107.902 422.212 107.869 422.233 107.842 422.259C107.814 422.285 107.792 422.316 107.776 422.351C107.761 422.385 107.752 422.422 107.751 422.46C107.75 422.498 107.757 422.536 107.77 422.571C108.939 425.639 110.814 430.679 110.867 431.143C110.146 431.549 109.338 431.776 108.511 431.805C108.435 431.811 108.364 431.847 108.314 431.905C108.265 431.963 108.24 432.038 108.246 432.114C108.252 432.191 108.287 432.262 108.346 432.311C108.404 432.361 108.479 432.386 108.555 432.38V432.378Z" fill="#0C0C0C"/>
<path opacity="0.5" d="M106.524 437.401C108.37 437.296 110.165 436.758 111.765 435.832C111.828 435.793 111.874 435.731 111.893 435.659C111.911 435.588 111.902 435.511 111.866 435.446C111.83 435.381 111.771 435.333 111.7 435.311C111.629 435.288 111.552 435.294 111.486 435.326C108.03 437.239 104.725 437.349 101.929 435.647C101.872 435.611 101.814 435.578 101.754 435.548C101.685 435.521 101.608 435.521 101.539 435.55C101.47 435.578 101.415 435.632 101.385 435.7C101.355 435.768 101.352 435.845 101.377 435.915C101.402 435.985 101.453 436.042 101.519 436.076C101.541 436.087 101.578 436.109 101.628 436.14C103.098 437.039 104.803 437.478 106.524 437.401Z" fill="#0C0C0C"/>
<path d="M71.7055 424.343L81.8899 423.227C89.7239 420.698 92.9788 407.686 92.9788 407.686C92.9788 407.686 99.9988 415.669 120.802 412.024C120.802 412.024 119.996 385.205 88.3572 388.98C77.3413 390.297 69.0346 401.344 68.9489 415.788C68.8896 425.91 71.7055 424.343 71.7055 424.343Z" fill="#0A0A0A"/>
<path d="M83.3327 435.737C79.8784 436.138 76.6523 432.764 76.2542 429.309C75.856 425.855 78.4356 423.628 81.8899 423.23L83.9367 425.338L86.3024 435.395L83.3327 435.737Z" fill="#E98862"/>
<path d="M110.827 416.486C111.846 415.922 112.998 415.642 114.161 415.675C114.736 415.688 115.306 415.787 115.851 415.969C116.393 416.148 116.91 416.393 117.39 416.701C117.438 416.731 117.472 416.779 117.486 416.835C117.5 416.89 117.491 416.948 117.463 416.998C117.435 417.047 117.388 417.084 117.334 417.1C117.279 417.116 117.22 417.11 117.17 417.084L117.155 417.076C116.7 416.806 116.213 416.594 115.705 416.445C115.202 416.295 114.679 416.222 114.154 416.228C113.11 416.233 112.085 416.515 111.185 417.045L111.163 417.058C111.126 417.083 111.084 417.099 111.04 417.107C110.996 417.115 110.951 417.114 110.908 417.105C110.865 417.095 110.824 417.076 110.787 417.05C110.751 417.024 110.721 416.991 110.697 416.953C110.674 416.915 110.659 416.873 110.653 416.829C110.646 416.785 110.649 416.74 110.66 416.697C110.671 416.654 110.691 416.613 110.718 416.578C110.746 416.543 110.78 416.514 110.818 416.492L110.827 416.486Z" fill="#0C0C0C"/>
<path d="M101.7 418.165C100.704 417.849 99.6418 417.804 98.6225 418.033C98.1092 418.145 97.6157 418.334 97.1589 418.594C96.6973 418.852 96.2699 419.167 95.8868 419.532L95.8747 419.543C95.8312 419.575 95.7773 419.591 95.7233 419.586C95.6693 419.581 95.619 419.556 95.5819 419.517C95.5448 419.477 95.5236 419.425 95.5222 419.371C95.5208 419.317 95.5393 419.264 95.5743 419.223C95.9737 418.816 96.4226 418.461 96.9106 418.166C97.4015 417.867 97.9346 417.643 98.4919 417.502C99.6191 417.21 100.804 417.226 101.923 417.548C101.966 417.559 102.007 417.578 102.042 417.605C102.078 417.633 102.107 417.667 102.129 417.705C102.151 417.744 102.165 417.787 102.17 417.832C102.175 417.876 102.172 417.921 102.159 417.964C102.146 418.006 102.125 418.046 102.096 418.081C102.068 418.115 102.033 418.143 101.993 418.164C101.953 418.184 101.91 418.196 101.865 418.2C101.821 418.203 101.776 418.197 101.734 418.183H101.725L101.7 418.165Z" fill="#0C0C0C"/>
<path opacity="0.52" d="M106.717 440.131C107.051 440.117 107.383 440.075 107.71 440.005C107.783 439.987 107.846 439.941 107.886 439.878C107.925 439.814 107.939 439.738 107.924 439.664C107.908 439.591 107.865 439.527 107.803 439.485C107.741 439.443 107.665 439.426 107.591 439.439C107.08 439.589 106.544 439.627 106.017 439.552C105.49 439.478 104.986 439.291 104.537 439.006C104.478 438.957 104.402 438.935 104.326 438.942C104.249 438.95 104.179 438.988 104.131 439.047C104.082 439.106 104.06 439.182 104.067 439.258C104.075 439.334 104.112 439.404 104.172 439.453C104.916 439.966 105.816 440.206 106.717 440.131Z" fill="#0C0C0C"/>
<path opacity="0.1" d="M99.4563 432.601C100.938 432.549 102.108 431.626 102.07 430.539C102.032 429.452 100.8 428.613 99.3185 428.665C97.8368 428.717 96.6665 429.64 96.7045 430.727C96.7426 431.814 97.9746 432.653 99.4563 432.601Z" fill="#0C0C0C"/>
<path opacity="0.1" d="M115.313 429.601C115.355 430.687 116.586 431.524 118.068 431.475C118.325 431.466 118.579 431.43 118.828 431.368C119.003 430.093 119.111 428.861 119.169 427.717C118.77 427.581 118.349 427.521 117.928 427.539C116.449 427.589 115.28 428.509 115.313 429.601Z" fill="#0C0C0C"/>
<path d="M148.331 479.27C148.267 485.687 146.064 493.337 145.279 502.582C145.07 505.05 139.774 512.187 139.005 520.126C138.036 530.236 140.192 546.002 140.48 552.819C125.594 561.056 108.755 565.108 91.7515 564.544C74.7479 563.979 58.2145 558.82 43.9073 549.615C43.5228 532.103 43.0661 510.481 42.4813 505.298C40.5827 488.186 41.0954 477.363 43.8352 472.301C48.3134 464.033 56.2843 461.51 64.6238 460.372C69.7188 459.683 77.3693 459.194 77.3693 459.194C77.3693 459.194 78.0182 472.309 93.4795 473.038C114.524 474.031 113.122 459.194 113.227 459.194C120.861 459.194 135.329 461.021 140.873 464.802C146.753 468.8 148.403 473.542 148.331 479.27Z" fill="#FFC239"/>
<path d="M75.6229 489.252L47.0716 551.558C36.1093 545.087 26.5714 536.462 19.0331 526.203L42.8498 474.228L75.6229 489.252Z" fill="#FFC239"/>
<path d="M171.395 525.261C165.801 533.065 159.05 539.97 151.375 545.737C148.849 547.645 146.226 549.42 143.516 551.057L114.212 486.632L147.025 471.7L171.395 525.261Z" fill="#FFC239"/>
<path d="M290.719 195.964C344.833 195.964 388.701 152.096 388.701 97.9819C388.701 43.868 344.833 0 290.719 0C236.606 0 192.738 43.868 192.738 97.9819C192.738 152.096 236.606 195.964 290.719 195.964Z" fill="white"/>
<path opacity="0.09" d="M290.719 195.964C344.833 195.964 388.701 152.096 388.701 97.9819C388.701 43.868 344.833 0 290.719 0C236.606 0 192.738 43.868 192.738 97.9819C192.738 152.096 236.606 195.964 290.719 195.964Z" fill="#367CFF"/>
<path d="M309.665 39.3086C309.665 39.3086 315.87 32.5842 315.39 19.7762C315.019 9.85933 307.236 17.7366 307.236 17.7366C307.236 17.7366 306.898 10.5987 301.948 12.209C296.998 13.8192 295.476 21.6572 295.476 21.6572" fill="#0C0C0C"/>
<path d="M275.845 17.7766C275.845 17.7766 251.135 25.0386 266.424 57.5361L268.681 57.2813L273.262 56.7654" fill="#0C0C0C"/>
<path d="M310.862 91.2456C310.75 91.2312 309.5 111.962 285.417 110.152C268.744 108.903 262.799 91.2136 262.417 91.2136C264.215 90.8314 266.436 90.2522 267.319 90.0528C269.244 89.6062 270.986 88.5843 272.316 87.1231C273.645 85.6619 274.498 83.8305 274.761 81.8727C275.249 78.9343 274.421 63.9008 274.676 60.9279L300.268 66.6398C299.91 72.9196 297.408 87.4764 306.18 90.0528C307.64 90.4797 309.213 90.8723 310.862 91.2456Z" fill="#E98862"/>
<path opacity="0.52" d="M300.627 84.1046C300.227 82.8126 299.969 81.4807 299.858 80.1327C299.577 77.0564 299.633 73.9585 300.025 70.8944C294.823 70.1923 289.923 68.0452 285.881 64.6971C285.405 66.4523 282.792 74.1212 283.515 75.7891C284.883 78.9423 291.311 84.1046 300.627 84.1046Z" fill="#0C0C0C"/>
<path d="M296.45 77.5043C286.356 78.4119 273.326 74.287 270.714 60.8317L268.356 48.6911C265.743 35.2326 270.693 22.9557 283.361 20.4963C296.03 18.0361 307.617 27.1054 310.23 40.5607L311.272 45.9353C311.598 47.7868 311.798 49.6586 311.869 51.5374C312.095 56.5042 312.42 64.053 310.032 69.6334C307.78 74.9031 302.9 76.9251 296.45 77.5043Z" fill="#E98862"/>
<path opacity="0.5" d="M297.976 64.2021C299.825 64.1673 301.639 63.6986 303.274 62.8338C303.309 62.8177 303.341 62.7946 303.367 62.7659C303.394 62.7371 303.414 62.7033 303.427 62.6666C303.44 62.6298 303.445 62.5908 303.443 62.5518C303.44 62.5129 303.43 62.4749 303.412 62.4401C303.395 62.4053 303.37 62.3743 303.341 62.3492C303.311 62.3241 303.276 62.3052 303.239 62.2938C303.202 62.2824 303.162 62.2787 303.124 62.2828C303.085 62.2869 303.047 62.2989 303.013 62.3179C299.488 64.0971 296.181 64.0803 293.451 62.2746C293.396 62.2365 293.339 62.2012 293.281 62.1689C293.247 62.1522 293.21 62.1423 293.172 62.1399C293.134 62.1374 293.096 62.1425 293.06 62.1547C293.024 62.167 292.991 62.1862 292.963 62.2112C292.934 62.2362 292.911 62.2666 292.894 62.3007C292.877 62.3347 292.867 62.3717 292.865 62.4095C292.863 62.4474 292.868 62.4853 292.88 62.5212C292.892 62.5571 292.911 62.5903 292.936 62.6187C292.961 62.6472 292.992 62.6705 293.026 62.6872C293.047 62.6992 293.083 62.7233 293.132 62.7561C294.567 63.7095 296.253 64.213 297.976 64.2021Z" fill="#0C0C0C"/>
<path opacity="0.52" d="M298.065 66.9394C298.399 66.9384 298.733 66.9089 299.062 66.8513C299.099 66.8449 299.135 66.8312 299.167 66.8111C299.199 66.7909 299.227 66.7646 299.249 66.7337C299.271 66.7028 299.287 66.6679 299.295 66.6309C299.303 66.594 299.304 66.5558 299.298 66.5184C299.292 66.4811 299.278 66.4453 299.258 66.4133C299.238 66.3812 299.211 66.3534 299.18 66.3315C299.15 66.3096 299.115 66.294 299.078 66.2856C299.041 66.2772 299.003 66.2761 298.965 66.2825C298.449 66.4117 297.912 66.4296 297.388 66.3348C296.865 66.24 296.368 66.0349 295.93 65.7329C295.872 65.6842 295.798 65.66 295.722 65.6656C295.647 65.6711 295.577 65.7059 295.527 65.7625C295.477 65.8191 295.452 65.893 295.456 65.9683C295.46 66.0437 295.493 66.1145 295.548 66.1655C296.272 66.7068 297.162 66.9803 298.065 66.9394Z" fill="#0C0C0C"/>
<path d="M307.198 49.3256C308.076 49.3256 308.787 48.614 308.787 47.7362C308.787 46.8584 308.076 46.1468 307.198 46.1468C306.32 46.1468 305.609 46.8584 305.609 47.7362C305.609 48.614 306.32 49.3256 307.198 49.3256Z" fill="#0C0C0C"/>
<path d="M291.743 51.132C292.621 51.132 293.333 50.4204 293.333 49.5426C293.333 48.6648 292.621 47.9532 291.743 47.9532C290.865 47.9532 290.154 48.6648 290.154 49.5426C290.154 50.4204 290.865 51.132 291.743 51.132Z" fill="#0C0C0C"/>
<path d="M272.297 64.778C268.446 65.5254 264.526 62.0126 263.778 58.1625C263.029 54.3124 265.74 51.5839 269.589 50.8364L272.072 53.0306L275.605 64.1355L272.297 64.778Z" fill="#E98862"/>
<path d="M275.013 57.8821C275.013 57.8821 272.862 38.5636 278.435 36.3381C282.147 34.8553 292.482 38.6301 300.84 35.4128C304.496 34.0045 308.261 34.2913 308.95 36.0145C309.223 36.6962 309.741 26.0904 302.411 19.4389C296.576 14.1436 280.811 15.2035 274.145 18.4928C255.69 27.6005 268.945 51.8186 268.945 51.8186L271.004 58.2402L275.013 57.8821Z" fill="#0C0C0C"/>
<g opacity="0.52">
<path d="M300.345 59.4179H300.37C301.612 59.1775 303.668 58.6432 303.495 57.7147C303.346 56.9449 299.649 49.0428 299.23 48.1448C299.212 48.1065 299.186 48.0722 299.155 48.0437C299.124 48.0153 299.087 47.9932 299.048 47.9789C299.008 47.9645 298.966 47.9581 298.924 47.9601C298.881 47.962 298.84 47.9722 298.802 47.9902C298.764 48.0081 298.729 48.0334 298.701 48.0646C298.672 48.0958 298.65 48.1323 298.636 48.172C298.621 48.2118 298.615 48.2539 298.617 48.2961C298.619 48.3383 298.629 48.3797 298.647 48.4179C300.286 51.9172 302.762 57.3102 302.863 57.8349C302.782 58.0752 301.539 58.5391 300.254 58.785C300.169 58.7976 300.093 58.8435 300.042 58.9126C299.99 58.9816 299.969 59.0681 299.981 59.1531C299.994 59.2381 300.04 59.3146 300.109 59.3657C300.178 59.4169 300.264 59.4385 300.349 59.4259L300.345 59.4179Z" fill="#0C0C0C"/>
</g>
<path d="M301.223 40.0552C302.466 39.4597 303.846 39.2106 305.218 39.3342C305.891 39.3909 306.552 39.5481 307.178 39.8005C307.797 40.0464 308.382 40.3694 308.92 40.7618C309.019 40.8308 309.089 40.9359 309.113 41.0549C309.136 41.1739 309.113 41.2975 309.048 41.3998C308.982 41.502 308.88 41.5749 308.762 41.6031C308.644 41.6313 308.519 41.6126 308.415 41.5509L308.379 41.5381C307.891 41.2267 307.366 40.9777 306.817 40.7971C306.276 40.6166 305.711 40.5191 305.142 40.5079C304.018 40.4766 302.907 40.7427 301.92 41.2793L301.879 41.3025C301.798 41.3484 301.71 41.378 301.618 41.3897C301.526 41.4013 301.433 41.3947 301.344 41.3704C301.255 41.346 301.171 41.3043 301.098 41.2477C301.025 41.191 300.964 41.1205 300.918 41.0402C300.872 40.9599 300.842 40.8713 300.831 40.7795C300.819 40.6878 300.826 40.5946 300.85 40.5054C300.874 40.4162 300.916 40.3326 300.973 40.2595C301.029 40.1864 301.1 40.1251 301.18 40.0793L301.223 40.0552Z" fill="#0C0C0C"/>
<path d="M292.111 42.5178C291.029 42.2151 289.886 42.2032 288.798 42.4834C288.245 42.621 287.717 42.8416 287.23 43.1379C286.733 43.4361 286.275 43.7954 285.868 44.2074L285.842 44.233C285.755 44.318 285.637 44.3653 285.515 44.3649C285.393 44.3645 285.275 44.3164 285.188 44.2309C285.101 44.1453 285.051 44.029 285.048 43.9069C285.045 43.7847 285.09 43.6663 285.173 43.5769C285.61 43.0736 286.108 42.6276 286.656 42.2495C287.211 41.8638 287.821 41.5633 288.464 41.3578C289.108 41.1457 289.777 41.0228 290.454 40.9925C291.147 40.9544 291.843 41.0148 292.519 41.172C292.701 41.2145 292.858 41.3275 292.957 41.4861C293.055 41.6448 293.087 41.8361 293.044 42.0179C293.002 42.1998 292.889 42.3574 292.73 42.4559C292.571 42.5545 292.38 42.586 292.198 42.5435L292.157 42.5322L292.111 42.5178Z" fill="#0C0C0C"/>
<path d="M296.985 27.2563C299.733 26.1426 300.632 21.9605 298.993 17.9155C297.354 13.8704 293.797 11.4941 291.049 12.6078C288.301 13.7215 287.402 17.9035 289.041 21.9486C290.68 25.9937 294.237 28.37 296.985 27.2563Z" fill="#0C0C0C"/>
<path d="M344.148 112.668C344.244 119.309 341.649 126.775 340.783 136.885C340.607 138.936 340.191 143.454 339.638 149.342C338.733 159.092 337.451 172.574 336.329 184.727C320.29 193.145 302.234 196.959 284.161 195.746C266.087 194.533 248.703 188.34 233.933 177.853C233.58 177.589 233.228 177.333 232.875 177.084C231.938 163.345 230.832 148.926 229.823 139.817C227.924 122.81 225.337 114.342 226.787 108.622C226.903 108.135 227.058 107.658 227.251 107.196C231.425 97.0703 244.715 92.5521 253.72 91.3344C259.215 90.5894 267.483 90.0527 267.483 90.0527C267.483 90.0527 268.18 104.216 284.867 105.001C307.586 106.075 306.072 90.0527 306.184 90.0527C309.861 90.0527 329.896 92.7284 334.903 95.9968C335.743 96.5418 336.546 97.1412 337.307 97.7913C339.482 99.6057 341.225 101.883 342.409 104.456C343.592 107.03 344.186 109.835 344.148 112.668Z" fill="#383838"/>
<path d="M260.497 122.938L233.933 177.853C233.58 177.589 233.228 177.333 232.875 177.084C222.577 169.533 213.844 160.054 207.16 149.174L226.787 108.622L227.564 107.012L260.497 122.938Z" fill="#383838"/>
<path d="M257.934 129.259L233.772 177.733C233.612 177.613 233.46 177.501 233.3 177.397L257.429 129.01C257.464 128.943 257.523 128.892 257.595 128.868C257.667 128.844 257.745 128.849 257.813 128.882C257.879 128.916 257.929 128.975 257.951 129.046C257.974 129.116 257.968 129.193 257.934 129.259Z" fill="white"/>
<path d="M380.438 137.43C375.622 148.344 368.86 158.29 360.483 166.782L339.638 149.342L313.161 127.184L337.307 97.7914L337.379 97.7032L380.438 137.43Z" fill="#383838"/>
<path d="M339.959 149.556C340.027 149.553 340.092 149.525 340.141 149.478C340.19 149.43 340.22 149.367 340.226 149.299L341.601 133.173C341.608 133.098 341.584 133.024 341.536 132.967C341.488 132.91 341.419 132.874 341.345 132.868C341.271 132.862 341.198 132.886 341.141 132.934C341.084 132.982 341.048 133.05 341.041 133.124L339.665 149.251C339.659 149.325 339.682 149.399 339.73 149.456C339.778 149.513 339.847 149.549 339.921 149.555L339.959 149.556Z" fill="white"/>
<path d="M752.091 620.253C803.704 620.253 845.545 578.412 845.545 526.799C845.545 475.185 803.704 433.345 752.091 433.345C700.477 433.345 658.636 475.185 658.636 526.799C658.636 578.412 700.477 620.253 752.091 620.253Z" fill="white"/>
<path opacity="0.09" d="M658.636 526.796C658.635 545.279 664.116 563.348 674.385 578.716C684.653 594.084 699.249 606.062 716.325 613.136C733.401 620.209 752.191 622.06 770.319 618.454C788.447 614.848 805.099 605.948 818.169 592.878C831.238 579.809 840.139 563.157 843.745 545.029C847.351 526.901 845.5 508.111 838.427 491.034C831.354 473.958 819.376 459.363 804.008 449.094C788.639 438.825 770.571 433.345 752.088 433.345C739.803 433.299 727.631 435.686 716.272 440.366C704.914 445.046 694.594 451.928 685.907 460.615C677.22 469.302 670.338 479.622 665.657 490.98C660.977 502.339 658.59 514.511 658.636 526.796Z" fill="#367CFF"/>
<path d="M794.496 475.228C793.004 492.532 794.387 498.399 801.572 508.313C807.632 516.672 773.151 509.567 757.894 506.85L771.357 467.501C771.357 467.501 795.02 469.151 794.496 475.228Z" fill="#0A0A0A"/>
<path d="M741.86 468.028C737.358 484.803 737.864 489.992 729.055 498.801C721.754 506.102 750.208 507.587 765.475 510.239L766.248 468.662C766.248 468.662 743.441 462.138 741.86 468.028Z" fill="#0A0A0A"/>
<path d="M743.377 516.817C743.477 516.803 744.595 535.354 766.146 533.737C781.065 532.62 786.384 516.791 786.726 516.791C785.021 516.507 783.34 516.099 781.694 515.57C779.346 514.308 776.438 512.994 775.681 508.433C775.245 505.803 775.985 492.351 775.757 489.687L752.856 494.799C753.177 500.418 755.42 513.444 747.569 515.748C746.261 516.133 744.853 516.484 743.377 516.817Z" fill="#E98862"/>
<path opacity="0.5" d="M752.535 510.428C752.894 509.272 753.125 508.08 753.224 506.874C753.476 504.121 753.426 501.349 753.075 498.607C757.73 497.979 762.115 496.058 765.732 493.062C766.158 494.633 768.496 501.494 767.849 502.987C766.624 505.808 760.873 510.428 752.535 510.428Z" fill="#0C0C0C"/>
<path d="M755.497 504.649C764.526 505.522 776.208 501.911 778.628 489.887L780.812 479.038C783.232 467.014 778.878 455.996 767.557 453.717C756.236 451.439 745.812 459.485 743.392 471.507L742.426 476.313C741.498 480.924 739.387 503.092 755.497 504.649Z" fill="#E98862"/>
<path d="M791.739 482.462L781.554 481.347C761.626 477.682 756.746 461.602 756.746 461.602C756.746 461.602 748.386 472.762 741.288 470.199C741.288 470.199 743.576 443.289 775.085 448.018C787.466 449.876 794.495 460.139 794.495 473.905C794.495 484.025 791.739 482.462 791.739 482.462Z" fill="#0A0A0A"/>
<path opacity="0.1" d="M764.157 487.236C764.287 486.146 763.188 485.119 761.702 484.942C760.216 484.764 758.906 485.504 758.776 486.594C758.646 487.684 759.745 488.711 761.231 488.889C762.717 489.066 764.027 488.326 764.157 487.236Z" fill="#0C0C0C"/>
<path opacity="0.1" d="M745.54 484.536C745.407 485.624 744.098 486.363 742.611 486.188C742.354 486.157 742.101 486.099 741.856 486.016C741.787 484.718 741.783 483.47 741.821 482.314C742.234 482.212 742.662 482.187 743.084 482.241C744.566 482.416 745.665 483.443 745.54 484.536Z" fill="#0C0C0C"/>
<path opacity="0.5" d="M752.102 487.9H752.079C751.621 487.804 751.168 487.683 750.723 487.537C750.058 487.315 749.188 486.95 749.309 486.349C749.447 485.664 752.811 478.649 753.194 477.852C753.21 477.817 753.233 477.785 753.262 477.758C753.29 477.731 753.324 477.711 753.36 477.697C753.397 477.684 753.436 477.678 753.475 477.68C753.514 477.682 753.552 477.691 753.587 477.708C753.622 477.725 753.654 477.749 753.679 477.778C753.705 477.807 753.725 477.841 753.737 477.878C753.75 477.915 753.754 477.954 753.751 477.993C753.749 478.032 753.738 478.07 753.72 478.105C752.284 481.091 749.973 486.003 749.88 486.464C750.571 486.933 751.365 487.23 752.194 487.328C752.267 487.344 752.332 487.387 752.374 487.449C752.417 487.51 752.434 487.586 752.422 487.66C752.41 487.734 752.37 487.8 752.311 487.846C752.251 487.891 752.176 487.912 752.102 487.904V487.9Z" fill="#0C0C0C"/>
<path d="M777.187 493.409C780.628 494.101 784.157 490.982 784.85 487.542C785.543 484.101 783.136 481.642 779.695 480.95L777.458 482.898L774.23 492.814L777.187 493.409Z" fill="#E98862"/>
<path d="M750.755 472.255C750.33 471.954 749.867 471.712 749.378 471.534C748.883 471.348 748.364 471.231 747.837 471.187C747.309 471.137 746.777 471.166 746.258 471.274C745.735 471.381 745.228 471.553 744.748 471.786L744.732 471.793C744.68 471.811 744.623 471.81 744.572 471.789C744.521 471.768 744.48 471.728 744.456 471.678C744.432 471.628 744.428 471.571 744.444 471.519C744.46 471.466 744.495 471.421 744.543 471.392C745.052 471.124 745.592 470.92 746.152 470.786C746.716 470.649 747.297 470.597 747.877 470.633C749.05 470.699 750.184 471.077 751.161 471.73C751.232 471.781 751.28 471.858 751.295 471.944C751.31 472.03 751.291 472.118 751.242 472.19C751.193 472.262 751.118 472.312 751.032 472.33C750.947 472.347 750.858 472.331 750.785 472.284L750.777 472.278L750.755 472.255Z" fill="#0C0C0C"/>
<path d="M760.026 473.537C761.178 473.307 762.371 473.392 763.48 473.781C764.029 473.969 764.546 474.24 765.015 474.582C765.481 474.92 765.903 475.314 766.27 475.757C766.31 475.801 766.331 475.859 766.328 475.918C766.325 475.977 766.299 476.032 766.256 476.072C766.212 476.112 766.154 476.133 766.095 476.13C766.036 476.127 765.981 476.101 765.941 476.058L765.929 476.046C765.574 475.646 765.17 475.293 764.727 474.995C764.289 474.696 763.809 474.465 763.302 474.31C762.296 473.994 761.224 473.951 760.196 474.183L760.171 474.19C760.085 474.211 759.994 474.197 759.918 474.151C759.842 474.105 759.787 474.031 759.766 473.944C759.745 473.858 759.758 473.767 759.804 473.691C759.85 473.615 759.925 473.56 760.011 473.539L760.026 473.537Z" fill="#0C0C0C"/>
<path d="M708.668 609.566C704.995 607.964 702.246 606.249 695.973 601.523C691.446 598.125 687.239 594.321 683.404 590.158L715.616 528.862L717.017 526.199L746.071 541.474L720.868 589.436L720.752 589.647L720.971 590.501" fill="#EA394A"/>
<path d="M815.796 560.257C814.951 569.347 814.768 583.483 814.826 596.051C802.68 607.069 787.848 614.694 771.82 618.16C755.792 621.626 739.134 620.812 723.521 615.798C721.61 596.844 718.769 568.99 717.167 551.84C715.544 534.074 710.771 528.207 723.798 519.699C730.976 516.046 742.355 515.724 747.469 515.724C745.733 532.563 781.221 534.636 782.103 515.724C808.646 518.206 820.934 518.823 815.796 560.257Z" fill="#EA394A"/>
<path d="M749.074 490.269C752.008 491.761 755.355 492.233 758.587 491.609C758.699 491.588 758.814 491.599 758.92 491.642C759.026 491.684 759.118 491.755 759.185 491.848C759.252 491.94 759.291 492.05 759.297 492.164C759.304 492.278 759.278 492.391 759.223 492.491C758.261 494.188 755.973 497.091 752.054 495.908C749.522 495.144 748.566 492.544 748.208 490.929C748.183 490.817 748.191 490.701 748.23 490.593C748.269 490.485 748.339 490.391 748.43 490.322C748.521 490.252 748.63 490.21 748.744 490.201C748.859 490.192 748.973 490.215 749.074 490.269Z" fill="white"/>
<path d="M748.891 477.223C749.674 477.223 750.308 476.588 750.308 475.805C750.308 475.023 749.674 474.388 748.891 474.388C748.108 474.388 747.474 475.023 747.474 475.805C747.474 476.588 748.108 477.223 748.891 477.223Z" fill="#0C0C0C"/>
<path d="M762.513 479.607C763.295 479.607 763.93 478.972 763.93 478.189C763.93 477.407 763.295 476.772 762.513 476.772C761.73 476.772 761.096 477.407 761.096 478.189C761.096 478.972 761.73 479.607 762.513 479.607Z" fill="#0C0C0C"/>
<path d="M720.305 582.434H720.332C720.39 582.426 720.442 582.395 720.477 582.348C720.512 582.302 720.527 582.244 720.519 582.186L718.013 556.941C718.01 556.912 718.001 556.884 717.987 556.859C717.972 556.834 717.953 556.812 717.93 556.795C717.907 556.777 717.88 556.765 717.852 556.758C717.824 556.751 717.795 556.75 717.767 556.754C717.738 556.758 717.711 556.768 717.686 556.782C717.661 556.797 717.639 556.816 717.622 556.839C717.604 556.862 717.592 556.888 717.585 556.916C717.577 556.944 717.576 556.973 717.58 557.001L720.085 582.247C720.093 582.299 720.12 582.347 720.16 582.382C720.201 582.416 720.252 582.434 720.305 582.434Z" fill="#0C0C0C"/>
<path d="M717.029 563.207H691.451V594.577H717.029V563.207Z" fill="white"/>
<path d="M706.555 578.893C706.556 576.821 707.17 574.796 708.322 573.073C709.473 571.351 711.109 570.009 713.023 569.216C714.938 568.424 717.044 568.217 719.076 568.621C721.108 569.026 722.974 570.024 724.439 571.489C725.903 572.954 726.901 574.821 727.304 576.853C727.708 578.885 727.501 580.991 726.708 582.905C725.915 584.819 724.572 586.455 722.849 587.605C721.127 588.756 719.101 589.37 717.03 589.37C714.252 589.367 711.589 588.262 709.625 586.298C707.662 584.333 706.557 581.67 706.555 578.893ZM710.845 578.893C710.845 580.116 711.208 581.311 711.887 582.329C712.567 583.346 713.533 584.138 714.663 584.606C715.793 585.074 717.036 585.197 718.236 584.958C719.436 584.72 720.538 584.131 721.403 583.266C722.268 582.401 722.857 581.299 723.095 580.099C723.334 578.899 723.211 577.656 722.743 576.526C722.275 575.396 721.482 574.43 720.465 573.75C719.448 573.071 718.253 572.708 717.03 572.708C715.39 572.71 713.818 573.362 712.659 574.522C711.499 575.681 710.847 577.253 710.845 578.893Z" fill="white"/>
<path d="M716.826 582.775C716.912 582.244 717.182 581.761 717.589 581.409C717.996 581.058 718.513 580.86 719.051 580.852C719.036 580.831 719.025 580.806 719.019 580.781L718.258 580.616C717.727 580.511 717.248 580.226 716.903 579.808C716.559 579.391 716.369 578.868 716.365 578.326C716.37 577.987 716.451 577.653 716.6 577.348C716.75 577.043 716.965 576.776 717.231 576.564C717.497 576.353 717.806 576.204 718.137 576.126C718.467 576.049 718.811 576.046 719.143 576.118L720.94 576.505C720.94 576.499 720.94 576.493 720.94 576.485C720.944 576.471 720.949 576.457 720.956 576.444C720.487 576.224 720.108 575.852 719.878 575.388C719.648 574.924 719.583 574.397 719.692 573.891C719.888 572.562 721.483 572.124 722.651 572.377L727.305 573.21L725.734 572.168C725.239 571.825 724.892 571.306 724.764 570.717C724.636 570.128 724.736 569.512 725.045 568.994C725.213 568.733 725.433 568.508 725.691 568.334C725.949 568.16 726.24 568.04 726.546 567.983C726.852 567.925 727.167 567.93 727.471 567.998C727.775 568.065 728.061 568.194 728.314 568.377L747.075 589.846L742.909 587.956C741.616 589.858 739.785 591.33 737.65 592.184C735.515 593.038 733.174 593.234 730.926 592.749L720.752 590.531C720.221 590.426 719.743 590.141 719.398 589.724C719.053 589.307 718.862 588.783 718.859 588.242C718.867 587.753 719.03 587.28 719.325 586.891C719.621 586.502 720.032 586.217 720.501 586.079C720.486 586.044 720.481 586.007 720.485 585.97C720.491 585.935 720.505 585.902 720.527 585.874C720.548 585.846 720.576 585.824 720.609 585.809L718.731 585.404C718.139 585.289 717.614 584.953 717.26 584.465C716.906 583.977 716.751 583.373 716.826 582.775Z" fill="#E98862"/>
<path opacity="0.2" d="M724.338 577.262C724.387 577.251 724.431 577.224 724.462 577.185C724.493 577.146 724.509 577.097 724.508 577.047C724.507 576.997 724.489 576.949 724.457 576.911C724.424 576.873 724.379 576.847 724.33 576.839L721.187 576.307C721.159 576.301 721.13 576.301 721.101 576.306C721.073 576.312 721.046 576.323 721.022 576.339C720.998 576.356 720.977 576.377 720.962 576.401C720.946 576.426 720.935 576.453 720.93 576.482C720.926 576.51 720.927 576.539 720.933 576.568C720.94 576.596 720.952 576.622 720.97 576.646C720.987 576.669 721.009 576.689 721.034 576.703C721.059 576.718 721.086 576.728 721.115 576.731L724.258 577.263C724.284 577.268 724.312 577.267 724.338 577.262Z" fill="#0C0C0C"/>
<path opacity="0.2" d="M723.579 581.707C723.628 581.697 723.672 581.67 723.703 581.631C723.734 581.592 723.751 581.543 723.75 581.493C723.75 581.443 723.731 581.395 723.699 581.357C723.667 581.319 723.622 581.293 723.573 581.284L719.268 580.521C719.239 580.514 719.21 580.513 719.181 580.519C719.152 580.524 719.125 580.535 719.1 580.551C719.076 580.567 719.055 580.588 719.039 580.612C719.023 580.637 719.012 580.664 719.007 580.693C719.002 580.722 719.003 580.751 719.009 580.78C719.016 580.808 719.028 580.835 719.046 580.859C719.063 580.882 719.085 580.902 719.11 580.917C719.135 580.931 719.163 580.941 719.192 580.944L723.498 581.709C723.525 581.713 723.552 581.713 723.579 581.707Z" fill="#0C0C0C"/>
<path opacity="0.2" d="M722.789 586.526C722.838 586.516 722.882 586.489 722.913 586.449C722.944 586.409 722.961 586.36 722.959 586.31C722.958 586.259 722.939 586.211 722.905 586.173C722.872 586.135 722.826 586.11 722.777 586.103L720.735 585.79C720.68 585.785 720.625 585.801 720.582 585.835C720.538 585.869 720.509 585.918 720.501 585.972C720.493 586.027 720.506 586.082 720.537 586.128C720.568 586.173 720.616 586.204 720.67 586.216L722.712 586.529C722.737 586.533 722.763 586.532 722.789 586.526Z" fill="#0C0C0C"/>
<path d="M828.828 580.121C817.318 596.673 800.777 609.072 781.662 615.477L781.654 615.47C777.409 614.639 736.906 598.647 731.548 597.597L737.41 570.248C752.463 573.243 779.917 584.79 795.055 587.797L784.375 539.373C783.988 537.234 784.029 535.039 784.497 532.916C784.965 530.794 785.849 528.785 787.099 527.006C788.349 525.228 789.939 523.715 791.778 522.556C793.617 521.397 795.668 520.615 797.811 520.254C799.955 519.894 802.149 519.962 804.265 520.456C806.382 520.95 808.38 521.859 810.143 523.13C811.906 524.402 813.399 526.011 814.535 527.864C815.671 529.717 816.429 531.777 816.763 533.925L828.828 580.121Z" fill="#EA394A"/>
<path d="M806.529 591.362C806.584 591.361 806.636 591.339 806.676 591.302C806.716 591.264 806.74 591.213 806.744 591.159C806.748 591.104 806.732 591.05 806.698 591.007C806.665 590.964 806.616 590.935 806.562 590.926L795.18 587.065C795.152 587.06 795.122 587.061 795.094 587.068C795.066 587.075 795.04 587.087 795.017 587.104C794.994 587.122 794.974 587.143 794.959 587.168C794.945 587.193 794.935 587.22 794.931 587.249C794.923 587.306 794.937 587.365 794.972 587.411C795.006 587.458 795.058 587.489 795.115 587.497L806.497 591.359C806.508 591.361 806.519 591.362 806.529 591.362Z" fill="#0C0C0C"/>
<path d="M795.355 587.25C795.361 587.318 795.34 587.387 795.296 587.44C795.271 587.463 795.241 587.481 795.208 587.491C795.175 587.501 795.14 587.504 795.106 587.498L737.775 570.577L732.029 597.494L781.399 615.557C781.246 615.608 781.085 615.659 780.932 615.71C780.822 615.747 780.713 615.783 780.596 615.812L731.708 597.862C731.653 597.847 731.605 597.812 731.576 597.763C731.546 597.714 731.536 597.655 731.548 597.599L737.41 570.251C737.417 570.223 737.43 570.197 737.447 570.174C737.465 570.152 737.487 570.133 737.512 570.119C737.536 570.102 737.564 570.091 737.593 570.086C737.622 570.081 737.652 570.082 737.68 570.09L794.873 587.034L788.399 560.338C788.391 560.281 788.406 560.223 788.44 560.177C788.474 560.13 788.525 560.099 788.581 560.09C788.61 560.085 788.639 560.085 788.667 560.09C788.695 560.096 788.722 560.108 788.746 560.124C788.77 560.14 788.79 560.161 788.806 560.185C788.821 560.209 788.832 560.236 788.837 560.265L795.355 587.25Z" fill="#0C0C0C"/>
<path d="M47.7542 552.365C47.7008 552.365 47.648 552.354 47.5988 552.334C47.5503 552.313 47.5063 552.284 47.4693 552.246C47.4322 552.209 47.403 552.164 47.3831 552.116C47.3632 552.067 47.3532 552.015 47.3535 551.962C47.3538 551.91 47.3645 551.857 47.3849 551.809L63.0817 514.499C63.123 514.401 63.2015 514.324 63.3 514.284C63.3985 514.244 63.5088 514.244 63.6068 514.286C63.7047 514.327 63.7823 514.406 63.8223 514.504C63.8623 514.603 63.8616 514.713 63.8203 514.811L48.1235 552.119C48.093 552.192 48.0417 552.254 47.976 552.298C47.9103 552.342 47.8331 552.365 47.7542 552.365Z" fill="#0C0C0C"/>
<path d="M140.12 552.789H140.102C140.049 552.791 139.997 552.783 139.947 552.765C139.898 552.747 139.853 552.72 139.814 552.684C139.775 552.649 139.743 552.606 139.721 552.558C139.699 552.511 139.686 552.459 139.684 552.407L137.934 514.247C137.933 514.142 137.971 514.04 138.042 513.962C138.113 513.884 138.211 513.836 138.315 513.828C138.368 513.825 138.421 513.833 138.47 513.851C138.52 513.869 138.565 513.897 138.604 513.932C138.643 513.968 138.675 514.01 138.697 514.058C138.719 514.106 138.732 514.158 138.734 514.21L140.484 552.37C140.489 552.473 140.454 552.575 140.386 552.653C140.318 552.731 140.223 552.78 140.12 552.789Z" fill="#0C0C0C"/>
</svg>
