<svg width="274" height="275" viewBox="0 0 274 275" fill="none" xmlns="http://www.w3.org/2000/svg">
<path d="M199.525 35L163.876 78.1549L153.072 45.7858L141.17 78.1549C142.557 78.9055 143.943 79.7138 145.33 80.4645C136.143 81.0996 126.726 83.8134 117.423 88.9522C199.525 88.9522 247.018 175.273 186.525 240C196.405 233.302 204.321 225.854 210.503 218.001C210.445 218.174 210.387 218.29 210.329 218.463L241.645 229.203L226.507 196.868H265.391L234.076 175.273L274 153.679L232.978 142.881L271.862 99.7496L220.036 110.547L247.018 56.5601L194.094 88.9522L199.525 35ZM69.4104 48.9962C68.4859 48.9962 67.446 49.4004 65.9437 50.2664L64.7882 50.9016H63.4593C41.475 50.9016 17.9481 60.3132 0.418449 90.6267C-1.27443 104.831 2.41177 110.836 7.11484 118.631C11.3961 125.79 16.5614 134.451 16.8503 148.54C29.9773 148.309 47.1083 146.461 64.3838 130.236L52.4238 63.8353L93.8502 102.637C96.2769 99.6919 98.8191 97.5555 100.726 95.881C102.632 94.2066 103.903 92.994 104.77 91.2618C93.7346 84.1021 87.4369 71.3993 81.6014 61.9299C78.3659 56.6756 75.2459 52.4028 72.8192 50.5552C71.5481 49.6313 70.7393 49.0539 69.757 48.9962H69.4104ZM68.0237 92.4744L75.477 133.816L73.5704 135.722C62.4771 146.808 50.9216 152.524 40.3657 155.526L68.8326 196.868L85.0681 229.203C90.9036 231.859 101.072 231.224 113.032 228.337L110.952 207.666L130.192 223.024C164.339 210.495 203.049 185.263 201.663 164.476C187.623 134.509 151.454 104.542 121.294 134.509C113.09 144.036 108.41 154.66 103.672 173.426C104.655 154.487 104.77 143.805 110.606 134.22L100.783 110.432C100.263 111.124 99.8013 111.933 99.3391 112.857L96.2769 118.977L68.0237 92.4744Z" fill="black"/>
</svg>
