<svg width="24" height="24" viewBox="0 0 24 24" fill="none" xmlns="http://www.w3.org/2000/svg">
<g clip-path="url(#clip0_119_3161)">
<path d="M17.303 9.52452L20.485 12.7065C21.0013 13.216 21.4118 13.8226 21.6927 14.4913C21.9737 15.1601 22.1196 15.8778 22.122 16.6032C22.1244 17.3285 21.9834 18.0472 21.7069 18.7178C21.4304 19.3884 21.024 19.9977 20.5111 20.5107C19.9982 21.0236 19.3889 21.43 18.7183 21.7064C18.0477 21.9829 17.329 22.124 16.6036 22.1215C15.8783 22.1191 15.1605 21.9732 14.4918 21.6923C13.823 21.4113 13.2165 21.0009 12.707 20.4845L11.647 19.4245C11.5037 19.2862 11.3893 19.1208 11.3106 18.9378C11.2319 18.7548 11.1904 18.558 11.1886 18.3588C11.1868 18.1597 11.2247 17.9621 11.3 17.7778C11.3753 17.5934 11.4866 17.4258 11.6274 17.2849C11.7682 17.144 11.9356 17.0326 12.1199 16.9571C12.3042 16.8816 12.5017 16.8435 12.7009 16.8452C12.9 16.8468 13.0969 16.8881 13.2799 16.9666C13.463 17.0451 13.6286 17.1593 13.767 17.3025L14.829 18.3635C15.2986 18.8289 15.9334 19.0893 16.5946 19.0878C17.2557 19.0862 17.8893 18.8229 18.3568 18.3553C18.8242 17.8877 19.0874 17.254 19.0887 16.5929C19.0901 15.9318 18.8295 15.297 18.364 14.8275L15.182 11.6455C14.8381 11.3014 14.4012 11.0652 13.925 10.9657C13.4488 10.8662 12.9539 10.9079 12.501 11.0855C12.339 11.1495 12.189 11.2155 12.047 11.2815L11.583 11.4985C10.963 11.7785 10.486 11.8985 9.87899 11.2925C9.00699 10.4205 9.23299 9.61552 10.296 8.88252C11.355 8.15426 12.6356 7.81974 13.9155 7.93701C15.1954 8.05428 16.3939 8.61593 17.303 9.52452ZM11.293 3.51452L12.353 4.57452C12.6264 4.85729 12.7777 5.23613 12.7745 5.62943C12.7713 6.02272 12.6137 6.39902 12.3357 6.67726C12.0577 6.95551 11.6816 7.11344 11.2883 7.11704C10.895 7.12064 10.516 6.96963 10.233 6.69652L9.17199 5.63652C8.94144 5.39768 8.66563 5.20715 8.36066 5.07604C8.05569 4.94493 7.72765 4.87587 7.39571 4.8729C7.06376 4.86992 6.73454 4.93308 6.42727 5.0587C6.11999 5.18431 5.84081 5.36986 5.60601 5.60453C5.37122 5.83919 5.1855 6.11827 5.05972 6.42548C4.93393 6.73268 4.87058 7.06186 4.87337 7.39381C4.87616 7.72576 4.94503 8.05383 5.07597 8.35887C5.2069 8.66392 5.39728 8.93984 5.63599 9.17052L8.81799 12.3525C9.16192 12.6966 9.59876 12.9329 10.075 13.0323C10.5512 13.1318 11.0461 13.0902 11.499 12.9125C11.661 12.8485 11.811 12.7825 11.953 12.7165L12.417 12.4995C13.037 12.2195 13.515 12.0995 14.121 12.7055C14.993 13.5775 14.767 14.3825 13.704 15.1155C12.6449 15.8438 11.3644 16.1783 10.0844 16.061C8.80453 15.9438 7.60606 15.3821 6.69699 14.4735L3.51499 11.2915C2.99865 10.7821 2.58819 10.1755 2.30723 9.50673C2.02628 8.83798 1.88039 8.12026 1.87796 7.39489C1.87553 6.66952 2.01661 5.95084 2.29307 5.28022C2.56954 4.6096 2.97593 4.00029 3.48884 3.48738C4.00176 2.97446 4.61107 2.56807 5.28169 2.29161C5.95231 2.01514 6.67099 1.87406 7.39636 1.87649C8.12172 1.87892 8.83944 2.02482 9.5082 2.30577C10.1769 2.58672 10.7835 2.99818 11.293 3.51452Z" fill="white"/>
</g>
<defs>
<clipPath id="clip0_119_3161">
<rect width="24" height="24" fill="white" transform="translate(0 0.000549316)"/>
</clipPath>
</defs>
</svg>
