<svg width="676" height="582" viewBox="0 0 676 582" fill="none" xmlns="http://www.w3.org/2000/svg">
<g clip-path="url(#clip0_105_990)">
<path d="M148.832 441.503L620.686 441.503C632.274 441.503 641.667 432.104 641.667 420.509V74.8152C641.667 63.2202 632.274 53.8205 620.686 53.8205L148.832 53.8205C137.245 53.8205 127.851 63.2202 127.851 74.8152V420.509C127.851 432.104 137.245 441.503 148.832 441.503Z" fill="white"/>
<path d="M127.151 420.509V74.816C127.158 69.0635 129.445 63.5485 133.51 59.4812C137.575 55.4139 143.087 53.1266 148.836 53.1212H620.686C626.434 53.1277 631.945 55.4155 636.01 59.4826C640.074 63.5498 642.36 69.0642 642.367 74.816V420.509C642.36 426.261 640.074 431.775 636.009 435.842C631.945 439.909 626.434 442.196 620.686 442.203H148.836C143.087 442.198 137.575 439.911 133.51 435.843C129.445 431.776 127.158 426.261 127.151 420.509ZM148.836 54.5207C143.459 54.5268 138.303 56.667 134.501 60.4718C130.699 64.2766 128.56 69.4352 128.554 74.816V420.509C128.56 425.89 130.699 431.048 134.501 434.853C138.303 438.658 143.459 440.798 148.836 440.804H620.686C626.063 440.798 631.219 438.658 635.021 434.853C638.823 431.048 640.962 425.89 640.967 420.509V74.816C640.962 69.4353 638.823 64.2766 635.021 60.4718C631.219 56.667 626.063 54.5268 620.686 54.5207H148.836Z" fill="#292A2E"/>
<path d="M588.754 278.959H274.278C273.933 278.959 273.602 278.822 273.359 278.578C273.115 278.334 272.978 278.003 272.978 277.658V98.0718C272.978 97.901 273.011 97.7318 273.077 97.5739C273.142 97.416 273.238 97.2726 273.359 97.1518C273.479 97.031 273.623 96.9351 273.78 96.8697C273.938 96.8043 274.107 96.7707 274.278 96.7707C274.449 96.7707 274.618 96.8043 274.776 96.8697C274.933 96.9351 275.077 97.031 275.197 97.1518C275.318 97.2726 275.414 97.416 275.479 97.5739C275.545 97.7318 275.578 97.901 275.578 98.0718V276.357H588.754C589.099 276.357 589.429 276.494 589.673 276.738C589.917 276.982 590.054 277.313 590.054 277.658C590.054 278.003 589.917 278.334 589.673 278.578C589.429 278.822 589.099 278.959 588.754 278.959Z" fill="#0CBC8B"/>
<path opacity="0.2" d="M296.138 252.083H296.846C307.046 252.083 317.046 249.252 325.735 243.906C334.424 238.56 341.461 230.907 346.063 221.799L386.396 141.985C406.859 101.492 464.7 101.638 484.957 142.231L524.531 221.544C529.109 230.718 536.151 238.435 544.866 243.828C553.582 249.222 563.627 252.079 573.874 252.079" fill="#0CBC8B"/>
<path d="M573.876 253.216C563.411 253.252 553.146 250.351 544.245 244.843C535.345 239.334 528.166 231.44 523.523 222.055L483.949 142.742C479.565 133.706 472.71 126.099 464.179 120.805C455.648 115.511 445.792 112.747 435.754 112.834H435.606C425.594 112.723 415.755 115.45 407.226 120.699C398.697 125.948 391.827 133.505 387.41 142.496L347.078 222.31C342.406 231.625 335.231 239.453 326.358 244.913C317.486 250.373 307.268 253.249 296.852 253.219H296.145C295.994 253.223 295.843 253.197 295.702 253.142C295.561 253.087 295.433 253.004 295.324 252.898C295.216 252.793 295.13 252.667 295.071 252.527C295.012 252.388 294.982 252.238 294.982 252.086C294.982 251.935 295.012 251.785 295.071 251.646C295.13 251.506 295.216 251.38 295.324 251.275C295.433 251.169 295.561 251.086 295.702 251.031C295.843 250.976 295.994 250.95 296.145 250.954H296.852C306.849 250.983 316.656 248.223 325.171 242.984C333.687 237.744 340.574 230.232 345.059 221.291L385.391 141.478C390.061 132.161 397.236 124.332 406.109 118.872C414.982 113.411 425.201 110.536 435.617 110.568H435.764C446.205 110.561 456.44 113.475 465.313 118.982C474.186 124.488 481.343 132.367 485.977 141.73L525.552 221.042C530.008 230.05 536.898 237.628 545.442 242.915C553.985 248.201 563.838 250.985 573.883 250.951C574.178 250.958 574.458 251.081 574.664 251.293C574.869 251.504 574.985 251.788 574.985 252.083C574.985 252.378 574.869 252.662 574.664 252.874C574.458 253.085 574.178 253.208 573.883 253.216H573.876Z" fill="#0CBC8B"/>
<g opacity="0.2">
<path d="M263.451 321.181C265.93 317.134 268.97 313.458 272.48 310.263C274.065 308.822 275.921 306.924 278.025 306.3C278.762 306.113 279.535 306.116 280.271 306.308C281.008 306.5 281.683 306.875 282.236 307.398C284.901 309.56 286.638 312.702 289.647 314.474C292.491 316.147 295.798 316.041 298.854 315.054C302.153 313.988 305.163 312.199 308.301 310.762C311.168 309.451 314.455 308.273 317.621 309.123C321.309 310.106 323.911 313.282 327.323 314.84C329.24 315.751 331.399 316.019 333.479 315.603C335.929 315.12 338.218 313.916 340.558 313.078C351.208 309.286 362.6 308.059 373.812 309.495C375.377 309.694 375.362 307.233 373.812 307.035C363.688 305.754 353.408 306.59 343.623 309.489C341.11 310.235 338.67 311.153 336.239 312.126C334.083 312.988 331.858 313.766 329.544 313.074C325.827 311.969 323.167 308.681 319.599 307.21C312.635 304.34 305.987 309.582 299.818 312.09C296.95 313.255 293.723 314.019 290.887 312.35C287.87 310.575 286.142 307.248 283.355 305.172C282.631 304.599 281.799 304.177 280.909 303.933C280.018 303.689 279.088 303.628 278.173 303.753C275.633 304.154 273.534 306.086 271.657 307.712C267.611 311.235 264.129 315.359 261.332 319.94C260.502 321.292 262.627 322.529 263.454 321.181H263.451Z" fill="#367CFF"/>
</g>
<g opacity="0.2">
<path d="M156.486 141.119C177.423 139.982 198.375 139.227 219.343 138.853C225.333 138.748 231.323 138.673 237.313 138.63C237.639 138.63 237.952 138.5 238.182 138.269C238.413 138.039 238.542 137.726 238.542 137.4C238.542 137.074 238.413 136.761 238.182 136.53C237.952 136.3 237.639 136.17 237.313 136.17C216.347 136.324 195.388 136.859 174.437 137.777C168.452 138.04 162.469 138.334 156.486 138.659C154.913 138.745 154.903 141.205 156.486 141.119Z" fill="#367CFF"/>
<path d="M160.981 155.366C181.632 154.178 202.297 153.283 222.975 152.681C228.824 152.51 234.674 152.364 240.524 152.242C242.104 152.208 242.11 149.749 240.524 149.782C219.844 150.22 199.173 150.948 178.51 151.967C172.666 152.256 166.823 152.569 160.981 152.906C159.408 152.996 159.398 155.457 160.981 155.366Z" fill="#367CFF"/>
<path d="M161.024 172.004C182.178 172.796 236.247 168.252 242.139 167.354C243.696 167.116 243.036 164.746 241.484 164.982C220.735 168.147 166.935 169.766 161.024 169.544C159.442 169.485 159.445 171.945 161.024 172.004Z" fill="#367CFF"/>
<path d="M161.005 189.799C173.99 188.368 187.069 187.978 200.116 188.631C201.696 188.713 201.692 186.253 200.116 186.171C187.069 185.518 173.99 185.909 161.005 187.339C159.448 187.511 159.433 189.972 161.005 189.799Z" fill="#367CFF"/>
</g>
<g opacity="0.2">
<path d="M472.187 308.582C464.614 308.43 457.041 308.521 449.469 308.855C448.367 308.905 446.718 308.676 446.2 309.925C446.02 310.713 445.997 311.528 446.13 312.325C446.18 314.183 446.164 316.043 446.145 317.9C446.104 321.976 445.991 326.051 445.97 330.128C445.93 331.221 445.952 332.316 446.036 333.407C446.03 333.638 446.081 333.868 446.184 334.075C446.286 334.282 446.437 334.461 446.624 334.597C447.169 334.834 447.764 334.935 448.356 334.891C449.256 334.946 450.157 334.988 451.06 335.018C458.468 335.287 465.89 335.029 473.291 335.51C473.565 335.508 473.827 335.398 474.021 335.204C474.215 335.009 474.325 334.747 474.326 334.472L473.365 312.757L473.227 309.621C473.168 308.292 471.096 308.285 471.154 309.621L472.115 331.336L472.254 334.472L473.291 333.435C467.228 333.045 461.148 333.148 455.077 333.049C453.607 333.024 452.137 332.99 450.668 332.933C449.961 332.905 449.255 332.871 448.549 332.832C448.238 332.785 447.923 332.766 447.609 332.774C448.028 333.436 448.194 333.625 448.109 333.342C448.102 333.312 448.096 333.283 448.091 333.253C448.048 333.291 448.099 333.429 448.086 333.096C448.078 332.874 448.065 332.654 448.06 332.433C448.043 331.859 448.043 331.279 448.043 330.702C448.048 327.043 448.148 323.385 448.199 319.728C448.225 317.852 448.247 315.977 448.233 314.101C448.229 313.422 448.22 312.744 448.198 312.066C448.212 311.776 448.2 311.486 448.162 311.198C448.14 311.065 448.132 310.929 448.137 310.793L447.867 311.007L448.784 310.962C456.581 310.597 464.383 310.496 472.19 310.658C472.327 310.658 472.461 310.631 472.587 310.579C472.713 310.526 472.827 310.45 472.923 310.353C473.02 310.256 473.096 310.142 473.148 310.016C473.2 309.89 473.226 309.755 473.226 309.619C473.226 309.482 473.199 309.347 473.146 309.221C473.094 309.096 473.017 308.981 472.921 308.885C472.825 308.789 472.71 308.713 472.584 308.661C472.458 308.609 472.323 308.582 472.187 308.582Z" fill="#367CFF"/>
<path d="M452.611 321.485C453.689 324.298 455.448 326.8 457.73 328.764C458.805 329.67 459.708 329.923 460.944 329.128C462.365 328.214 463.803 327.329 465.225 326.422C468.69 324.2 472.065 321.842 475.525 319.617C477.352 318.441 479.223 317.336 481.116 316.27C481.342 316.126 481.503 315.899 481.565 315.639C481.628 315.378 481.588 315.104 481.452 314.872C481.317 314.641 481.098 314.471 480.84 314.398C480.582 314.324 480.306 314.354 480.07 314.48C476.388 316.554 472.889 318.875 469.38 321.225C466.788 322.96 464.172 324.656 461.531 326.315C461.039 326.624 459.897 327.598 459.482 327.539C458.969 327.466 457.946 326.145 457.609 325.773C456.329 324.356 455.314 322.719 454.614 320.941C454.128 319.711 452.122 320.25 452.615 321.492L452.611 321.485Z" fill="#367CFF"/>
<path d="M452.611 358.28C453.689 361.092 455.448 363.592 457.73 365.556C458.805 366.463 459.708 366.716 460.944 365.92C462.365 365.007 463.803 364.122 465.225 363.21C468.69 360.988 472.065 358.63 475.525 356.405C477.352 355.228 479.223 354.124 481.116 353.057C481.342 352.913 481.503 352.687 481.565 352.426C481.628 352.165 481.588 351.891 481.452 351.659C481.317 351.428 481.098 351.258 480.84 351.185C480.582 351.111 480.306 351.141 480.07 351.267C476.388 353.341 472.889 355.663 469.38 358.013C466.788 359.748 464.172 361.444 461.531 363.102C461.039 363.411 459.897 364.385 459.482 364.326C458.969 364.253 457.946 362.932 457.609 362.561C456.329 361.143 455.314 359.506 454.614 357.728C454.128 356.498 452.122 357.037 452.615 358.28H452.611Z" fill="#367CFF"/>
<path d="M452.611 395.116C453.689 397.929 455.448 400.43 457.73 402.394C458.805 403.3 459.708 403.553 460.944 402.758C462.365 401.844 463.803 400.96 465.225 400.048C468.69 397.826 472.065 395.468 475.525 393.243C477.352 392.067 479.223 390.963 481.116 389.896C481.342 389.752 481.503 389.525 481.565 389.265C481.628 389.004 481.588 388.729 481.452 388.498C481.317 388.267 481.098 388.097 480.84 388.023C480.582 387.95 480.306 387.98 480.07 388.106C476.388 390.18 472.889 392.502 469.38 394.851C466.788 396.586 464.172 398.282 461.531 399.941C461.039 400.25 459.897 401.224 459.482 401.165C458.969 401.092 457.946 399.771 457.609 399.399C456.329 397.981 455.314 396.345 454.614 394.567C454.128 393.337 452.122 393.876 452.615 395.119L452.611 395.116Z" fill="#367CFF"/>
<path d="M472.187 345.372C464.614 345.219 457.041 345.31 449.469 345.645C448.367 345.695 446.718 345.465 446.2 346.715C446.02 347.502 445.997 348.318 446.13 349.115C446.18 350.972 446.164 352.833 446.145 354.69C446.104 358.766 445.991 362.842 445.97 366.918C445.93 368.012 445.952 369.107 446.036 370.198C446.03 370.429 446.081 370.658 446.184 370.865C446.286 371.072 446.437 371.252 446.624 371.387C447.169 371.624 447.764 371.725 448.356 371.682C449.258 371.734 450.159 371.774 451.06 371.807C458.468 372.078 465.89 371.819 473.291 372.299C473.565 372.297 473.827 372.187 474.021 371.993C474.215 371.799 474.324 371.536 474.326 371.262L473.365 349.547L473.227 346.411C473.168 345.082 471.096 345.074 471.154 346.411L472.115 368.126L472.254 371.262L473.291 370.225C467.228 369.835 461.148 369.938 455.077 369.839C453.607 369.814 452.137 369.78 450.668 369.722C449.961 369.694 449.255 369.661 448.549 369.621C448.238 369.574 447.923 369.555 447.609 369.564C448.028 370.225 448.194 370.414 448.109 370.131C448.102 370.102 448.096 370.072 448.091 370.042C448.048 370.08 448.099 370.218 448.086 369.885C448.078 369.664 448.065 369.443 448.06 369.222C448.043 368.648 448.043 368.069 448.043 367.491C448.048 363.833 448.148 360.175 448.199 356.516C448.225 354.641 448.247 352.765 448.233 350.89C448.229 350.212 448.22 349.534 448.198 348.855C448.212 348.565 448.2 348.275 448.162 347.988C448.14 347.853 448.131 347.715 448.137 347.578L447.867 347.792L448.784 347.748C456.581 347.382 464.383 347.281 472.19 347.444C472.454 347.427 472.701 347.31 472.881 347.117C473.061 346.924 473.161 346.67 473.161 346.406C473.16 346.142 473.059 345.888 472.879 345.696C472.698 345.504 472.45 345.388 472.187 345.372Z" fill="#367CFF"/>
<path d="M472.187 382.161C464.614 382.009 457.041 382.1 449.469 382.434C448.367 382.484 446.718 382.255 446.2 383.504C446.02 384.292 445.997 385.107 446.13 385.904C446.18 387.762 446.164 389.622 446.145 391.479C446.104 395.556 445.991 399.631 445.97 403.707C445.93 404.8 445.952 405.895 446.036 406.986C446.03 407.218 446.081 407.447 446.184 407.654C446.286 407.862 446.437 408.041 446.624 408.177C447.169 408.414 447.764 408.515 448.356 408.47C449.258 408.524 450.159 408.564 451.06 408.597C458.468 408.866 465.89 408.608 473.291 409.089C473.565 409.087 473.827 408.977 474.021 408.783C474.215 408.589 474.324 408.327 474.326 408.052L473.365 386.337L473.227 383.201C473.168 381.871 471.096 381.865 471.154 383.201L472.115 404.915L472.254 408.052L473.291 407.015C467.228 406.625 461.148 406.728 455.077 406.628C453.607 406.604 452.137 406.57 450.668 406.513C449.961 406.485 449.255 406.451 448.549 406.412C448.238 406.365 447.923 406.346 447.609 406.354C448.028 407.016 448.194 407.205 448.109 406.921C448.102 406.892 448.096 406.863 448.091 406.832C448.048 406.871 448.099 407.009 448.086 406.675C448.078 406.454 448.065 406.233 448.06 406.012C448.043 405.438 448.043 404.858 448.043 404.282C448.048 400.623 448.148 396.965 448.199 393.307C448.225 391.432 448.247 389.556 448.233 387.681C448.229 387.002 448.22 386.323 448.198 385.645C448.212 385.356 448.2 385.066 448.162 384.778C448.14 384.643 448.131 384.506 448.137 384.368L447.867 384.582C448.173 384.567 448.479 384.552 448.784 384.538C456.581 384.172 464.383 384.071 472.19 384.234C472.455 384.219 472.704 384.103 472.885 383.91C473.067 383.717 473.168 383.461 473.168 383.196C473.167 382.931 473.065 382.676 472.883 382.484C472.701 382.291 472.452 382.176 472.187 382.161Z" fill="#367CFF"/>
<path d="M489.211 315.459C489.168 316.248 489.326 317.036 489.671 317.747C490.015 318.458 490.535 319.07 491.181 319.525C491.826 319.98 492.577 320.263 493.362 320.348C494.148 320.433 494.941 320.317 495.67 320.011C497.234 319.333 497.772 318.086 498.589 316.71C499.147 315.769 499.564 316.082 500.479 316.456C501.406 316.823 502.379 317.06 503.371 317.159C507.643 317.639 512.102 316.25 516.323 315.723C520.805 315.163 525.315 314.854 529.832 314.799C535.017 314.74 540.2 315.009 545.351 315.606C546.674 315.758 546.662 313.683 545.351 313.532C536.958 312.559 528.487 312.461 520.074 313.239C516.059 313.614 512.117 314.31 508.135 314.902C506.137 315.296 504.079 315.269 502.092 314.824C500.676 314.43 499.356 313.384 497.927 314.345C496.572 315.257 496.505 317.243 495.053 318.015C494.639 318.232 494.174 318.332 493.708 318.306C493.242 318.279 492.791 318.127 492.405 317.865C492.018 317.602 491.71 317.24 491.512 316.817C491.315 316.393 491.236 315.924 491.284 315.459C491.343 314.125 489.27 314.129 489.211 315.459Z" fill="#367CFF"/>
<path d="M487.062 352.253C487.347 355.014 490.667 355.232 492.576 353.95C493.909 353.056 495.059 351.668 496.811 352.31C498.437 352.908 499.724 354.059 501.468 354.409C505.108 355.139 509.048 353.94 512.663 353.502C516.749 353.006 520.853 352.708 524.975 352.606C529.615 352.495 534.258 352.632 538.883 353.016C540.213 353.125 540.206 351.048 538.883 350.941C531.42 350.322 523.917 350.349 516.458 351.023C512.764 351.36 509.123 352.051 505.441 352.443C503.766 352.728 502.045 352.541 500.47 351.904C499.168 351.281 497.996 350.338 496.537 350.1C494.905 349.835 493.621 350.576 492.368 351.536C491.843 352.037 491.209 352.411 490.517 352.628C490.2 352.688 489.184 352.742 489.134 352.249C488.998 350.937 486.921 350.92 487.061 352.249L487.062 352.253Z" fill="#367CFF"/>
<path d="M489.94 388.267C490.142 391.361 493.832 392.165 496.3 391.223C498.021 390.567 499.67 389.024 501.584 389.002C502.674 389.117 503.73 389.451 504.686 389.986C505.739 390.431 506.826 390.792 507.936 391.065C512.129 392.093 516.496 391.967 520.767 391.639C525.408 391.286 530.03 390.863 534.686 390.731C540.16 390.577 545.633 390.688 551.103 391.064C552.435 391.153 552.429 389.079 551.103 388.989C542.227 388.396 533.319 388.484 524.457 389.254C520.383 389.746 516.274 389.883 512.177 389.664C510.196 389.502 508.244 389.087 506.368 388.429C504.577 387.786 502.941 386.722 500.961 386.98C498.912 387.246 497.397 388.647 495.506 389.308C494.531 389.649 492.108 389.751 492.01 388.261C491.923 386.936 489.85 386.927 489.938 388.261L489.94 388.267Z" fill="#367CFF"/>
</g>
<g opacity="0.2">
<path d="M531.376 101.259C532.543 98.4768 533.992 95.8218 535.699 93.3354C536.273 92.5016 537.056 91.0168 538.262 91.4931C539.374 91.9334 540.379 93.2223 541.211 94.0512C542.911 95.7459 544.614 97.5586 546.742 98.7245C548.847 99.8928 551.319 100.214 553.652 99.6214C556.104 99.0114 558.279 97.6267 560.49 96.4592C562.929 95.0988 565.681 94.3996 568.472 94.4308C571.49 94.6026 574.48 95.0918 577.395 95.8902C580.421 96.5961 583.458 97.2143 586.538 97.6496C593.502 98.638 600.555 98.8445 607.565 98.2653C609.13 98.1342 609.144 95.6737 607.565 95.8057C601.057 96.3546 594.509 96.2153 588.029 95.39C584.797 94.9571 581.588 94.3611 578.415 93.6043C575.4 92.7985 572.319 92.2607 569.208 91.9974C566.275 91.8243 563.344 92.383 560.68 93.6232C558.386 94.689 556.278 96.1943 553.87 96.9986C552.733 97.4063 551.513 97.5288 550.317 97.3554C549.121 97.182 547.986 96.7181 547.011 96.0041C544.963 94.6013 543.36 92.6303 541.545 90.9569C540.442 89.9403 539.185 88.8417 537.587 88.9072C536.143 88.9671 535.092 90.028 534.279 91.1119C532.248 93.8654 530.56 96.8562 529.253 100.018C529.1 100.302 529.06 100.634 529.142 100.946C529.224 101.259 529.421 101.528 529.694 101.701C529.976 101.863 530.31 101.908 530.625 101.825C530.94 101.743 531.21 101.539 531.376 101.259Z" fill="#367CFF"/>
</g>
<g opacity="0.2">
<path d="M539.546 120.004L541.647 117.528L542.829 116.134C543.121 115.695 543.468 115.296 543.86 114.944C544.538 114.503 545.511 115.466 546.131 115.8C546.979 116.257 547.877 116.615 548.807 116.866C552.463 117.85 556.326 117.219 559.961 116.464C563.955 115.504 568.021 114.871 572.119 114.571C576.401 114.385 580.687 114.614 584.968 114.673C589.841 114.863 594.717 114.434 599.482 113.396C601.018 113.022 600.367 110.649 598.826 111.024C590.13 113.146 581.141 111.748 572.307 112.103C568.154 112.366 564.031 112.986 559.984 113.956C556.29 114.747 552.215 115.562 548.549 114.214C546.746 113.55 544.829 111.474 542.802 112.672C541.883 113.373 541.083 114.216 540.432 115.171L537.81 118.266C536.792 119.467 538.522 121.218 539.548 120.005L539.546 120.004Z" fill="#367CFF"/>
</g>
<path d="M674.924 528.879H-1.92363C-2.14094 528.879 -2.34934 528.793 -2.503 528.639C-2.65666 528.485 -2.74298 528.276 -2.74298 528.059C-2.74298 527.842 -2.65666 527.633 -2.503 527.479C-2.34934 527.326 -2.14094 527.239 -1.92363 527.239H674.924C675.141 527.239 675.349 527.326 675.503 527.479C675.657 527.633 675.743 527.842 675.743 528.059C675.743 528.276 675.657 528.485 675.503 528.639C675.349 528.793 675.141 528.879 674.924 528.879Z" fill="#292A2E"/>
<path d="M460.347 527.637H551.712V501.4H460.347V527.637Z" fill="#367CFF"/>
<path opacity="0.69" d="M460.347 527.637H551.712V501.4H460.347V527.637Z" fill="white"/>
<path opacity="0.65" d="M472.616 527.637H484.588V501.4H472.616V527.637Z" fill="white"/>
<path opacity="0.65" d="M490.259 521.935H540.037V506.388H490.259V521.935Z" fill="white"/>
<path d="M438.562 501.426H528.672V475.19H438.562V501.426Z" fill="#367CFF"/>
<path opacity="0.6" d="M438.562 501.426H528.672V475.19H438.562V501.426Z" fill="white"/>
<path opacity="0.42" d="M450.076 495.724H499.171V480.176H450.076V495.724Z" fill="white"/>
<path opacity="0.42" d="M504.763 501.427H516.571V475.191H504.763V501.427Z" fill="white"/>
<path d="M394.564 527.636L453.922 458.134L433.989 441.089L374.632 510.591L394.564 527.636Z" fill="#367CFF"/>
<path opacity="0.78" d="M394.564 527.636L453.922 458.134L433.989 441.089L374.632 510.591L394.564 527.636Z" fill="white"/>
<path opacity="0.2" d="M402.536 518.302L410.314 509.195L390.382 492.15L382.603 501.257L402.536 518.302Z" fill="#367CFF"/>
<path opacity="0.2" d="M409.665 501.177L442.005 463.31L430.193 453.209L397.853 491.076L409.665 501.177Z" fill="#367CFF"/>
<path d="M648.296 393.773L563.184 495.715L565.071 497.292L650.183 395.35L648.296 393.773Z" fill="#292A2E"/>
<path d="M610.523 486.568H600.486V521.936H610.523V486.568Z" fill="#367CFF"/>
<path d="M600.486 504.928L610.522 510.629V502.93L600.486 504.928Z" fill="#292A2E"/>
<path d="M620.337 521.935H591.972C590.509 521.935 589.322 523.122 589.322 524.587V524.588C589.322 526.052 590.509 527.239 591.972 527.239H620.337C621.801 527.239 622.987 526.052 622.987 524.588V524.587C622.987 523.122 621.801 521.935 620.337 521.935Z" fill="#367CFF"/>
<path d="M605.504 513.909C596.209 513.895 587.016 511.97 578.495 508.253C569.974 504.537 562.307 499.108 555.969 492.303C555.747 492.064 555.629 491.746 555.641 491.42C555.653 491.094 555.795 490.786 556.034 490.564C556.273 490.342 556.59 490.224 556.916 490.236C557.242 490.248 557.55 490.389 557.772 490.628C563.978 497.315 571.517 502.624 579.903 506.211C588.288 509.799 597.332 511.585 606.451 511.455C615.57 511.325 624.56 509.282 632.839 505.456C641.119 501.631 648.504 496.11 654.518 489.249C660.531 482.388 665.038 474.34 667.747 465.627C670.457 456.913 671.309 447.728 670.247 438.664C669.186 429.601 666.236 420.861 661.587 413.01C656.938 405.159 650.694 398.372 643.259 393.088C643.124 392.996 643.008 392.878 642.919 392.74C642.83 392.603 642.77 392.449 642.741 392.288C642.712 392.127 642.715 391.962 642.751 391.802C642.787 391.642 642.854 391.491 642.949 391.358C643.044 391.224 643.165 391.111 643.304 391.025C643.443 390.939 643.598 390.882 643.76 390.856C643.921 390.831 644.087 390.838 644.245 390.877C644.404 390.917 644.554 390.987 644.685 391.085C656.373 399.399 665.117 411.217 669.654 424.83C674.192 438.442 674.287 453.146 669.926 466.817C665.565 480.487 656.974 492.416 645.394 500.881C633.814 509.346 619.845 513.909 605.504 513.909Z" fill="#292A2E"/>
<path d="M605.504 504.928C637.894 504.928 664.151 478.654 664.151 446.243C664.151 413.833 637.894 387.559 605.504 387.559C573.115 387.559 546.858 413.833 546.858 446.243C546.858 478.654 573.115 504.928 605.504 504.928Z" fill="#367CFF"/>
<path opacity="0.5" d="M605.504 504.928C637.894 504.928 664.151 478.654 664.151 446.243C664.151 413.833 637.894 387.559 605.504 387.559C573.115 387.559 546.858 413.833 546.858 446.243C546.858 478.654 573.115 504.928 605.504 504.928Z" fill="white"/>
<g opacity="0.4">
<path d="M660.163 467.57C656.414 477.165 650.211 485.606 642.176 492.046C634.14 498.487 624.554 502.702 614.378 504.268C613.608 501.816 612.838 499.357 612.076 496.905C610.773 492.748 609.552 487.927 611.927 484.279C613.074 482.516 614.902 481.336 616.541 480.024C620.012 477.222 622.786 473.652 624.644 469.595C625.578 467.537 626.381 465.225 628.258 463.962C629.432 463.276 630.745 462.862 632.1 462.749C636.984 462.119 641.928 462.108 646.815 462.716C650.274 463.101 653.772 463.716 656.852 465.332C658.032 465.958 659.142 466.708 660.163 467.57Z" fill="white"/>
</g>
<g opacity="0.4">
<path d="M664.104 443.922C658.316 443.3 652.706 441.545 647.594 438.757C645.516 437.722 643.668 436.277 642.162 434.51C640.985 432.905 640.143 431.078 639.688 429.14C639.024 426.583 638.786 423.935 638.983 421.302C639.27 417.506 640.417 413.431 638.606 410.086C637.271 407.61 634.599 406.167 631.928 405.265C629.257 404.363 626.447 403.871 623.94 402.608C622.562 402.007 621.429 400.955 620.728 399.624C620.255 398.279 620.156 396.831 620.441 395.434C620.757 393.543 621.237 391.683 621.875 389.876C633.688 393.316 644.121 400.386 651.699 410.085C659.277 419.783 663.617 431.62 664.104 443.922Z" fill="white"/>
</g>
<g opacity="0.4">
<path d="M607.061 436.83C607.438 446.39 592.01 446.783 589.855 455.072C588.143 460.074 590.215 465.509 591.223 470.699C594.05 485.285 582.006 490.729 570.788 493.541C559.374 485.151 551.379 472.913 548.278 459.085C545.177 445.258 547.181 430.774 553.918 418.309C556.022 417.992 558.15 417.868 560.277 417.94C566.364 416.505 570.33 410.758 575.59 407.364C583.972 401.846 596.811 400.329 598.883 410.701C600.489 418.719 593.173 419.965 595.32 426.647C597.073 431.714 605.931 431.583 607.061 436.83Z" fill="white"/>
</g>
<path d="M351.183 250.302C351.406 249.689 351.751 249.128 352.197 248.653C352.643 248.178 353.181 247.799 353.779 247.539C354.376 247.279 355.02 247.143 355.671 247.14C356.323 247.138 356.968 247.268 357.568 247.523C358.711 248.056 359.609 249.004 360.081 250.175C360.552 251.346 360.562 252.653 360.108 253.831L357.896 259.922L371.771 245.766C373.492 243.954 376.769 242.834 378.673 244.903C380.322 246.474 384.134 246.959 384.753 249.904C384.774 249.92 384.736 276.873 383.136 278.554C376.35 285.687 359.945 287.065 350.793 283.443L336.389 277.744L351.183 250.302Z" fill="#E98862"/>
<g opacity="0.1">
<path d="M351.183 250.302C351.406 249.689 351.751 249.128 352.197 248.653C352.643 248.178 353.181 247.799 353.779 247.539C354.376 247.279 355.02 247.143 355.671 247.14C356.323 247.138 356.968 247.268 357.568 247.523C358.711 248.056 359.609 249.004 360.081 250.175C360.552 251.346 360.562 252.653 360.108 253.831L357.896 259.922L371.771 245.766C373.492 243.954 376.769 242.834 378.673 244.903C380.322 246.474 384.134 246.959 384.753 249.904C384.774 249.92 384.736 276.873 383.136 278.554C376.35 285.687 359.945 287.065 350.793 283.443L336.389 277.744L351.183 250.302Z" fill="#0C0C0C"/>
</g>
<path d="M365.37 279.485C364.847 279.485 364.331 279.36 363.867 279.12C363.402 278.88 363.001 278.532 362.698 278.106C362.395 277.68 362.199 277.187 362.125 276.669C362.051 276.151 362.102 275.623 362.273 275.129L419.064 111.43C419.199 111.016 419.416 110.633 419.7 110.303C419.985 109.974 420.333 109.704 420.723 109.511C421.113 109.317 421.538 109.203 421.973 109.176C422.407 109.149 422.843 109.208 423.254 109.351C423.666 109.494 424.044 109.717 424.368 110.009C424.692 110.3 424.955 110.652 425.141 111.046C425.328 111.44 425.434 111.867 425.453 112.302C425.473 112.738 425.405 113.173 425.255 113.581L368.465 277.276C368.243 277.92 367.825 278.48 367.27 278.875C366.715 279.271 366.051 279.484 365.37 279.485Z" fill="#0A0A0A"/>
<path d="M364.773 267.16C365.006 266.336 365.501 265.61 366.184 265.093C366.867 264.577 367.7 264.297 368.556 264.298C368.545 264.23 368.474 264.072 368.591 264.06L365.641 262.627C364.763 262.224 364.061 261.517 363.664 260.636C363.267 259.755 363.202 258.76 363.482 257.835C363.788 256.931 364.418 256.173 365.25 255.707C366.083 255.241 367.058 255.101 367.988 255.314C367.975 255.278 367.994 255.238 367.993 255.199L366.782 254.61C365.957 254.227 365.289 253.57 364.893 252.751C364.496 251.931 364.394 251 364.604 250.114C364.748 249.562 365.012 249.048 365.378 248.609C365.744 248.171 366.202 247.82 366.72 247.581C367.238 247.341 367.803 247.22 368.373 247.225C368.944 247.231 369.506 247.363 370.019 247.612L372.815 248.97C372.82 248.954 372.809 248.938 372.815 248.923C372.821 248.907 372.849 248.898 372.861 248.88C372.179 248.335 371.702 247.575 371.508 246.723C371.315 245.871 371.416 244.979 371.796 244.192C372.646 242.099 375.425 242.02 377.232 242.898L382.71 246.107C383.556 246.603 384.265 247.3 384.777 248.136C385.288 248.972 385.585 249.922 385.64 250.9C386.132 259.369 386.876 281.518 381.108 278.716L366.908 271.816C366.086 271.387 365.43 270.697 365.043 269.854C364.657 269.011 364.562 268.063 364.773 267.16Z" fill="#E98862"/>
<path d="M60.5581 244.419C60.5581 244.419 58.7998 270.832 52.8611 280.411C35.7663 308.002 30.8117 339.037 47.9328 355.251C65.0538 371.464 174.251 371.69 182.524 334.396C189.488 303 174.542 299.623 170.906 273.725C169.26 262.003 164.731 237.43 164.731 237.43" fill="#0A0A0A"/>
<path d="M154.259 328.928C154.07 328.904 151.978 363.634 111.658 360.606C83.7448 358.514 73.7922 328.877 73.149 328.877C76.1584 328.237 81.2269 327.306 82.5633 326.593C86.9582 324.229 92.3954 321.77 93.8137 313.229C94.6331 308.309 93.2451 283.121 93.6712 278.138L136.523 287.707C135.924 298.226 131.734 322.614 146.421 326.93C148.863 327.649 151.496 328.305 154.259 328.928Z" fill="#E98862"/>
<path opacity="0.5" d="M137.119 316.968C136.448 314.804 136.016 312.572 135.831 310.314C135.359 305.16 135.453 299.97 136.111 294.836C127.403 293.66 119.199 290.063 112.432 284.455C111.636 287.395 107.261 300.242 108.472 303.037C110.763 308.318 121.524 316.968 137.119 316.968Z" fill="#0C0C0C"/>
<path d="M131.581 306.147C114.689 307.787 92.8322 301.021 88.3036 278.511L84.2184 258.199C79.6907 235.688 87.8358 215.06 109.018 210.795C130.198 206.531 149.701 221.589 154.229 244.1L156.037 253.092C157.775 261.729 161.722 303.229 131.581 306.147Z" fill="#E98862"/>
<path opacity="0.1" d="M120.844 276.649C123.624 276.317 125.68 274.394 125.437 272.353C125.194 270.313 122.743 268.928 119.963 269.26C117.183 269.592 115.127 271.515 115.37 273.555C115.613 275.596 118.064 276.981 120.844 276.649Z" fill="#0C0C0C"/>
<path opacity="0.1" d="M150.219 268.492C150.465 270.529 152.918 271.912 155.699 271.584C156.179 271.527 156.652 271.419 157.111 271.264C157.239 268.834 157.248 266.497 157.176 264.333C156.404 264.14 155.603 264.094 154.814 264.196C152.032 264.524 149.978 266.446 150.219 268.492Z" fill="#0C0C0C"/>
<path opacity="0.5" d="M137.939 274.789L137.981 274.783C138.839 274.604 139.687 274.377 140.521 274.105C141.764 273.688 143.392 273.004 143.165 271.879C142.908 270.596 136.611 257.464 135.896 255.973C135.831 255.847 135.719 255.75 135.584 255.705C135.45 255.66 135.303 255.669 135.174 255.731C135.046 255.792 134.947 255.902 134.898 256.035C134.85 256.169 134.855 256.316 134.913 256.446C137.598 262.039 141.923 271.233 142.096 272.097C141.961 272.499 139.897 273.286 137.768 273.715C137.697 273.727 137.629 273.752 137.568 273.789C137.507 273.827 137.454 273.876 137.413 273.934C137.371 273.992 137.341 274.058 137.324 274.128C137.308 274.197 137.305 274.27 137.316 274.34C137.328 274.411 137.353 274.479 137.391 274.54C137.428 274.601 137.477 274.654 137.535 274.696C137.593 274.737 137.659 274.768 137.729 274.784C137.798 274.801 137.871 274.803 137.941 274.792L137.939 274.789Z" fill="#0C0C0C"/>
<path d="M67.3185 265.49L86.3077 261.779C100.651 255.776 104.721 230.761 104.721 230.761C104.721 230.761 122.424 247.631 164.734 237.43C164.734 237.43 155.543 178.328 93.0698 196.268C72.9253 202.052 58.6572 222.598 60.7793 249.812C62.2664 268.883 67.3185 265.49 67.3185 265.49Z" fill="#0A0A0A"/>
<path d="M90.9993 285.104C84.5617 286.4 77.9578 280.56 76.6607 274.118C75.3637 267.675 79.8693 263.073 86.3061 261.777L90.4905 265.425L96.5315 283.987L90.9993 285.104Z" fill="#E98862"/>
<path d="M140.454 245.5C142.065 244.36 143.949 243.668 145.914 243.494C146.899 243.4 147.894 243.455 148.863 243.658C149.842 243.858 150.792 244.18 151.691 244.616L151.719 244.629C151.819 244.673 151.932 244.676 152.034 244.638C152.136 244.6 152.219 244.524 152.265 244.425C152.312 244.326 152.317 244.214 152.282 244.111C152.246 244.008 152.172 243.923 152.074 243.874C151.122 243.371 150.11 242.99 149.062 242.739C148.007 242.483 146.92 242.386 145.837 242.453C143.642 242.575 141.52 243.283 139.691 244.503C139.623 244.549 139.565 244.609 139.52 244.677C139.475 244.746 139.444 244.823 139.428 244.904C139.413 244.985 139.414 245.068 139.431 245.149C139.447 245.229 139.48 245.306 139.526 245.374C139.572 245.442 139.631 245.5 139.7 245.545C139.769 245.59 139.846 245.621 139.927 245.637C140.008 245.652 140.091 245.652 140.171 245.635C140.252 245.618 140.328 245.586 140.396 245.539L140.411 245.529L140.454 245.5Z" fill="#0C0C0C"/>
<path d="M123.109 247.899C120.952 247.47 118.72 247.628 116.646 248.356C115.62 248.71 114.653 249.215 113.778 249.856C112.906 250.488 112.117 251.228 111.429 252.057C111.356 252.139 111.319 252.247 111.325 252.356C111.33 252.466 111.379 252.568 111.46 252.642C111.541 252.716 111.648 252.755 111.757 252.751C111.867 252.747 111.97 252.7 112.045 252.62L112.067 252.597C112.73 251.849 113.484 251.188 114.312 250.629C115.131 250.069 116.031 249.637 116.979 249.347C118.861 248.756 120.866 248.674 122.79 249.11L122.837 249.121C122.999 249.16 123.169 249.134 123.311 249.047C123.453 248.961 123.554 248.822 123.593 248.66C123.632 248.499 123.606 248.328 123.519 248.186C123.433 248.045 123.294 247.943 123.132 247.904L123.109 247.899Z" fill="#0C0C0C"/>
<path d="M86.3199 261.467C99.0853 256.712 103.321 247.892 104.626 241.328C105.47 236.95 105.391 232.444 104.394 228.099L103.999 228.207C104.98 232.496 105.056 236.943 104.221 241.263C102.934 247.719 98.7576 256.399 86.1774 261.083L86.3199 261.467Z" fill="#0C0C0C"/>
<path d="M187.1 333.059L308.304 373.599L272.718 389.428L333.15 265.364L382.543 288.398L326.47 414.493C323.634 420.87 318.6 426.012 312.288 428.981C305.975 431.95 298.806 432.548 292.09 430.664L290.885 430.322L167.845 395.756L187.1 333.059Z" fill="#2A9D8F"/>
<path d="M110.905 351.924C82.9729 350.607 81.7972 326.883 81.7972 326.883C81.7972 326.883 67.9568 327.781 58.7555 329.024C43.6926 331.06 33.7556 336.174 25.8522 344.086C18.4961 351.447 14.0176 359.412 18.7567 410.26C22.1881 447.076 19.7727 528.059 19.7727 528.059H189.992C189.992 528.059 201.879 411.062 203.287 394.492C205.977 362.853 213.574 355.869 198.181 339.571C187.018 327.752 158.197 326.883 146.597 326.884C146.403 326.884 148.946 353.718 110.905 351.924Z" fill="#2A9D8F"/>
<path d="M169.048 449.501L194.671 438.049C195.234 437.798 195.843 437.666 196.46 437.663C197.077 437.66 197.687 437.786 198.253 438.032C198.818 438.278 199.326 438.639 199.745 439.092C200.163 439.546 200.482 440.081 200.683 440.665C201.019 441.754 200.939 442.928 200.458 443.962C199.978 444.995 199.132 445.813 198.083 446.257L192.588 448.717L213.409 448.931C215.723 448.914 218.576 450.376 218.423 452.976C218.429 453.979 218.094 454.955 217.475 455.744C216.855 456.533 215.987 457.089 215.011 457.321C215.017 457.343 215.02 457.365 215.021 457.388C215.019 457.405 215.015 457.422 215.011 457.439L218.58 457.413C219.241 457.409 219.895 457.552 220.494 457.832C221.092 458.112 221.621 458.523 222.041 459.033C222.461 459.544 222.762 460.142 222.922 460.783C223.083 461.425 223.098 462.094 222.966 462.742C222.739 463.76 222.17 464.669 221.353 465.317C220.537 465.964 219.522 466.312 218.48 466.301L216.961 466.312C216.941 466.356 216.913 466.396 216.879 466.43C217.907 466.661 218.819 467.251 219.452 468.093C220.086 468.935 220.4 469.976 220.337 471.028C220.236 472.178 219.705 473.248 218.849 474.023C217.994 474.798 216.878 475.222 215.724 475.21L211.95 475.237C212.004 475.273 212.047 475.322 212.078 475.379C212.109 475.436 212.126 475.5 212.127 475.565C212.125 475.642 212.099 475.718 212.054 475.781C212.913 476.241 213.596 476.971 214 477.858C214.404 478.744 214.505 479.739 214.289 480.69C214.041 481.683 213.465 482.563 212.655 483.188C211.844 483.813 210.847 484.146 209.824 484.133L177.985 484.36C173.531 484.392 169.169 483.092 165.457 480.627C161.746 478.162 158.856 474.644 157.156 470.524C155.69 466.972 155.666 462.988 157.088 459.418C158.511 455.848 161.269 452.974 164.776 451.407L169.048 449.501Z" fill="#E98862"/>
<g opacity="0.2">
<path d="M194.401 457.213C194.403 457.321 194.447 457.423 194.524 457.499C194.6 457.574 194.704 457.617 194.811 457.617L214.611 457.795C214.72 457.796 214.825 457.754 214.902 457.678C214.98 457.602 215.024 457.498 215.025 457.389C215.026 457.28 214.984 457.176 214.907 457.098C214.831 457.021 214.728 456.976 214.619 456.975L194.819 456.797C194.71 456.797 194.606 456.84 194.529 456.917C194.452 456.994 194.409 457.098 194.409 457.207L194.401 457.213Z" fill="#0C0C0C"/>
</g>
<g opacity="0.2">
<path d="M194.082 465.949C194.083 466.057 194.127 466.16 194.204 466.235C194.281 466.311 194.384 466.353 194.492 466.353L216.589 466.552C216.698 466.552 216.802 466.509 216.879 466.432C216.956 466.355 216.999 466.251 216.999 466.143C216.995 466.035 216.951 465.933 216.875 465.857C216.799 465.781 216.697 465.736 216.589 465.733L194.492 465.533C194.384 465.533 194.28 465.577 194.203 465.653C194.126 465.73 194.083 465.835 194.083 465.943L194.082 465.949Z" fill="#0C0C0C"/>
</g>
<g opacity="0.2">
<path d="M193.681 475.409C193.683 475.516 193.727 475.619 193.803 475.695C193.88 475.771 193.983 475.813 194.091 475.813L211.718 475.972C211.771 475.972 211.825 475.962 211.875 475.942C211.924 475.922 211.97 475.892 212.008 475.855C212.047 475.817 212.077 475.772 212.098 475.722C212.119 475.673 212.13 475.62 212.131 475.566C212.131 475.512 212.121 475.458 212.101 475.409C212.081 475.359 212.051 475.313 212.014 475.275C211.976 475.236 211.931 475.206 211.881 475.185C211.832 475.164 211.779 475.153 211.725 475.152L194.098 474.993C193.99 474.993 193.885 475.036 193.809 475.113C193.732 475.19 193.689 475.294 193.689 475.403L193.681 475.409Z" fill="#0C0C0C"/>
</g>
<path d="M176.382 495.154L34.3177 527.469C29.5982 527.983 24.824 527.395 20.3695 525.753C15.915 524.11 11.9014 521.457 8.64373 518.002C5.38603 514.546 2.9728 510.383 1.59338 505.837C0.213965 501.292 -0.0941103 496.488 0.693327 491.804L16.9508 360.951C17.6202 356.969 19.0667 353.159 21.2079 349.736C23.3491 346.314 26.143 343.347 29.43 341.005C32.717 338.663 36.4328 336.992 40.3653 336.087C44.2977 335.182 48.3698 335.061 52.349 335.731C56.3282 336.401 60.1366 337.848 63.5567 339.991C66.9769 342.133 69.9418 344.929 72.2822 348.218C74.6226 351.507 76.2926 355.226 77.197 359.161C78.1013 363.096 78.2223 367.17 77.5529 371.152L69.7208 464.808L168.423 442.458L176.382 495.154Z" fill="#2A9D8F"/>
<path d="M49.7484 468.491C49.6455 468.491 49.5465 468.451 49.4713 468.381C49.3961 468.311 49.3501 468.215 49.3424 468.112C49.3348 468.009 49.3661 467.907 49.4301 467.827C49.4941 467.746 49.5861 467.692 49.6878 467.677L69.484 463.447C69.5373 463.438 69.5918 463.44 69.6443 463.453C69.6967 463.465 69.7462 463.489 69.7896 463.521C69.8331 463.553 69.8696 463.593 69.8972 463.64C69.9248 463.686 69.9428 463.738 69.9502 463.791C69.9662 463.899 69.9389 464.008 69.8744 464.095C69.8099 464.182 69.7134 464.241 69.6061 464.257L49.8098 468.487C49.7895 468.49 49.769 468.491 49.7484 468.491Z" fill="#0C0C0C"/>
<path d="M38.5791 528.059C38.4705 528.066 38.3635 528.029 38.2818 527.957C38.2 527.885 38.1502 527.784 38.1432 527.675C38.1363 527.566 38.1728 527.459 38.2447 527.378C38.3166 527.296 38.418 527.246 38.5267 527.239L175.489 494.963L167.729 443.065L69.6168 464.258C69.5533 464.266 69.4889 464.26 69.4285 464.238C69.3681 464.217 69.3134 464.183 69.2686 464.137C69.2239 464.091 69.1906 464.035 69.1716 463.973C69.1525 463.912 69.1481 463.847 69.1588 463.784L74.6615 410.27C74.6698 410.217 74.6887 410.165 74.7172 410.119C74.7456 410.073 74.7829 410.034 74.827 410.002C74.8711 409.971 74.921 409.949 74.9737 409.937C75.0265 409.925 75.0811 409.924 75.1343 409.934C75.2414 409.952 75.337 410.012 75.4 410.101C75.463 410.189 75.4882 410.299 75.4702 410.406L70.0625 463.37L167.92 442.16C167.972 442.145 168.027 442.141 168.081 442.148C168.136 442.155 168.188 442.173 168.235 442.201C168.282 442.229 168.323 442.266 168.356 442.31C168.389 442.353 168.412 442.403 168.426 442.456L176.385 495.152C176.41 495.256 176.394 495.365 176.34 495.457C176.286 495.549 176.198 495.616 176.096 495.644L38.634 528.056C38.6158 528.058 38.5975 528.059 38.5791 528.059Z" fill="#0C0C0C"/>
<path d="M143.598 279.227C138.109 282.019 131.847 282.902 125.801 281.736C125.592 281.696 125.375 281.717 125.177 281.796C124.979 281.875 124.808 282.009 124.683 282.181C124.558 282.354 124.485 282.559 124.473 282.772C124.46 282.985 124.508 283.197 124.611 283.383C126.414 286.562 130.69 291.992 138.024 289.778C142.76 288.348 144.551 283.473 145.215 280.457C145.26 280.249 145.245 280.031 145.171 279.831C145.097 279.631 144.968 279.456 144.798 279.327C144.628 279.198 144.425 279.12 144.212 279.102C144 279.084 143.787 279.127 143.598 279.227Z" fill="white"/>
<path d="M143.941 254.8C145.406 254.8 146.594 253.612 146.594 252.146C146.594 250.68 145.406 249.492 143.941 249.492C142.477 249.492 141.289 250.68 141.289 252.146C141.289 253.612 142.477 254.8 143.941 254.8Z" fill="#0C0C0C"/>
<path d="M118.456 259.265C119.92 259.265 121.108 258.077 121.108 256.611C121.108 255.145 119.92 253.957 118.456 253.957C116.991 253.957 115.803 255.145 115.803 256.611C115.803 258.077 116.991 259.265 118.456 259.265Z" fill="#0C0C0C"/>
<path d="M202.905 406.016C202.888 406.017 202.871 406.017 202.854 406.016C202.801 406.009 202.749 405.992 202.702 405.966C202.655 405.939 202.614 405.904 202.581 405.861C202.548 405.819 202.523 405.77 202.509 405.718C202.495 405.666 202.491 405.612 202.498 405.558L205.133 384.178C205.139 384.125 205.155 384.072 205.182 384.025C205.208 383.978 205.243 383.936 205.286 383.903C205.329 383.87 205.378 383.845 205.43 383.832C205.482 383.818 205.537 383.815 205.591 383.823C205.698 383.836 205.796 383.892 205.863 383.977C205.929 384.063 205.959 384.172 205.946 384.279L203.31 405.659C203.297 405.758 203.249 405.848 203.175 405.914C203.1 405.979 203.004 406.016 202.905 406.016Z" fill="#0C0C0C"/>
</g>
<defs>
<clipPath id="clip0_105_990">
<rect width="675" height="582" fill="white" transform="translate(0.5)"/>
</clipPath>
</defs>
</svg>
