<svg width="46" height="50" viewBox="0 0 46 50" fill="none" xmlns="http://www.w3.org/2000/svg">
<g filter="url(#filter0_d_119_2845)">
<path d="M18.8845 44.9495C27.1009 36.7523 33.5281 30.1998 40.6771 23.1657C43.0373 20.6927 44.5322 18.2722 45.1616 15.9044C46.2631 11.4361 44.5695 7.5668 41.6212 4.53892C38.7889 1.69755 35.76 0.355795 32.5344 0.513676C29.3088 0.671557 26.1225 2.30272 22.9755 5.40716L2.91363 25.6124L6.21797 28.8484L26.2798 8.72204C28.3384 6.75856 30.7881 4.90744 33.5965 5.17032C37.8754 5.77296 41.6542 11.027 40.6772 14.7205C39.4383 17.9974 37.7305 19.492 35.3667 21.8633C28.1762 29.0585 22.5696 34.6227 15.5802 41.6345C12.9535 44.0425 11.2547 44.6944 8.81433 42.4238C7.55554 41.1609 7.00484 39.9244 7.16217 38.7142C7.33677 37.3022 8.13356 36.3255 9.05029 35.3993L27.3812 17.0093C28.2187 16.1677 30.1259 14.5523 30.9216 15.2729C31.5321 16.6938 29.9599 18.0499 29.1908 18.8246L12.3546 35.715L15.5802 39.03L32.495 22.1396C35.4084 19.125 37.5016 15.4412 34.2258 12.037C30.603 8.91748 26.7864 11.0001 24.0769 13.6945L5.74596 32.0844C3.85784 33.9786 2.78258 36.0307 2.52038 38.2407C2.31353 41.3389 3.70589 43.8259 5.58863 45.7388C7.35834 47.5045 9.27023 48.4826 11.6466 48.5012C14.5036 48.3865 17.3128 46.4986 18.8845 44.9495Z" fill="white"/>
</g>
<defs>
<filter id="filter0_d_119_2845" x="0.5" y="0.501221" width="45" height="49" filterUnits="userSpaceOnUse" color-interpolation-filters="sRGB">
<feFlood flood-opacity="0" result="BackgroundImageFix"/>
<feColorMatrix in="SourceAlpha" type="matrix" values="0 0 0 0 0 0 0 0 0 0 0 0 0 0 0 0 0 0 127 0" result="hardAlpha"/>
<feOffset dx="-2" dy="1"/>
<feComposite in2="hardAlpha" operator="out"/>
<feColorMatrix type="matrix" values="0 0 0 0 0.0352941 0 0 0 0 0.278431 0 0 0 0 0.278431 0 0 0 1 0"/>
<feBlend mode="normal" in2="BackgroundImageFix" result="effect1_dropShadow_119_2845"/>
<feBlend mode="normal" in="SourceGraphic" in2="effect1_dropShadow_119_2845" result="shape"/>
</filter>
</defs>
</svg>
