<svg width="42" height="40" viewBox="0 0 42 40" fill="none" xmlns="http://www.w3.org/2000/svg">
<g filter="url(#filter0_d_119_2847)">
<path d="M40.2238 16.6519L5.51547 0.318566C5.16597 0.15411 4.77698 0.0921717 4.39369 0.139943C4.0104 0.187713 3.64852 0.343234 3.35008 0.588444C3.05163 0.833655 2.82887 1.15849 2.70766 1.52524C2.58645 1.89199 2.57176 2.2856 2.6653 2.66036L5.1398 12.5604L20.979 18.4996L5.1398 24.4388L2.6653 34.3389C2.57 34.7139 2.58347 35.1083 2.70412 35.476C2.82477 35.8437 3.04762 36.1694 3.3466 36.415C3.64558 36.6607 4.00833 36.8161 4.39241 36.8632C4.7765 36.9102 5.16604 36.8469 5.51547 36.6807L40.2238 20.3473C40.5746 20.1824 40.8711 19.9211 41.0789 19.5939C41.2866 19.2667 41.3969 18.8872 41.3969 18.4996C41.3969 18.112 41.2866 17.7325 41.0789 17.4053C40.8711 17.0781 40.5746 16.8168 40.2238 16.6519Z" fill="white"/>
</g>
<defs>
<filter id="filter0_d_119_2847" x="0.602539" y="0.124268" width="40.7939" height="39.754" filterUnits="userSpaceOnUse" color-interpolation-filters="sRGB">
<feFlood flood-opacity="0" result="BackgroundImageFix"/>
<feColorMatrix in="SourceAlpha" type="matrix" values="0 0 0 0 0 0 0 0 0 0 0 0 0 0 0 0 0 0 127 0" result="hardAlpha"/>
<feOffset dx="-2" dy="3"/>
<feComposite in2="hardAlpha" operator="out"/>
<feColorMatrix type="matrix" values="0 0 0 0 0.0352941 0 0 0 0 0.278431 0 0 0 0 0.278431 0 0 0 1 0"/>
<feBlend mode="normal" in2="BackgroundImageFix" result="effect1_dropShadow_119_2847"/>
<feBlend mode="normal" in="SourceGraphic" in2="effect1_dropShadow_119_2847" result="shape"/>
</filter>
</defs>
</svg>
