<svg width="33" height="33" viewBox="0 0 33 33" fill="none" xmlns="http://www.w3.org/2000/svg">
<path d="M16.75 0.499811C7.76375 0.499814 0.500001 7.76357 0.500001 16.7498C0.500002 25.7361 7.76375 32.9998 16.75 32.9998C25.7362 32.9998 33 25.7361 33 16.7498C33 7.76356 25.7362 0.499808 16.75 0.499811ZM21.7875 8.73856C22.015 8.73856 22.2425 8.81981 22.4375 8.99856L24.5012 11.0623C24.875 11.4198 24.875 11.9886 24.5012 12.3298L22.8762 13.9548L19.545 10.6236L21.17 8.99856C21.3325 8.81981 21.56 8.73856 21.7875 8.73856ZM18.5862 11.5661L21.9337 14.9136L12.0863 24.7611L8.73875 24.7611L8.73875 21.4136L18.5862 11.5661Z" fill="#F0F0F0"/>
</svg>
