<svg width="33" height="37" viewBox="0 0 33 37" fill="none" xmlns="http://www.w3.org/2000/svg">
<path d="M25.4615 22.8318C23.7473 22.8292 22.0917 23.4372 20.8082 24.5406L14.28 20.4707C14.6852 19.1744 14.6852 17.7904 14.28 16.4941L20.8082 12.4242C22.0788 13.5086 23.7104 14.1103 25.402 14.1184C27.0937 14.1265 28.7313 13.5404 30.0129 12.4682C31.2945 11.396 32.1336 9.90995 32.3757 8.28413C32.6177 6.65832 32.2462 5.00235 31.3298 3.62158C30.4133 2.24081 29.0137 1.22835 27.389 0.770899C25.7643 0.313446 24.024 0.441847 22.4891 1.13242C20.9542 1.823 19.7282 3.02919 19.0371 4.52856C18.346 6.02794 18.2364 7.7194 18.7286 9.29104L12.1989 13.3562C11.1834 12.4848 9.93053 11.9165 8.59063 11.7197C7.25072 11.5229 5.8808 11.7059 4.64538 12.2467C3.40996 12.7875 2.36158 13.6632 1.62615 14.7685C0.89072 15.8738 0.499513 17.1618 0.499513 18.4777C0.499513 19.7937 0.89072 21.0817 1.62615 22.187C2.36158 23.2923 3.40996 24.1679 4.64538 24.7087C5.8808 25.2496 7.25073 25.4325 8.59063 25.2357C9.93054 25.0389 11.1834 24.4707 12.1989 23.5992L18.727 27.6784C18.2963 29.054 18.3233 30.5265 18.8041 31.8864C19.285 33.2463 20.1952 34.4243 21.4054 35.2528C22.6155 36.0813 24.0638 36.5181 25.5444 36.5011C27.0249 36.4841 28.4622 36.0141 29.6518 35.158C30.8414 34.3019 31.7227 33.1033 32.1702 31.7328C32.6178 30.3622 32.6089 28.8895 32.1447 27.5241C31.6806 26.1588 30.7849 24.9703 29.585 24.1279C28.3851 23.2855 26.9422 22.8319 25.4615 22.8318ZM25.4615 4.19129C26.0943 4.19129 26.7129 4.3735 27.239 4.71487C27.7651 5.05625 28.1752 5.54146 28.4173 6.10914C28.6594 6.67683 28.7228 7.3015 28.5994 7.90415C28.4759 8.5068 28.1712 9.06037 27.7238 9.49486C27.2764 9.92935 26.7063 10.2252 26.0857 10.3451C25.4651 10.465 24.8218 10.4035 24.2372 10.1683C23.6526 9.93318 23.153 9.53498 22.8014 9.02408C22.4499 8.51317 22.2622 7.91251 22.2622 7.29805C22.2622 6.47409 22.5993 5.68387 23.1993 5.10124C23.7993 4.51861 24.613 4.19129 25.4615 4.19129ZM7.54551 21.5892C6.91275 21.5892 6.2942 21.4069 5.76808 21.0656C5.24196 20.7242 4.8319 20.239 4.58975 19.6713C4.3476 19.1036 4.28425 18.4789 4.40769 17.8763C4.53114 17.2736 4.83584 16.7201 5.28327 16.2856C5.7307 15.8511 6.30076 15.5552 6.92136 15.4353C7.54196 15.3155 8.18523 15.377 8.76983 15.6121C9.35442 15.8473 9.85408 16.2455 10.2056 16.7564C10.5572 17.2673 10.7448 17.8679 10.7448 18.4824C10.7448 19.3064 10.4077 20.0966 9.80775 20.6792C9.20777 21.2618 8.39402 21.5892 7.54551 21.5892ZM25.4615 32.7735C24.8288 32.7735 24.2102 32.5913 23.6841 32.2499C23.158 31.9085 22.7479 31.4233 22.5058 30.8556C22.2636 30.2879 22.2003 29.6633 22.3237 29.0606C22.4472 28.458 22.7519 27.9044 23.1993 27.4699C23.6467 27.0354 24.2168 26.7395 24.8374 26.6197C25.458 26.4998 26.1013 26.5613 26.6859 26.7964C27.2705 27.0316 27.7701 27.4298 28.1217 27.9407C28.4732 28.4516 28.6608 29.0523 28.6608 29.6667C28.6608 30.4907 28.3238 31.2809 27.7238 31.8635C27.1238 32.4462 26.31 32.7735 25.4615 32.7735Z" fill="#191919"/>
</svg>
