<svg width="36" height="36" viewBox="0 0 36 36" fill="none" xmlns="http://www.w3.org/2000/svg">
<g clip-path="url(#clip0_119_3156)">
<path d="M27.5043 7.27572L24.7881 7.27572L24.7881 14.989L27.5043 14.989L27.5043 7.27572ZM20.0392 7.24267L17.3231 7.24267L17.3231 14.9595L20.0392 14.9595L20.0392 7.24267ZM8.49603 0.000487095L1.70947 6.42846L1.70948 29.5725L9.85377 29.5725L9.85377 36.0005L16.641 29.5725L22.0727 29.5725L34.2909 18.0005L34.2909 0.000482585L8.49603 0.000487095ZM31.5754 16.7173L26.1459 21.8585L20.7149 21.8585L15.9618 26.3585L15.9618 21.8585L9.85377 21.8585L9.85377 2.57252L31.5754 2.57252L31.5754 16.7173Z" fill="white"/>
</g>
<defs>
<clipPath id="clip0_119_3156">
<rect width="36" height="36" fill="white" transform="translate(0 0.000488281)"/>
</clipPath>
</defs>
</svg>
