<svg width="29" height="30" viewBox="0 0 29 30" fill="none" xmlns="http://www.w3.org/2000/svg">
<path d="M25.375 14.9995V18.6245C25.375 18.945 25.2477 19.2523 25.0211 19.4789C24.7945 19.7055 24.4871 19.8328 24.1667 19.8328H4.83333C4.51286 19.8328 4.20552 19.7055 3.97891 19.4789C3.75231 19.2523 3.625 18.945 3.625 18.6245V6.54116C3.625 6.22069 3.75231 5.91334 3.97891 5.68674C4.20552 5.46013 4.51286 5.33282 4.83333 5.33282H15.7083M8.45833 24.6662H20.5417M10.875 19.8328V24.6662M18.125 19.8328V24.6662M20.5417 5.33282H25.375M25.375 5.33282V10.1662M25.375 5.33282L19.3333 11.3745" stroke="white" stroke-width="2" stroke-linecap="round" stroke-linejoin="round"/>
</svg>
