<svg width="773" height="416" viewBox="0 0 773 416" fill="none" xmlns="http://www.w3.org/2000/svg">
<g clip-path="url(#clip0_105_1265)">
<path d="M70.8947 403.87C57.418 404.044 43.929 402.939 28.6031 392.59C25.4591 390.47 22.1904 387.509 22.3041 383.718C22.3892 380.864 24.5082 378.37 27.0652 377.08C28.0207 376.61 29.0281 376.253 30.0668 376.017C30.072 376.017 30.0779 376.017 30.0779 376.012C31.6815 375.669 33.3133 375.474 34.9527 375.428L35.4201 375.411C43.2236 375.126 51.0266 375.991 58.5769 377.98C59.2606 378.158 59.9844 378.1 60.6307 377.815C61.2769 377.53 61.8074 377.035 62.1356 376.41C62.4639 375.786 62.5706 375.069 62.4384 374.376C62.3062 373.684 61.9429 373.056 61.4076 372.596C60.4326 371.764 59.3753 371.032 58.2519 370.414C56.6039 369.527 54.8766 368.797 53.0924 368.231C50.7122 367.453 48.2513 366.869 45.8256 366.236C36.8098 363.905 27.9956 360.856 19.4676 357.12C13.3799 354.449 7.24795 351.282 3.08287 346.106C1.16998 343.725 -0.317175 340.747 0.0585142 337.718C0.685096 332.739 6.04419 329.67 11.0386 329.045C19.7926 327.953 28.3353 331.852 36.1279 335.973C42.5926 339.4 49.8139 343.173 56.8701 341.23C58.0918 340.957 59.2065 340.332 60.0764 339.434C61.6715 337.593 61.2782 334.648 59.8548 332.671C58.4313 330.693 56.2208 329.459 54.0908 328.278C41.7151 321.418 29.357 314.114 19.4812 303.998C9.60543 293.882 2.33995 280.515 2.33085 266.386C2.33085 262.254 2.97433 258.026 4.93922 254.386C6.90411 250.747 10.3438 247.754 14.4218 247.01C19.9746 245.987 25.4422 249.175 29.645 252.932C44.0824 265.824 49.8405 285.476 58.3683 302.835C60.755 307.694 63.5168 312.576 67.9198 315.786C68.3309 316.1 68.8049 316.321 69.3094 316.435C72.2818 317.072 73.5804 313.429 73.7169 310.65C74.2467 299.658 71.5356 288.161 75.5453 277.908C77.0773 274.003 79.828 270.264 83.8319 268.997C88.7243 267.451 94.2258 270.167 97.1643 274.367C100.103 278.567 100.895 283.902 100.869 289.026C100.824 298.523 98.2498 307.872 94.4682 316.584C92.4747 321.182 90.0828 325.95 90.6522 330.923C90.8777 332.603 91.5298 334.198 92.5464 335.555C93.5631 336.913 94.9106 337.989 96.4611 338.681C97.1801 338.987 97.9533 339.145 98.7348 339.147C99.5163 339.149 100.29 338.995 101.011 338.693C102.566 338.028 103.751 336.743 104.89 335.498C105.368 334.975 105.846 334.447 106.33 333.924C108.233 331.844 110.135 329.762 112.037 327.678C116.872 322.382 122.915 316.613 130.042 317.522C133.682 317.988 136.694 320.246 138.755 323.285C140.613 326.049 141.661 329.275 141.78 332.6C141.996 339.528 136.119 360.902 132.81 366.995C128.947 374.107 117.005 403.273 70.8947 403.87Z" fill="#8DDBE0"/>
<path d="M702.109 403.87C715.585 404.044 729.074 402.939 744.4 392.59C747.544 390.47 750.813 387.509 750.699 383.718C750.614 380.864 748.495 378.37 745.938 377.08C744.983 376.61 743.975 376.253 742.936 376.017C742.931 376.017 742.925 376.017 742.925 376.012C741.322 375.669 739.69 375.474 738.051 375.428L737.583 375.411C729.78 375.126 721.977 375.991 714.426 377.98C713.743 378.158 713.018 378.1 712.372 377.815C711.725 377.53 711.195 377.035 710.866 376.411C710.538 375.786 710.432 375.069 710.564 374.376C710.697 373.684 711.061 373.056 711.596 372.596C712.571 371.764 713.628 371.032 714.751 370.414C716.399 369.527 718.127 368.797 719.911 368.231C722.292 367.453 724.752 366.869 727.178 366.236C736.194 363.905 745.008 360.856 753.536 357.12C759.624 354.449 765.755 351.282 769.921 346.106C771.834 343.725 773.32 340.747 772.945 337.718C772.318 332.739 766.959 329.67 761.965 329.045C753.211 327.953 744.668 331.852 736.875 335.973C730.411 339.4 723.189 343.173 716.133 341.23C714.912 340.957 713.797 340.332 712.927 339.434C711.332 337.593 711.725 334.648 713.149 332.671C714.573 330.693 716.783 329.459 718.913 328.278C731.288 321.418 743.647 314.114 753.522 303.998C763.397 293.882 770.659 280.515 770.671 266.386C770.671 262.254 770.027 258.026 768.062 254.386C766.097 250.747 762.658 247.754 758.58 247.01C753.027 245.987 747.559 249.175 743.356 252.932C728.919 265.822 723.161 285.474 714.636 302.832C712.249 307.69 709.487 312.573 705.084 315.783C704.673 316.096 704.199 316.318 703.695 316.432C700.722 317.069 699.424 313.425 699.287 310.647C698.757 299.655 701.468 288.158 697.459 277.905C695.927 274 693.176 270.261 689.172 268.993C684.28 267.448 678.778 270.164 675.84 274.364C672.901 278.564 672.109 283.899 672.135 289.023C672.18 298.519 674.754 307.869 678.536 316.581C680.529 321.179 682.921 325.947 682.352 330.92C682.126 332.6 681.474 334.195 680.458 335.552C679.441 336.91 678.093 337.986 676.543 338.678C675.824 338.983 675.051 339.142 674.269 339.144C673.488 339.146 672.714 338.991 671.993 338.689C670.438 338.025 669.253 336.74 668.115 335.495C667.636 334.972 667.158 334.444 666.674 333.921C664.771 331.841 662.869 329.759 660.967 327.675C656.132 322.378 650.089 316.61 642.962 317.519C639.322 317.985 636.31 320.243 634.249 323.282C632.391 326.045 631.343 329.271 631.224 332.597C631.008 339.525 636.885 360.899 640.194 366.991C644.053 374.107 655.995 403.273 702.109 403.87Z" fill="#8DDBE0"/>
<path d="M688.374 388.359H82.0263C74.4411 388.359 68.2922 394.495 68.2922 402.064V402.065C68.2922 409.634 74.4411 415.77 82.0263 415.77H688.374C695.959 415.77 702.108 409.634 702.108 402.065V402.064C702.108 394.495 695.959 388.359 688.374 388.359Z" fill="#DEE8F5"/>
<path d="M639.273 0.770508H129.092C117.92 0.770508 108.863 9.8083 108.863 20.957V372.627C108.863 383.775 117.92 392.813 129.092 392.813H639.273C650.445 392.813 659.502 383.775 659.502 372.627V20.957C659.502 9.8083 650.445 0.770508 639.273 0.770508Z" fill="#DEE8F5"/>
<path d="M638.016 14.5376H130.348C125.409 14.5376 121.405 18.5335 121.405 23.4627V369.685C121.405 374.614 125.409 378.61 130.348 378.61H638.016C642.955 378.61 646.96 374.614 646.96 369.685V23.4627C646.96 18.5335 642.955 14.5376 638.016 14.5376Z" fill="white"/>
<path d="M375.201 32.1866H139.161V189.096H375.201V32.1866Z" fill="#F3F5FD"/>
<path d="M167.41 51.9087H147.832V188.892H167.41V51.9087Z" fill="#C1D8ED"/>
<path d="M167.409 188.892H231.569L231.569 51.9087H167.409V188.892Z" fill="#DEE8F5"/>
<g opacity="0.53">
<path d="M170.301 186.036H228.677V138.18H170.301V186.036Z" fill="#F3F5FD"/>
</g>
<g opacity="0.53">
<path d="M170.301 79.7159L228.677 79.7159V54.8555L170.301 54.8555V79.7159Z" fill="white"/>
</g>
<g opacity="0.53">
<path d="M170.301 107.41L228.677 107.41V82.5497H170.301V107.41Z" fill="white"/>
</g>
<g opacity="0.53">
<path d="M170.301 135.104H228.677V110.244H170.301V135.104Z" fill="white"/>
</g>
<path d="M198.195 186.95H200.783V137.353H198.195V186.95Z" fill="#DEE8F5"/>
<path d="M207.146 178.861C208.6 178.861 209.779 177.684 209.779 176.232C209.779 174.781 208.6 173.604 207.146 173.604C205.691 173.604 204.512 174.781 204.512 176.232C204.512 177.684 205.691 178.861 207.146 178.861Z" fill="white"/>
<path d="M191.833 178.861C193.287 178.861 194.466 177.684 194.466 176.232C194.466 174.781 193.287 173.604 191.833 173.604C190.378 173.604 189.199 174.781 189.199 176.232C189.199 177.684 190.378 178.861 191.833 178.861Z" fill="white"/>
<path d="M217.753 87.5209V91.4243V107.41H197.192V91.4243V87.5209H217.753Z" fill="#C1D8ED"/>
<path d="M223.991 91.4242H203.43V107.41H223.991V91.4242Z" fill="#DEE8F5"/>
<path d="M223.991 91.4242H203.43V92.6222H223.991V91.4242Z" fill="#C1D8ED"/>
<path d="M203.43 91.4236H223.992V87.5202H203.43V91.4236Z" fill="#DEE8F5"/>
<path d="M211.478 97.0348H215.943C216.23 97.0348 216.463 96.8025 216.463 96.5159V95.1531C216.463 94.8666 216.23 94.6342 215.943 94.6342H211.478C211.19 94.6342 210.958 94.8666 210.958 95.1531V96.5159C210.958 96.8025 211.19 97.0348 211.478 97.0348Z" fill="white"/>
<path d="M194.693 90.2268V93.5996V107.41H176.929V93.5996V90.2268H194.693Z" fill="#C1D8ED"/>
<path d="M200.514 93.5996H182.751V107.41H200.514V93.5996Z" fill="#DEE8F5"/>
<path d="M200.514 93.5996H182.751V94.6348H200.514V93.5996Z" fill="#C1D8ED"/>
<path d="M182.751 93.5996H200.514V90.2274H182.751V93.5996Z" fill="#DEE8F5"/>
<path d="M189.704 98.4468H193.562C193.81 98.4468 194.011 98.2461 194.011 97.9986V96.8213C194.011 96.5738 193.81 96.3731 193.562 96.3731H189.704C189.456 96.3731 189.255 96.5738 189.255 96.8213V97.9986C189.255 98.2461 189.456 98.4468 189.704 98.4468Z" fill="white"/>
<path d="M227.327 64L224.64 63.3661L221.272 77.5837L223.959 78.2177L227.327 64Z" fill="white"/>
<path d="M221.685 62.2611L220.193 62.5358L222.5 75.0155L223.992 74.7409L221.685 62.2611Z" fill="#C1D8ED"/>
<path d="M221.684 62.2569L220.194 62.5399L220.456 63.9162L221.947 63.6332L221.684 62.2569Z" fill="#DEE8F5"/>
<path d="M226.303 65.435L221.47 77.6797L222.298 78.0054L227.132 65.7607L226.303 65.435Z" fill="#C1D8ED"/>
<path d="M227.361 70.7921H220.074V80.0849H227.361V70.7921Z" fill="#C1D8ED"/>
<path d="M216.221 63.549H210.038V79.9046H216.221V63.549Z" fill="#C1D8ED"/>
<path d="M210.656 61.2982H207.348V79.9046H210.656V61.2982Z" fill="#DEE8F5"/>
<path d="M207.348 62.3484H202.201V79.9047H207.348V62.3484Z" fill="white"/>
<path d="M189.715 62.3484H186.708V79.9047H189.715V62.3484Z" fill="#DEE8F5"/>
<path d="M195.618 63.6024L189.94 66.3615L196.524 79.8522L202.201 77.0932L195.618 63.6024Z" fill="#DEE8F5"/>
<path d="M186.731 63.6482H180.548V80.0039H186.731V63.6482Z" fill="#C1D8ED"/>
<path d="M181.167 61.3975H177.859V80.0039H181.167V61.3975Z" fill="#DEE8F5"/>
<path d="M177.859 62.4476H172.712V80.0039H177.859V62.4476Z" fill="#C1D8ED"/>
<path d="M213.01 118.332L210.137 117.446L204.945 134.22L207.818 135.106L213.01 118.332Z" fill="#DEE8F5"/>
<path d="M181.532 118.748H175.35V135.104H181.532V118.748Z" fill="#C1D8ED"/>
<path d="M184.221 116.497H180.914V135.104H184.221V116.497Z" fill="white"/>
<path d="M189.369 117.548H184.221V135.105H189.369V117.548Z" fill="#DEE8F5"/>
<path d="M204.863 117.548H201.855V135.105H204.863V117.548Z" fill="#DEE8F5"/>
<path d="M201.63 121.613L195.952 118.854L189.369 132.344L195.047 135.103L201.63 121.613Z" fill="white"/>
<path d="M214.533 126.362C214.658 126.586 214.868 126.752 215.116 126.823C215.364 126.894 215.63 126.864 215.856 126.739C216.018 126.685 216.191 126.672 216.359 126.702C216.527 126.732 216.684 126.804 216.817 126.911C217.256 127.239 217.562 127.712 217.68 128.246H222.804C222.824 127.938 222.863 127.631 222.923 127.328C223.061 126.501 223.452 125.737 224.042 125.14C224.183 124.987 224.371 124.887 224.576 124.854C224.692 124.92 224.82 124.961 224.952 124.976C225.084 124.99 225.218 124.978 225.346 124.939C225.473 124.899 225.591 124.835 225.692 124.748C225.793 124.662 225.876 124.556 225.934 124.437C225.993 124.317 226.026 124.187 226.032 124.055C226.039 123.922 226.018 123.789 225.971 123.665C225.924 123.541 225.852 123.427 225.759 123.332C225.666 123.236 225.555 123.161 225.432 123.11C224.973 122.921 224.467 122.878 223.982 122.985C223.497 123.093 223.057 123.347 222.722 123.712C222.46 123.954 222.224 124.224 222.02 124.516C222.098 124.021 222.22 123.533 222.383 123.058C222.579 122.459 222.94 121.926 223.423 121.52C223.618 121.36 223.744 121.131 223.774 120.881C223.803 120.631 223.735 120.379 223.582 120.178C223.429 119.977 223.204 119.844 222.955 119.805C222.705 119.767 222.45 119.826 222.244 119.971C221.458 120.602 220.872 121.445 220.554 122.399C220.519 122.496 220.489 122.594 220.456 122.693C219.849 121.186 219.229 119.911 217.977 119.177C217.755 119.057 217.495 119.028 217.252 119.096C217.009 119.164 216.802 119.323 216.674 119.54C216.546 119.757 216.507 120.015 216.566 120.26C216.625 120.505 216.776 120.717 216.989 120.853C217.753 121.301 218.211 122.314 218.727 123.614C218.157 122.958 217.475 122.409 216.712 121.992C216.599 121.923 216.474 121.877 216.342 121.858C216.211 121.838 216.078 121.846 215.95 121.88C215.822 121.913 215.702 121.973 215.597 122.055C215.493 122.136 215.407 122.238 215.343 122.354C215.28 122.47 215.241 122.598 215.228 122.73C215.216 122.861 215.231 122.994 215.272 123.12C215.313 123.246 215.379 123.362 215.466 123.461C215.553 123.561 215.66 123.641 215.78 123.698C216.373 124.025 216.9 124.46 217.331 124.981C216.949 124.811 216.534 124.728 216.115 124.738C215.697 124.748 215.286 124.851 214.912 125.04C214.686 125.165 214.519 125.374 214.448 125.622C214.377 125.87 214.407 126.136 214.533 126.362Z" fill="#8DDBE0"/>
<path d="M224.72 128.246H215.665V130.873H224.72V128.246Z" fill="#DEE8F5"/>
<path d="M215.664 130.873V133.753C215.664 134.111 215.806 134.455 216.06 134.708C216.314 134.961 216.658 135.104 217.017 135.104H223.365C223.724 135.104 224.068 134.961 224.322 134.708C224.576 134.455 224.719 134.112 224.719 133.753V130.873H215.664Z" fill="#C1D8ED"/>
<path d="M353.426 63.7819V133.753H316.013V135.258H314.327V133.753H276.913V63.7819H353.426Z" fill="white"/>
<path d="M353.428 46.446H276.913V133.753H353.428V46.446Z" fill="white"/>
<g opacity="0.78">
<path d="M299.669 95.4379H281.129V135.258H299.669V95.4379Z" fill="#C1D8ED"/>
</g>
<g opacity="0.78">
<path d="M318.034 86.9111L336.071 81.3446V136.021H318.034V86.9111Z" fill="#C1D8ED"/>
</g>
<path d="M298.136 102.973L309.898 95.2186L320.903 102.973V136.021H298.136V102.973Z" fill="#DEE8F5"/>
<path d="M353.407 111.167H331.107V136.021H353.407V111.167Z" fill="#DEE8F5"/>
<path d="M284.99 121.2H276.913V135.052H284.99V121.2Z" fill="#DEE8F5"/>
<path d="M353.427 97.926H276.913V99.6092H353.427V97.926Z" fill="#F3F5FD"/>
<path d="M353.427 79.6829H276.913V81.366H353.427V79.6829Z" fill="#F3F5FD"/>
<path d="M353.427 116.173H276.913V117.856H353.427V116.173Z" fill="#F3F5FD"/>
<path d="M316.013 63.7819H314.327V135.258H316.013V63.7819Z" fill="#F3F5FD"/>
<path d="M358.824 133.753H271.515V137.766H358.824V133.753Z" fill="#C1D8ED"/>
<path d="M358.824 42.4324H271.515V46.4461H358.824V42.4324Z" fill="#C1D8ED"/>
<path d="M353.428 60.276H276.913V63.7831H353.428V60.276Z" fill="#DEE8F5"/>
<path d="M353.428 55.6663H276.913V59.1734H353.428V55.6663Z" fill="#DEE8F5"/>
<path d="M353.428 51.0565H276.913V54.5636H353.428V51.0565Z" fill="#DEE8F5"/>
<path d="M353.428 46.446H276.913V49.9532H353.428V46.446Z" fill="#DEE8F5"/>
<path d="M208.846 71.5932C208.703 57.7645 214.18 49.1949 221.606 44.4898C228.933 39.8469 251.91 35.806 260.621 52.6624C266.306 63.6599 264.062 67.5912 265.672 85.2058C267.282 102.821 273.472 104.668 279.742 126.019C284.663 142.766 257.099 151.657 233.225 150.888C209.352 150.119 194.221 144.846 192.836 129.695C190.848 107.949 209.126 98.6933 208.846 71.5932Z" fill="#0F1011"/>
<path d="M223.069 109.827C223.069 109.827 230.24 105.948 228.451 86.3805L243.315 83.4889C243.315 83.4889 241.803 101.061 249.387 106.567L223.069 109.827Z" fill="#E98862"/>
<g opacity="0.15">
<path d="M246.302 102.924L233.847 93.5944L243.561 93.405C243.961 96.665 244.758 100.16 246.302 102.924Z" fill="black"/>
</g>
<path d="M219.933 78.8649C221.019 84.7966 224.319 90.3936 229.589 92.2642C235.844 94.4857 240.493 95.183 247.652 94.5344C263.939 93.0516 260.374 56.0963 252.57 48.9835C244.766 41.8707 222.098 46.6244 219.444 58.6655C218.072 64.8929 218.9 73.218 219.933 78.8649Z" fill="#E98862"/>
<path d="M243.195 74.0741C243.94 74.0741 244.545 73.471 244.545 72.727C244.545 71.9829 243.94 71.3798 243.195 71.3798C242.449 71.3798 241.845 71.9829 241.845 72.727C241.845 73.471 242.449 74.0741 243.195 74.0741Z" fill="#0F1011"/>
<path d="M253.841 73.105C254.586 73.105 255.191 72.5019 255.191 71.7578C255.191 71.0138 254.586 70.4106 253.841 70.4106C253.095 70.4106 252.491 71.0138 252.491 71.7578C252.491 72.5019 253.095 73.105 253.841 73.105Z" fill="#0F1011"/>
<path d="M256.148 68.8644L252.573 68.852C252.405 68.852 252.244 68.7854 252.125 68.6666C252.006 68.5479 251.939 68.3869 251.939 68.219C251.939 68.0511 252.006 67.8901 252.125 67.7714C252.244 67.6526 252.405 67.5859 252.573 67.5859L256.148 67.5983C256.317 67.5983 256.478 67.665 256.597 67.7837C256.716 67.9024 256.783 68.0634 256.783 68.2313C256.783 68.3992 256.716 68.5602 256.597 68.679C256.478 68.7977 256.317 68.8644 256.148 68.8644Z" fill="#0F1011"/>
<path d="M240.252 70.3121C240.097 70.312 239.947 70.2555 239.831 70.1531C239.715 70.0507 239.641 69.9095 239.622 69.7561C239.603 69.6028 239.641 69.4478 239.729 69.3204C239.817 69.1931 239.948 69.1022 240.098 69.0648L243.617 68.1852C243.699 68.1633 243.784 68.1578 243.867 68.169C243.951 68.1801 244.031 68.2078 244.104 68.2504C244.176 68.2929 244.24 68.3495 244.29 68.4168C244.341 68.4841 244.378 68.5608 244.398 68.6423C244.419 68.7239 244.423 68.8087 244.41 68.8918C244.397 68.975 244.368 69.0547 244.324 69.1265C244.28 69.1982 244.222 69.2605 244.154 69.3097C244.086 69.359 244.008 69.3941 243.926 69.4131L240.406 70.2926C240.356 70.3055 240.304 70.312 240.252 70.3121Z" fill="#0F1011"/>
<path d="M243.918 83.3338C243.918 83.3338 248.907 83.8132 252.389 82.5626C252.389 82.5626 252.389 85.8388 248.451 86.1949C244.512 86.551 243.918 83.3338 243.918 83.3338Z" fill="white"/>
<path d="M230.759 63.3706C231.978 84.3944 227.785 100.505 227.785 100.505C227.785 100.505 215.08 85.2752 213.16 69.0129C211.359 53.7703 222.545 44.6545 230.143 42.8864C259.016 36.1653 261.021 57.182 261.021 57.182C259.154 64.3513 227.634 68.7995 227.634 68.7995" fill="#0F1011"/>
<path d="M236.43 78.597C236.56 80.102 236.088 81.5973 235.117 82.7559C234.145 83.9144 232.754 84.6419 231.246 84.7791C229.739 84.9163 228.238 84.4521 227.072 83.488C225.907 82.524 225.172 81.1385 225.027 79.6348C224.946 78.8853 225.016 78.1271 225.235 77.4054C225.453 76.6837 225.815 76.0132 226.298 75.4338C226.782 74.8545 227.377 74.3782 228.049 74.0333C228.72 73.6884 229.455 73.4819 230.208 73.4261C234.287 73.2568 236.143 75.455 236.43 78.597Z" fill="#E98862"/>
<g opacity="0.15">
<path d="M249.254 80.1465C249.143 80.1464 249.035 80.1066 248.951 80.0344C248.867 79.9622 248.811 79.8623 248.794 79.7527C248.777 79.6432 248.8 79.5311 248.858 79.4368C248.917 79.3426 249.007 79.2722 249.113 79.2385L251.852 78.3713L249.892 74.1195C249.862 74.0637 249.844 74.0023 249.839 73.9393C249.834 73.8762 249.841 73.8128 249.862 73.7529C249.882 73.693 249.914 73.6378 249.956 73.5907C249.999 73.5437 250.05 73.5057 250.108 73.4792C250.165 73.4527 250.228 73.4382 250.291 73.4366C250.355 73.4349 250.418 73.4462 250.476 73.4697C250.535 73.4932 250.589 73.5285 250.633 73.5733C250.678 73.6181 250.713 73.6715 250.737 73.7304L252.917 78.4601C252.945 78.52 252.96 78.585 252.96 78.651C252.961 78.7169 252.947 78.7822 252.921 78.8425C252.894 78.9028 252.855 78.9568 252.805 79.0008C252.756 79.0448 252.698 79.0778 252.635 79.0977L249.394 80.1238C249.349 80.1385 249.301 80.1461 249.254 80.1465Z" fill="black"/>
</g>
<path d="M320.886 117.941C320.886 117.941 322.372 106.901 330.221 108.437C335.174 109.406 359.049 111.186 359.139 113.388C359.363 118.837 337.488 117.504 334.91 122.24L320.886 117.941Z" fill="#E98862"/>
<path d="M327.374 108.451C327.374 108.451 338.834 106.204 341.465 107.175C343.794 108.034 338.32 111.326 338.32 111.326L327.374 108.451Z" fill="#E98862"/>
<path d="M292.881 180.736C292.734 180.736 292.586 180.736 292.437 180.725C290.866 180.648 289.342 180.166 288.013 179.326C286.684 178.486 285.597 177.316 284.857 175.93L255.692 121.313L272.733 113.774L293.743 153.988L321.714 112.022L336.853 122.07L300.449 176.688C299.62 177.932 298.495 178.953 297.174 179.66C295.854 180.366 294.379 180.736 292.881 180.736Z" fill="#0CBC8B"/>
<path d="M274.157 189.097H199.679C201.654 183.326 202.743 177.291 202.909 171.195C202.922 170.657 202.929 170.11 202.929 169.554C202.885 166.461 202.527 163.381 201.86 160.361C199.398 148.441 193.54 135.518 193.874 124.57C194.028 119.353 195.595 114.581 199.6 110.581C203.848 106.345 211.179 103.609 220.12 103.599C220.788 108.801 252.443 108.82 252.684 103.719C253.894 103.738 254.833 103.756 255.414 103.784C266.719 104.271 272.058 109.287 274.27 116.713C277.214 126.579 274.636 140.697 273.205 154.104C272.773 158.129 272.449 162.092 272.404 165.854C272.233 173.64 272.82 181.424 274.157 189.097Z" fill="#0CBC8B"/>
<path d="M252.683 103.718C252.442 108.818 249.663 116.32 241.086 116.885C229.655 117.636 220.789 108.798 220.12 103.596H220.148C231.402 103.597 246.122 103.615 252.683 103.718Z" fill="#E98862"/>
<path d="M236.26 180.347L233.848 189.097H199.679C199.677 189.106 199.673 189.114 199.67 189.122L199.581 189.097L185.009 185.097C183.835 184.774 182.739 184.22 181.784 183.468C180.829 182.715 180.036 181.778 179.45 180.714C178.865 179.649 178.499 178.478 178.376 177.27C178.252 176.062 178.373 174.841 178.73 173.681L193.875 124.568L195.624 118.891L213.002 124.226L201.861 160.359L198.864 170.083L202.91 171.193L236.26 180.347Z" fill="#0CBC8B"/>
<path d="M256.977 180.897C261.219 180.897 264.657 177.466 264.657 173.233C264.657 169 261.219 165.569 256.977 165.569C252.735 165.569 249.297 169 249.297 173.233C249.297 177.466 252.735 180.897 256.977 180.897Z" fill="#FD5D76"/>
<path d="M260.759 175.599H258.893C258.652 175.599 258.42 175.503 258.25 175.333C258.079 175.163 257.983 174.932 257.983 174.691V173.43C257.983 173.201 258.069 172.981 258.226 172.813C257.816 172.724 257.398 172.682 256.978 172.688C256.535 172.681 256.093 172.729 255.662 172.83C255.833 173 255.928 173.231 255.928 173.472V174.691C255.928 174.932 255.832 175.163 255.661 175.333C255.491 175.503 255.259 175.599 255.018 175.599H253.198C252.957 175.599 252.725 175.503 252.555 175.333C252.384 175.163 252.288 174.932 252.288 174.691C252.288 172.334 254.086 170.869 256.981 170.869C259.876 170.869 261.674 172.334 261.674 174.691C261.674 174.81 261.651 174.929 261.605 175.039C261.559 175.15 261.491 175.25 261.406 175.335C261.321 175.419 261.22 175.486 261.109 175.531C260.998 175.576 260.879 175.599 260.759 175.599Z" fill="white"/>
<path d="M236.462 178.652C239.462 178.652 241.893 176.226 241.893 173.233C241.893 170.24 239.462 167.814 236.462 167.814C233.463 167.814 231.032 170.24 231.032 173.233C231.032 176.226 233.463 178.652 236.462 178.652Z" fill="#8DDBE0"/>
<path d="M236.463 174.974C236.128 174.974 235.808 174.841 235.571 174.605C235.334 174.369 235.201 174.049 235.201 173.715V171.307C235.201 170.973 235.334 170.653 235.57 170.417C235.807 170.181 236.128 170.048 236.463 170.048C236.798 170.048 237.119 170.181 237.355 170.417C237.592 170.653 237.725 170.973 237.725 171.307V173.715C237.725 174.049 237.592 174.369 237.355 174.605C237.118 174.841 236.797 174.974 236.463 174.974Z" fill="white"/>
<path d="M236.463 176.288C236.429 176.288 236.396 176.282 236.365 176.269C236.334 176.256 236.306 176.237 236.282 176.213C236.258 176.19 236.239 176.162 236.226 176.131C236.213 176.1 236.207 176.066 236.207 176.033V173.733C236.207 173.666 236.234 173.601 236.282 173.553C236.33 173.505 236.395 173.478 236.463 173.478C236.531 173.478 236.596 173.505 236.644 173.553C236.692 173.601 236.719 173.666 236.719 173.733V176.033C236.719 176.066 236.713 176.1 236.7 176.131C236.687 176.162 236.668 176.19 236.644 176.214C236.62 176.237 236.592 176.256 236.561 176.269C236.53 176.282 236.497 176.288 236.463 176.288Z" fill="white"/>
<path d="M237.615 176.418H235.311C235.243 176.418 235.177 176.391 235.129 176.343C235.081 176.295 235.054 176.23 235.054 176.162C235.054 176.095 235.081 176.03 235.129 175.982C235.177 175.934 235.243 175.907 235.311 175.907H237.615C237.683 175.907 237.748 175.934 237.796 175.982C237.844 176.03 237.871 176.095 237.871 176.162C237.871 176.23 237.844 176.295 237.796 176.343C237.748 176.391 237.683 176.418 237.615 176.418Z" fill="white"/>
<path d="M277.492 178.652C280.492 178.652 282.923 176.226 282.923 173.233C282.923 170.24 280.492 167.814 277.492 167.814C274.493 167.814 272.062 170.24 272.062 173.233C272.062 176.226 274.493 178.652 277.492 178.652Z" fill="#0CBC8B"/>
<path d="M279.056 171.464H274.677V175.003H279.056V171.464Z" fill="white"/>
<path d="M280.307 174.716L278.755 173.167L280.307 171.617" fill="white"/>
<path d="M629.204 32.1866H393.164V189.095H629.204V32.1866Z" fill="#F3F5FD"/>
<path d="M514.177 112.768V56.8914L446.164 56.8914V112.768H514.177Z" fill="#DEE8F5"/>
<path d="M509.488 108.089V61.5706L450.853 61.5706V108.089H509.488Z" fill="white"/>
<path d="M489.445 95.3308V70.4535H460.281V95.3308H489.445Z" fill="#C1D8ED"/>
<path d="M491.049 102.997C496.026 102.997 500.061 98.9703 500.061 94.0031C500.061 89.036 496.026 85.0093 491.049 85.0093C486.071 85.0093 482.036 89.036 482.036 94.0031C482.036 98.9703 486.071 102.997 491.049 102.997Z" fill="#DEE8F5"/>
<path d="M476.98 102.997V82.8921H473.002V102.997H476.98Z" fill="#F3F5FD"/>
<path d="M476.241 188.626C475.149 188.258 474.164 187.628 473.374 186.791C472.583 185.954 472.011 184.935 471.708 183.826C471.127 181.591 471.202 179.237 471.926 177.044C472.452 175.247 473.25 173.511 473.447 171.649C474.102 165.451 468.077 159.118 470.912 153.564C471.829 151.768 473.603 150.365 473.92 148.375C474.18 146.729 473.369 145.132 472.965 143.511C472.65 142.404 472.591 141.241 472.795 140.109C472.998 138.976 473.458 137.905 474.138 136.977C475.585 135.195 478.32 134.416 480.313 135.557C482.921 137.049 483.147 140.736 482.477 143.66C481.807 146.585 480.565 149.594 481.384 152.482C482.164 155.233 484.704 157.306 485.16 160.129C485.538 162.476 484.39 164.765 483.886 167.088C483.093 170.74 483.9 174.525 483.935 178.261C483.97 181.997 482.914 186.184 476.241 188.626Z" fill="#8DDBE0"/>
<path d="M472.832 188.128C470.202 187.33 468.1 185.858 467.576 183.163C467.144 180.94 467.674 178.442 466.455 176.533C464.802 173.944 463.109 173.652 461.051 171.37C457.889 167.863 457.778 166.311 457.986 159.813C458.075 157.066 454.273 153.965 455.612 151.326C456.791 149 460.377 148.991 462.41 150.625C464.443 152.259 465.335 154.884 466.222 157.337C467.109 159.789 468.225 162.383 470.471 163.714C471.818 164.512 473.58 164.882 474.325 166.257C474.923 167.359 474.621 168.711 474.381 169.944C473.777 173.043 473.926 176.824 476.535 178.614C477.71 179.422 479.251 179.699 480.217 180.748C481.173 181.785 481.327 183.319 481.263 184.726" fill="#DEE8F5"/>
<path d="M499.981 149.477C499.981 153.402 497.031 155.088 495.529 156.865C493.366 159.438 492.219 162.712 492.305 166.069C492.409 169.818 494.008 173.807 492.299 177.148C491.044 179.599 488.366 180.91 486.26 182.687C484.249 184.403 482.719 186.611 481.821 189.095H474.691C474.139 187.838 473.897 186.467 473.986 185.097C474.074 183.727 474.489 182.398 475.198 181.221C476.797 178.698 479.767 176.96 480.391 174.041C480.95 171.44 479.403 168.755 479.871 166.141C480.371 163.293 483.004 161.425 485.097 159.427C485.642 158.942 486.11 158.378 486.488 157.754C487.404 156.1 487.151 154.076 487.463 152.208C488.061 148.641 491.012 145.469 494.593 144.879C497.732 144.36 499.981 146.163 499.981 149.477Z" fill="#F3F5FD"/>
<path d="M486.104 184.983H467.17V189.095H486.104V184.983Z" fill="#0CBC8B"/>
<path d="M616.534 173.317H564.294L567.837 134.859C567.922 133.938 568.348 133.083 569.033 132.46C569.717 131.838 570.609 131.492 571.535 131.492H616.319C616.835 131.492 617.346 131.6 617.818 131.808C618.291 132.016 618.714 132.32 619.062 132.7C619.41 133.081 619.675 133.53 619.839 134.018C620.004 134.507 620.064 135.024 620.017 135.537L616.534 173.317Z" fill="#C1D8ED"/>
<path d="M570.149 155.339H534.634V187.039H570.149V155.339Z" fill="#C1D8ED"/>
<path d="M606.409 173.317H556.097L559.639 134.859C559.724 133.939 560.15 133.083 560.834 132.461C561.519 131.838 562.411 131.492 563.337 131.492H606.192C606.708 131.492 607.219 131.6 607.692 131.808C608.164 132.016 608.588 132.32 608.936 132.7C609.284 133.081 609.548 133.53 609.713 134.018C609.877 134.507 609.937 135.024 609.89 135.537L606.409 173.317Z" fill="#DEE8F5"/>
<g opacity="0.48">
<path d="M606.409 173.317H556.097L559.639 134.859C559.724 133.939 560.15 133.083 560.834 132.461C561.519 131.838 562.411 131.492 563.337 131.492H606.192C606.708 131.492 607.219 131.6 607.692 131.808C608.164 132.016 608.588 132.32 608.936 132.7C609.284 133.081 609.548 133.53 609.713 134.018C609.877 134.507 609.937 135.024 609.89 135.537L606.409 173.317Z" fill="#C1D8ED"/>
</g>
<path d="M624.167 160.595V187.111C624.169 187.791 624.036 188.466 623.777 189.095H588.652V155.341H618.902C620.298 155.341 621.637 155.894 622.625 156.88C623.612 157.865 624.167 159.201 624.167 160.595Z" fill="#C1D8ED"/>
<path d="M594.43 161.11V186.601C594.43 187.466 594.235 188.32 593.858 189.099H529.419C529.044 188.319 528.851 187.466 528.854 186.601V161.11C528.904 159.614 529.535 158.195 530.614 157.154C531.692 156.113 533.134 155.531 534.635 155.531C536.136 155.531 537.578 156.113 538.656 157.154C539.735 158.195 540.366 159.614 540.417 161.11V180.835H582.873V161.11C582.873 159.581 583.482 158.114 584.566 157.033C585.65 155.952 587.119 155.344 588.652 155.344C590.184 155.344 591.654 155.952 592.738 157.033C593.821 158.114 594.43 159.581 594.43 161.11Z" fill="#DEE8F5"/>
<path d="M537.388 169.448H582.951V181.785H537.388C536.408 181.785 535.469 181.396 534.776 180.705C534.083 180.014 533.694 179.076 533.694 178.099V173.134C533.694 172.156 534.083 171.219 534.776 170.528C535.469 169.836 536.408 169.448 537.388 169.448Z" fill="#F3F5FD"/>
<g opacity="0.15">
<path d="M537.388 169.448H582.951V181.785H537.388C536.408 181.785 535.469 181.396 534.776 180.705C534.083 180.014 533.694 179.076 533.694 178.099V173.134C533.694 172.156 534.083 171.219 534.776 170.528C535.469 169.836 536.408 169.448 537.388 169.448Z" fill="#C1D8ED"/>
</g>
<path d="M417.39 184.983H452.905V155.339H417.39V184.983Z" fill="#C1D8ED"/>
<path d="M431.441 173.314H393.164V131.491H424.2C425.126 131.49 426.019 131.835 426.704 132.458C427.388 133.081 427.814 133.937 427.899 134.857L431.441 173.314Z" fill="#DEE8F5"/>
<g opacity="0.48">
<path d="M431.441 173.314H393.164V131.491H424.2C425.126 131.49 426.019 131.835 426.704 132.458C427.388 133.081 427.814 133.937 427.899 134.857L431.441 173.314Z" fill="#C1D8ED"/>
</g>
<path d="M398.893 155.341V189.095H393.167V187.415C393.128 187.145 393.108 186.871 393.108 186.598V161.11C393.108 160.837 393.128 160.564 393.167 160.293V155.344L398.893 155.341Z" fill="#C1D8ED"/>
<path d="M458.682 161.11V186.601C458.684 187.466 458.491 188.319 458.116 189.099H393.677C393.301 188.32 393.105 187.466 393.105 186.601V161.11C393.105 160.837 393.124 160.564 393.164 160.293C393.381 158.857 394.133 157.555 395.269 156.648C396.405 155.74 397.843 155.294 399.294 155.397C400.746 155.5 402.106 156.145 403.102 157.204C404.098 158.263 404.657 159.658 404.668 161.11V180.835H447.125V161.11C447.125 159.581 447.734 158.114 448.817 157.033C449.901 155.952 451.371 155.344 452.903 155.344C454.436 155.344 455.906 155.952 456.989 157.033C458.073 158.114 458.682 159.581 458.682 161.11Z" fill="#DEE8F5"/>
<path d="M450.151 181.785H404.588V169.448H450.151C451.131 169.448 452.071 169.836 452.763 170.527C453.456 171.219 453.845 172.156 453.845 173.134V178.099C453.845 179.076 453.456 180.014 452.763 180.705C452.071 181.396 451.131 181.785 450.151 181.785Z" fill="#F3F5FD"/>
<g opacity="0.15">
<path d="M450.151 181.785H404.588V169.448H450.151C451.131 169.448 452.071 169.836 452.763 170.527C453.456 171.219 453.845 172.156 453.845 173.134V178.098C453.845 179.076 453.456 180.014 452.763 180.705C452.071 181.396 451.131 181.785 450.151 181.785Z" fill="#C1D8ED"/>
</g>
<path d="M531.741 112.026C531.741 112.026 523.848 108.122 525.005 86.9344L508.85 84.3989C508.85 84.3989 511.176 103.304 503.21 109.543L531.741 112.026Z" fill="#E98862"/>
<g opacity="0.15">
<path d="M506.394 105.491L519.468 94.932L508.977 95.1104C508.675 98.6441 507.951 102.448 506.394 105.491Z" fill="black"/>
</g>
<path d="M533.901 78.4874C532.963 84.9321 529.623 91.1012 524.01 93.3279C517.348 95.9717 512.367 96.274 504.607 96.4861C494.018 96.7754 494.065 85.7455 493.463 74.6482C492.859 63.5061 493.419 51.5215 497.498 47.5221C505.639 39.5388 530.292 43.7802 533.63 56.6677C535.357 63.3362 534.792 72.354 533.901 78.4874Z" fill="#E98862"/>
<path d="M524.413 92.7085C524.776 93.7657 525.023 94.2243 525.97 93.6276C529.688 91.2834 538.059 86.1755 540.454 67.8298C542.599 51.3911 532.299 44.9172 524.163 42.7281C517.151 40.8419 500.908 40.8588 493.415 45.6469C486.959 49.7747 493.775 58.7796 493.775 58.7796C496.68 58.8341 497.334 61.3092 504.179 61.1198C509.471 60.9752 512.847 58.5208 517.807 58.5902C522.348 58.6551 523.355 61.3903 523.243 63.1597C522.562 73.9204 523.129 88.9698 524.413 92.7085Z" fill="#0F1011"/>
<path d="M508.554 74.2349C509.359 74.2349 510.012 73.5836 510.012 72.7801C510.012 71.9766 509.359 71.3252 508.554 71.3252C507.749 71.3252 507.096 71.9766 507.096 72.7801C507.096 73.5836 507.749 74.2349 508.554 74.2349Z" fill="#0F1011"/>
<path d="M497.027 73.6077C497.832 73.6077 498.485 72.9564 498.485 72.1529C498.485 71.3494 497.832 70.698 497.027 70.698C496.222 70.698 495.569 71.3494 495.569 72.1529C495.569 72.9564 496.222 73.6077 497.027 73.6077Z" fill="#0F1011"/>
<path d="M494.397 69.1219C494.219 69.1211 494.047 69.0505 493.92 68.9253C493.792 68.8 493.719 68.63 493.716 68.4515C493.712 68.2731 493.779 68.1003 493.901 67.9702C494.024 67.8401 494.192 67.763 494.371 67.7552L498.231 67.6015C498.321 67.5979 498.411 67.612 498.495 67.6431C498.58 67.6741 498.657 67.7214 498.723 67.7824C498.789 67.8433 498.843 67.9166 498.881 67.9982C498.918 68.0797 498.94 68.1678 498.943 68.2576C498.947 68.3473 498.933 68.4369 498.901 68.5211C498.87 68.6054 498.823 68.6828 498.762 68.7487C498.701 68.8147 498.627 68.8681 498.546 68.9057C498.464 68.9433 498.376 68.9646 498.286 68.9681L494.425 69.1212L494.397 69.1219Z" fill="#0F1011"/>
<path d="M511.61 70.0578C511.562 70.058 511.514 70.053 511.467 70.0429L507.635 69.2328C507.546 69.2152 507.461 69.1802 507.386 69.1297C507.311 69.0792 507.246 69.0143 507.196 68.9387C507.146 68.8631 507.111 68.7784 507.095 68.6894C507.078 68.6004 507.079 68.5089 507.098 68.4203C507.116 68.3317 507.153 68.2477 507.204 68.1732C507.256 68.0987 507.322 68.0352 507.398 67.9864C507.475 67.9375 507.56 67.9043 507.649 67.8887C507.739 67.873 507.83 67.8753 507.919 67.8953L511.754 68.7054C511.919 68.7405 512.066 68.8355 512.166 68.972C512.265 69.1085 512.31 69.277 512.293 69.4449C512.275 69.6129 512.196 69.7684 512.071 69.8815C511.945 69.9947 511.782 70.0575 511.613 70.0578H511.61Z" fill="#0F1011"/>
<path d="M516.235 76.1329C516.146 77.7672 516.711 79.3698 517.806 80.5884C518.901 81.8069 520.436 82.5415 522.074 82.6305C523.712 82.7195 525.318 82.1557 526.539 81.0631C527.76 79.9704 528.496 78.4385 528.585 76.8042C528.771 73.4016 526.163 70.3258 522.748 70.3083C518.336 70.2849 516.421 72.7302 516.235 76.1329Z" fill="#E98862"/>
<g opacity="0.15">
<path d="M502.291 81.0261C502.245 81.0261 502.2 81.02 502.156 81.0079L498.617 80.0285C498.548 80.0094 498.484 79.976 498.43 79.9304C498.375 79.8848 498.33 79.8282 498.299 79.7641C498.268 79.7001 498.251 79.6302 498.249 79.559C498.246 79.4879 498.26 79.4171 498.287 79.3513L500.454 74.1623C500.505 74.0395 500.603 73.942 500.726 73.8913C500.85 73.8406 500.988 73.8408 501.111 73.8919C501.234 73.943 501.332 74.0407 501.383 74.1637C501.434 74.2867 501.433 74.4248 501.382 74.5476L499.432 79.2132L502.422 80.0408C502.539 80.0737 502.64 80.1475 502.707 80.2488C502.773 80.3501 502.801 80.4721 502.785 80.5922C502.768 80.7123 502.709 80.8224 502.618 80.9024C502.527 80.9824 502.41 81.0268 502.288 81.0274L502.291 81.0261Z" fill="black"/>
</g>
<path d="M508.194 84.2556C508.194 84.2556 502.828 84.9691 499.021 83.7568C499.021 83.7568 499.151 87.2925 503.415 87.5247C507.68 87.7569 508.194 84.2556 508.194 84.2556Z" fill="white"/>
<path d="M421.377 113.148C421.377 113.148 422.495 104.849 423.897 104.694C426.237 104.434 428.28 115.667 429.282 118.135L418.287 121.609" fill="#E98862"/>
<path d="M411.028 95.6844C407.654 96.7436 408.476 107.364 412.267 116.7C416.058 126.035 421.789 132.533 425.067 131.208C428.344 129.883 427.926 121.239 424.138 111.901C420.35 102.562 418.287 93.4051 411.028 95.6844Z" fill="#E98862"/>
<path d="M443.276 183.845C441.202 183.846 439.177 183.221 437.465 182.052C435.754 180.884 434.436 179.227 433.685 177.299L411.028 119.144L430.208 111.703L446.569 153.699L481.863 111.757L497.625 124.959L451.155 180.18C450.189 181.328 448.983 182.25 447.622 182.884C446.261 183.517 444.778 183.845 443.276 183.845Z" fill="#262626"/>
<path d="M551.481 171.683C551.465 177.589 552.322 183.464 554.023 189.121H479.548C480.603 182.105 481.063 175.014 480.921 167.921C480.618 141.793 466.855 106.228 498.171 104.886C498.765 104.857 499.719 104.838 500.946 104.822C501.19 110.002 533.333 109.983 534.015 104.695C543.093 104.705 550.544 107.484 554.859 111.791C556.871 113.765 558.415 116.163 559.379 118.808C563.323 129.627 557.46 143.546 553.895 156.814C552.513 161.935 551.481 166.97 551.481 171.683Z" fill="#262626"/>
<path d="M500.947 104.821C501.192 110.001 504.015 117.619 512.726 118.194C524.334 118.957 533.338 109.982 534.018 104.698H533.989C522.56 104.698 507.611 104.717 500.947 104.821Z" fill="#E98862"/>
<path d="M585.27 189.122H564.513L562.888 177.021L553.899 156.813L540.671 127.106L559.382 118.803L559.479 118.764L582.294 170.028C582.688 170.919 582.954 171.862 583.083 172.827L585.27 189.122Z" fill="#262626"/>
<path d="M510.982 180.897C515.223 180.897 518.662 177.466 518.662 173.233C518.662 169 515.223 165.569 510.982 165.569C506.74 165.569 503.302 169 503.302 173.233C503.302 177.466 506.74 180.897 510.982 180.897Z" fill="#FD5D76"/>
<path d="M514.763 175.599H512.9C512.658 175.599 512.427 175.503 512.256 175.333C512.086 175.163 511.99 174.932 511.99 174.691V173.43C511.989 173.201 512.076 172.981 512.233 172.813C511.823 172.724 511.405 172.682 510.986 172.688C510.542 172.681 510.1 172.729 509.669 172.83C509.753 172.914 509.82 173.014 509.866 173.124C509.912 173.235 509.935 173.353 509.935 173.472V174.691C509.935 174.932 509.839 175.163 509.669 175.333C509.498 175.503 509.267 175.599 509.025 175.599H507.205C506.964 175.599 506.732 175.503 506.562 175.333C506.391 175.163 506.295 174.932 506.295 174.691C506.295 172.334 508.094 170.869 510.989 170.869C513.884 170.869 515.682 172.334 515.682 174.691C515.682 174.811 515.658 174.929 515.612 175.04C515.565 175.151 515.498 175.251 515.412 175.336C515.327 175.42 515.225 175.487 515.114 175.532C515.003 175.577 514.883 175.6 514.763 175.599Z" fill="white"/>
<path d="M490.466 178.652C493.466 178.652 495.897 176.226 495.897 173.233C495.897 170.24 493.466 167.814 490.466 167.814C487.467 167.814 485.036 170.24 485.036 173.233C485.036 176.226 487.467 178.652 490.466 178.652Z" fill="#8DDBE0"/>
<path d="M490.467 174.974C490.132 174.974 489.812 174.841 489.575 174.605C489.338 174.369 489.205 174.049 489.204 173.715V171.307C489.204 170.973 489.337 170.653 489.574 170.417C489.81 170.181 490.132 170.048 490.466 170.048C490.801 170.048 491.122 170.181 491.359 170.417C491.596 170.653 491.729 170.973 491.729 171.307V173.715C491.728 174.049 491.595 174.369 491.359 174.605C491.122 174.841 490.801 174.974 490.467 174.974Z" fill="white"/>
<path d="M490.467 176.288C490.433 176.288 490.4 176.282 490.369 176.269C490.338 176.256 490.31 176.237 490.286 176.214C490.262 176.19 490.243 176.162 490.23 176.131C490.217 176.1 490.211 176.066 490.211 176.033V173.733C490.211 173.666 490.238 173.601 490.286 173.553C490.334 173.505 490.399 173.478 490.467 173.478C490.535 173.478 490.6 173.505 490.648 173.553C490.696 173.601 490.723 173.666 490.723 173.733V176.033C490.723 176.1 490.696 176.165 490.648 176.213C490.6 176.261 490.535 176.288 490.467 176.288Z" fill="white"/>
<path d="M491.619 176.418H489.315C489.247 176.418 489.182 176.391 489.133 176.343C489.085 176.295 489.058 176.23 489.058 176.162C489.058 176.095 489.085 176.03 489.133 175.982C489.182 175.934 489.247 175.907 489.315 175.907H491.619C491.687 175.907 491.752 175.934 491.8 175.982C491.848 176.03 491.875 176.095 491.875 176.162C491.875 176.23 491.848 176.295 491.8 176.343C491.752 176.391 491.687 176.418 491.619 176.418Z" fill="white"/>
<path d="M531.496 178.652C534.496 178.652 536.927 176.226 536.927 173.233C536.927 170.24 534.496 167.814 531.496 167.814C528.497 167.814 526.066 170.24 526.066 173.233C526.066 176.226 528.497 178.652 531.496 178.652Z" fill="#0CBC8B"/>
<path d="M533.06 171.464H528.682V175.003H533.06V171.464Z" fill="white"/>
<path d="M534.311 174.716L532.759 173.167L534.311 171.617" fill="white"/>
<path d="M629.205 204.488H393.165V361.397H629.205V204.488Z" fill="#F3F5FD"/>
<path d="M407.522 359.353C409.366 359.873 411.161 360.557 412.884 361.396H401.158C401.179 361.247 401.216 361.102 401.269 360.961C401.507 360.415 401.886 359.941 402.366 359.586C402.846 359.232 403.412 359.011 404.005 358.944C404.442 358.881 404.885 358.87 405.325 358.912C405.331 358.912 405.331 358.912 405.331 358.905C406.009 358.975 406.68 359.107 407.333 359.301C407.398 359.32 407.463 359.33 407.522 359.353Z" fill="#8DDBE0"/>
<path d="M455.087 356.032C454.362 357.914 453.433 359.713 452.318 361.396H418.051C417.799 361.006 417.512 360.639 417.193 360.3C416.656 359.737 416.066 359.227 415.432 358.775C414.593 358.166 413.696 357.614 412.819 357.056C409.553 354.98 406.457 352.646 403.563 350.077C401.496 348.242 399.481 346.205 398.5 343.623C398.236 343.045 398.089 342.419 398.069 341.783C398.049 341.148 398.156 340.514 398.383 339.92C399.267 338.032 401.782 337.507 403.836 337.896C407.437 338.584 410.317 341.217 412.871 343.844C414.983 346.03 417.356 348.443 420.398 348.579C420.917 348.626 421.438 348.523 421.899 348.281C422.304 347.974 422.598 347.545 422.739 347.057C422.879 346.57 422.858 346.05 422.679 345.576C422.293 344.638 421.708 343.795 420.963 343.105C416.946 338.804 413.001 334.335 410.395 329.068C407.788 323.801 406.631 317.588 408.445 312.003C408.925 310.343 409.809 308.828 411.019 307.592C411.628 306.981 412.365 306.511 413.177 306.216C413.99 305.921 414.857 305.808 415.718 305.887C418.045 306.191 419.793 308.15 420.976 310.174C425.032 317.121 424.779 325.631 425.923 333.583C426.241 335.814 426.709 338.097 428.035 339.933C428.158 340.11 428.318 340.258 428.503 340.367C429.595 340.997 430.576 339.719 430.992 338.642C431.701 336.774 432.175 334.783 432.721 332.85C433.215 330.901 433.967 329.028 434.957 327.278C435.251 326.807 435.572 326.355 435.919 325.923C437.024 324.58 438.597 323.451 440.339 323.458C442.478 323.477 444.304 325.254 444.922 327.291C445.539 329.328 445.175 331.54 444.506 333.563C443.182 337.297 441.117 340.725 438.435 343.643C437.057 345.206 435.497 346.782 435.081 348.825C434.955 349.519 435.009 350.233 435.236 350.9C435.464 351.568 435.857 352.166 436.381 352.639C436.626 352.852 436.912 353.014 437.221 353.114C437.531 353.214 437.857 353.251 438.181 353.223C438.876 353.107 439.538 352.846 440.125 352.458C440.385 352.309 440.638 352.166 440.898 352.017C441.919 351.439 442.939 350.86 443.96 350.278C446.553 348.799 449.679 347.295 452.383 348.566C453.051 348.905 453.638 349.384 454.104 349.969C454.571 350.554 454.906 351.233 455.087 351.958C455.471 353.289 455.471 354.701 455.087 356.032Z" fill="#8DDBE0"/>
<path d="M577.589 240.334C584.855 240.334 590.745 234.456 590.745 227.206C590.745 219.955 584.855 214.078 577.589 214.078C570.323 214.078 564.434 219.955 564.434 227.206C564.434 234.456 570.323 240.334 577.589 240.334Z" fill="#C1D8ED"/>
<path d="M574.907 240.334C582.173 240.334 588.063 234.456 588.063 227.206C588.063 219.955 582.173 214.078 574.907 214.078C567.642 214.078 561.752 219.955 561.752 227.206C561.752 234.456 567.642 240.334 574.907 240.334Z" fill="#DEE8F5"/>
<path d="M574.907 238.4C581.102 238.4 586.125 233.388 586.125 227.206C586.125 221.024 581.102 216.012 574.907 216.012C568.712 216.012 563.69 221.024 563.69 227.206C563.69 233.388 568.712 238.4 574.907 238.4Z" fill="#F3F5FD"/>
<path d="M574.908 228.238C574.813 228.239 574.719 228.213 574.638 228.165C574.557 228.118 574.49 228.051 574.443 227.969C574.396 227.888 574.372 227.797 574.372 227.703V219.432C574.372 219.29 574.428 219.154 574.529 219.054C574.629 218.953 574.766 218.897 574.908 218.897C575.05 218.897 575.187 218.953 575.287 219.054C575.388 219.154 575.444 219.29 575.444 219.432V226.789L580.059 224.201C580.121 224.164 580.189 224.14 580.26 224.13C580.331 224.12 580.403 224.125 580.472 224.143C580.541 224.162 580.606 224.194 580.662 224.237C580.719 224.281 580.766 224.336 580.801 224.398C580.836 224.46 580.858 224.529 580.866 224.6C580.875 224.671 580.868 224.743 580.848 224.811C580.828 224.88 580.794 224.944 580.749 224.999C580.703 225.054 580.647 225.1 580.584 225.133L575.172 228.17C575.091 228.215 575 228.238 574.908 228.238Z" fill="#DEE8F5"/>
<path d="M591.252 338.383L590.641 341.353L586.526 361.396H584.648L588.782 341.353L589.575 337.494L591.252 338.383Z" fill="#C1D8ED"/>
<path d="M616.289 361.396H614.417L610.296 341.353L609.672 338.324L611.356 337.436L612.162 341.353L616.289 361.396Z" fill="#C1D8ED"/>
<path d="M617.917 334.653H583.012C582.13 334.653 581.414 335.367 581.414 336.247V339.758C581.414 340.639 582.13 341.353 583.012 341.353H617.917C618.799 341.353 619.514 340.639 619.514 339.758V336.247C619.514 335.367 618.799 334.653 617.917 334.653Z" fill="#DEE8F5"/>
<path d="M610.663 310.813C609.25 310.351 607.8 310.869 606.412 311.923C608.24 307.317 608.994 303.156 605.87 302.972C603.683 302.842 602.008 304.514 600.735 306.894C600.287 302.71 599.133 299.589 596.546 300.624C593.707 301.759 593.275 305.652 593.705 309.726C592.455 307.646 591.105 306.483 589.885 307.705C586.235 311.348 595.194 321.612 595.194 321.612H597.419L598.688 322.988C598.431 323.53 598.29 323.853 598.29 323.853L599.903 327.128C599.903 327.128 616.529 312.731 610.663 310.813Z" fill="#8DDBE0"/>
<path d="M606.674 334.462H594.082L591.975 319.793H608.782L606.674 334.462Z" fill="#C1D8ED"/>
<path d="M561.925 352.434H499.064L504.328 304.848C504.602 303.286 505.418 301.87 506.635 300.85C507.851 299.829 509.389 299.27 510.978 299.27H560.136C561.12 299.27 562.093 299.485 562.985 299.9C563.878 300.315 564.669 300.919 565.302 301.671C565.936 302.423 566.397 303.305 566.653 304.253C566.909 305.202 566.954 306.195 566.785 307.163L561.925 352.434Z" fill="#C1D8ED"/>
<path d="M553.338 330.028C553.338 330.028 553.026 341.074 552.383 352.432C552.214 355.467 552.019 358.522 551.798 361.396H455.445V337.15C455.444 335.262 456.195 333.452 457.532 332.116C458.869 330.78 460.683 330.03 462.575 330.028H553.338Z" fill="#F3F5FD"/>
<path d="M527.437 330.028V361.396H470.693V337.15C470.693 336.215 470.878 335.289 471.236 334.425C471.595 333.561 472.121 332.775 472.783 332.114C473.446 331.453 474.233 330.928 475.099 330.57C475.965 330.212 476.893 330.028 477.83 330.028H527.437Z" fill="#DEE8F5"/>
<path d="M549.299 352.434H486.436L491.701 304.848C491.975 303.286 492.791 301.87 494.008 300.85C495.224 299.829 496.762 299.27 498.351 299.27H547.511C548.496 299.27 549.469 299.485 550.361 299.9C551.254 300.314 552.045 300.919 552.678 301.671C553.312 302.423 553.773 303.304 554.029 304.253C554.285 305.202 554.33 306.195 554.161 307.163L549.299 352.434Z" fill="#DEE8F5"/>
<path d="M540.189 357.634V361.396H457.934V357.634C457.934 356.95 458.069 356.274 458.331 355.643C458.593 355.012 458.977 354.438 459.461 353.955C459.945 353.472 460.52 353.089 461.152 352.827C461.785 352.566 462.462 352.432 463.147 352.432H534.976C535.661 352.432 536.339 352.566 536.971 352.827C537.604 353.089 538.179 353.472 538.663 353.955C539.147 354.438 539.531 355.012 539.793 355.643C540.055 356.274 540.189 356.95 540.189 357.634Z" fill="white"/>
<path d="M567.157 330.028V361.396H525.513V337.15C525.513 336.215 525.697 335.289 526.056 334.425C526.414 333.561 526.94 332.775 527.603 332.114C528.266 331.453 529.052 330.928 529.918 330.57C530.784 330.212 531.712 330.028 532.649 330.028H567.157Z" fill="#F3F5FD"/>
<path d="M576.315 336.709V361.396H540.761V337.15C540.761 336.215 540.946 335.289 541.304 334.425C541.663 333.561 542.189 332.775 542.851 332.114C543.514 331.453 544.301 330.928 545.167 330.57C546.033 330.212 546.961 330.028 547.898 330.028H569.62C571.396 330.028 573.099 330.732 574.354 331.985C575.61 333.238 576.315 334.937 576.315 336.709Z" fill="#DEE8F5"/>
<path d="M441.624 268.602H440.879V286.964H441.624V268.602Z" fill="#C1D8ED"/>
<path d="M441.251 289.4C442.216 289.4 442.998 288.62 442.998 287.658C442.998 286.695 442.216 285.915 441.251 285.915C440.287 285.915 439.505 286.695 439.505 287.658C439.505 288.62 440.287 289.4 441.251 289.4Z" fill="#C1D8ED"/>
<path d="M435.1 257.104L435.055 279.637L434.957 327.278L434.886 361.396H432.663L432.721 332.85L432.832 279.637L432.877 257.104H435.1Z" fill="#C1D8ED"/>
<path d="M450.322 279.637H416.714L423.027 248.2H444.008L450.322 279.637Z" fill="#DEE8F5"/>
<path d="M454.134 359.618C452.59 359.618 451.07 359.243 449.705 358.526C448.339 357.809 447.168 356.772 446.293 355.503C445.417 354.235 444.864 352.773 444.68 351.244C444.496 349.715 444.687 348.164 445.237 346.725L463.993 297.638L477.223 302.672L485.032 292.058L500.388 303.309L461.815 355.737C460.93 356.941 459.774 357.919 458.439 358.594C457.105 359.268 455.63 359.619 454.134 359.618Z" fill="#367CFF"/>
<path d="M565.449 359.661C564.381 360.477 563.158 361.068 561.854 361.396H556.998C556.163 361.185 555.359 360.865 554.606 360.446L551.949 358.966C552.248 359.796 552.528 360.601 552.785 361.396H474.486C475.935 355.07 478.535 346.049 478.332 328.96C478.042 303.848 464.812 277.81 494.915 276.518C495.485 276.49 496.403 276.475 497.58 276.453C497.816 281.429 528.714 281.415 529.368 276.333C538.095 276.342 545.251 279.013 549.397 283.15C552.119 285.706 553.973 289.045 554.702 292.703L569.019 349.416C569.491 351.285 569.404 353.251 568.769 355.071C568.135 356.892 566.981 358.487 565.449 359.661Z" fill="#367CFF"/>
<path d="M497.58 276.455C497.815 281.433 500.528 288.758 508.901 289.31C520.059 290.043 528.714 281.415 529.367 276.337H529.34C518.354 276.337 503.984 276.355 497.58 276.455Z" fill="#E98862"/>
<path d="M486.557 293.417C487.029 294.051 486.63 294.957 484.081 297.633C482.493 299.308 480.552 301.635 479.118 303.391L466.136 298.448C467.062 294.628 468.541 289.359 469.92 288.163C472.13 286.245 480.325 289.938 480.325 289.938C480.325 289.938 481.214 287.222 482.375 284.416C483.709 281.184 485.405 277.825 486.512 278.378C487.582 278.912 486.793 282.252 485.569 285.837C483.999 290.454 481.704 295.47 481.704 295.47C481.704 295.47 485.396 291.873 486.557 293.417Z" fill="#E98862"/>
<path d="M487.882 321.881L498.878 320.13C499.311 320.061 499.724 319.902 500.091 319.662C500.457 319.423 500.769 319.109 501.006 318.741C501.242 318.373 501.398 317.96 501.463 317.527C501.529 317.095 501.502 316.654 501.384 316.233L494.465 291.455C494.26 290.721 493.792 290.088 493.149 289.677C492.506 289.265 491.734 289.104 490.98 289.224L479.983 290.975C479.551 291.044 479.138 291.204 478.771 291.443C478.405 291.682 478.093 291.996 477.857 292.364C477.62 292.732 477.464 293.146 477.399 293.578C477.334 294.01 477.361 294.451 477.478 294.872L484.398 319.65C484.602 320.384 485.071 321.017 485.713 321.429C486.356 321.84 487.128 322.001 487.882 321.881Z" fill="#C1D8ED"/>
<path d="M505.591 315.386L499.106 324.168C499.106 324.168 481.673 320.681 480.039 307.28C479.85 305.736 480.013 301.467 481.928 302.04C486.916 303.532 493.127 311.172 497.481 312.189C496.488 310.413 495.276 307.908 496.057 307.448C498.113 306.242 503.642 313.518 505.591 315.386Z" fill="#E98862"/>
<path d="M489.051 225.436C489.051 225.436 482.06 250.434 478.132 263.406C477.946 264.02 477.906 264.67 478.017 265.302C478.128 265.934 478.385 266.532 478.769 267.047C479.153 267.563 479.652 267.981 480.227 268.269C480.802 268.557 481.437 268.707 482.08 268.706H506.614C507.674 268.706 508.693 268.298 509.46 267.569C510.227 266.839 510.683 265.842 510.733 264.786L512.387 229.988L489.051 225.436Z" fill="#0F1011"/>
<path d="M526.651 281.041C526.651 281.041 519.515 277.274 521.091 257.892L506.352 255.178C506.352 255.178 508.024 272.553 500.574 278.075L526.651 281.041Z" fill="#E98862"/>
<g opacity="0.15">
<path d="M503.59 274.443L515.825 265.085L506.21 264.993C505.934 268.278 505.046 271.483 503.59 274.443Z" fill="black"/>
</g>
<path d="M529.446 250.371C528.431 256.252 525.221 261.823 520.021 263.727C514.358 265.976 508.229 266.808 502.169 266.15C486.037 264.845 489.195 228.239 496.847 221.122C504.499 214.006 526.98 218.488 529.725 230.377C531.147 236.527 530.411 244.778 529.446 250.371Z" fill="#E98862"/>
<path d="M506.364 245.862C507.102 245.862 507.7 245.265 507.7 244.529C507.7 243.792 507.102 243.195 506.364 243.195C505.626 243.195 505.027 243.792 505.027 244.529C505.027 245.265 505.626 245.862 506.364 245.862Z" fill="#0F1011"/>
<path d="M495.82 245.009C496.558 245.009 497.156 244.412 497.156 243.675C497.156 242.939 496.558 242.342 495.82 242.342C495.082 242.342 494.483 242.939 494.483 243.675C494.483 244.412 495.082 245.009 495.82 245.009Z" fill="#0F1011"/>
<path d="M493.5 240.836C493.337 240.832 493.182 240.765 493.068 240.649C492.953 240.532 492.889 240.376 492.887 240.213C492.886 240.05 492.949 239.893 493.062 239.776C493.175 239.658 493.329 239.589 493.492 239.582L497.033 239.534H497.042C497.205 239.538 497.361 239.606 497.475 239.722C497.59 239.838 497.654 239.994 497.655 240.157C497.656 240.32 497.594 240.477 497.481 240.595C497.368 240.713 497.214 240.782 497.051 240.788L493.51 240.836H493.5Z" fill="#0F1011"/>
<path d="M509.246 242.11C509.196 242.11 509.147 242.104 509.099 242.092L505.608 241.258C505.525 241.241 505.447 241.207 505.378 241.16C505.309 241.112 505.25 241.051 505.205 240.98C505.16 240.909 505.129 240.83 505.115 240.747C505.101 240.664 505.104 240.579 505.124 240.498C505.144 240.416 505.179 240.339 505.229 240.271C505.279 240.204 505.342 240.147 505.415 240.104C505.487 240.061 505.567 240.033 505.651 240.022C505.734 240.011 505.819 240.016 505.9 240.038L509.391 240.873C509.541 240.909 509.672 240.998 509.759 241.124C509.847 241.25 509.886 241.404 509.868 241.556C509.85 241.708 509.777 241.849 509.662 241.951C509.547 242.053 509.399 242.11 509.246 242.11Z" fill="#0F1011"/>
<path d="M505.755 255.031C505.755 255.031 500.822 255.555 497.362 254.353C497.362 254.353 497.393 257.596 501.296 257.911C505.2 258.226 505.755 255.031 505.755 255.031Z" fill="white"/>
<g opacity="0.15">
<path d="M500.438 251.932C500.548 251.932 500.655 251.892 500.739 251.82C500.822 251.748 500.877 251.649 500.894 251.539C500.91 251.43 500.887 251.319 500.828 251.226C500.769 251.132 500.678 251.063 500.572 251.031L497.854 250.201L499.752 245.973C499.799 245.862 499.8 245.738 499.756 245.626C499.712 245.514 499.625 245.424 499.515 245.375C499.405 245.326 499.281 245.322 499.168 245.363C499.055 245.405 498.963 245.489 498.911 245.598L496.585 250.776L500.302 251.912C500.346 251.925 500.392 251.932 500.438 251.932Z" fill="black"/>
</g>
<path d="M488.21 228.433C488.21 228.433 490.572 209.369 521.184 214.051C528.815 215.219 539.631 221.164 541.383 240.651C542.184 249.59 545.272 258.018 547.628 263.352C547.906 263.979 548.024 264.665 547.969 265.348C547.915 266.031 547.69 266.689 547.316 267.264C546.942 267.839 546.431 268.311 545.827 268.638C545.224 268.966 544.548 269.137 543.862 269.138L522.343 269.145C521.251 269.147 520.203 268.716 519.43 267.947C518.656 267.178 518.221 266.134 518.219 265.044C518.219 264.984 518.219 264.923 518.222 264.862C518.377 261.207 518.499 255.019 518.291 245.561C517.172 240.163 520.152 236.357 515.826 237.598C499.761 242.196 489.417 228.742 488.21 228.433Z" fill="#0F1011"/>
<path d="M513.117 250.271C512.996 251.766 513.475 253.247 514.448 254.39C515.421 255.532 516.809 256.242 518.307 256.363C519.805 256.485 521.289 256.007 522.434 255.036C523.579 254.065 524.291 252.679 524.412 251.185C524.556 249.717 524.111 248.253 523.173 247.113C522.235 245.973 520.882 245.252 519.411 245.108C519.346 245.102 519.286 245.097 519.223 245.093C515.184 244.962 513.371 247.158 513.117 250.271Z" fill="#E98862"/>
<path d="M511.185 353.236C515.427 353.236 518.865 349.804 518.865 345.571C518.865 341.339 515.427 337.907 511.185 337.907C506.943 337.907 503.505 341.339 503.505 345.571C503.505 349.804 506.943 353.236 511.185 353.236Z" fill="#FD5D76"/>
<path d="M514.967 347.937H513.101C512.859 347.937 512.628 347.841 512.457 347.671C512.287 347.501 512.191 347.27 512.191 347.029V345.767C512.191 345.538 512.277 345.317 512.434 345.149C512.024 345.061 511.605 345.019 511.186 345.024C510.743 345.017 510.301 345.065 509.87 345.166C510.04 345.337 510.136 345.568 510.135 345.808V347.028C510.135 347.269 510.04 347.499 509.869 347.67C509.698 347.84 509.467 347.936 509.225 347.936H507.405C507.164 347.936 506.933 347.84 506.762 347.67C506.591 347.499 506.496 347.269 506.496 347.028C506.496 344.67 508.294 343.205 511.188 343.205C514.083 343.205 515.882 344.67 515.882 347.028C515.882 347.147 515.858 347.266 515.812 347.377C515.767 347.487 515.699 347.588 515.614 347.672C515.529 347.757 515.428 347.824 515.317 347.869C515.206 347.915 515.087 347.938 514.967 347.937Z" fill="white"/>
<path d="M490.67 350.991C493.669 350.991 496.1 348.564 496.1 345.571C496.1 342.578 493.669 340.152 490.67 340.152C487.671 340.152 485.239 342.578 485.239 345.571C485.239 348.564 487.671 350.991 490.67 350.991Z" fill="#8DDBE0"/>
<path d="M490.67 347.312C490.336 347.312 490.015 347.179 489.778 346.943C489.542 346.707 489.409 346.387 489.408 346.053V343.646C489.408 343.312 489.541 342.991 489.778 342.755C490.015 342.519 490.336 342.386 490.67 342.386C491.005 342.386 491.326 342.519 491.563 342.755C491.8 342.991 491.933 343.312 491.933 343.646V346.053C491.932 346.387 491.799 346.707 491.563 346.943C491.326 347.179 491.005 347.312 490.67 347.312Z" fill="white"/>
<path d="M490.67 348.628C490.603 348.627 490.538 348.599 490.49 348.552C490.443 348.504 490.415 348.44 490.414 348.372V346.073C490.414 346.005 490.441 345.94 490.489 345.892C490.537 345.844 490.603 345.817 490.67 345.817C490.738 345.817 490.803 345.844 490.852 345.892C490.9 345.94 490.927 346.005 490.927 346.073V348.372C490.927 348.44 490.9 348.505 490.852 348.553C490.803 348.601 490.738 348.628 490.67 348.628Z" fill="white"/>
<path d="M491.822 348.757H489.518C489.45 348.757 489.385 348.731 489.337 348.683C489.289 348.635 489.262 348.57 489.262 348.502C489.262 348.434 489.289 348.369 489.337 348.321C489.385 348.273 489.45 348.246 489.518 348.246H491.822C491.89 348.246 491.955 348.273 492.003 348.321C492.051 348.369 492.078 348.434 492.078 348.502C492.078 348.57 492.051 348.635 492.003 348.683C491.955 348.731 491.89 348.757 491.822 348.757Z" fill="white"/>
<path d="M531.7 350.991C534.699 350.991 537.13 348.564 537.13 345.571C537.13 342.578 534.699 340.152 531.7 340.152C528.701 340.152 526.269 342.578 526.269 345.571C526.269 348.564 528.701 350.991 531.7 350.991Z" fill="#0CBC8B"/>
<path d="M533.263 343.801H528.885V347.341H533.263V343.801Z" fill="white"/>
<path d="M534.515 347.054L532.962 345.504L534.515 343.956" fill="white"/>
<path d="M375.198 204.487H139.158V361.396H375.198V204.487Z" fill="#F3F5FD"/>
<path d="M201.61 244.993H167.395V279.137H201.61V244.993Z" fill="#DEE8F5"/>
<path d="M199.252 247.347H169.754V276.783H199.252V247.347Z" fill="white"/>
<path d="M175.721 254.052V265.218L186.85 254.113L175.721 254.052Z" fill="#F3F5FD"/>
<path d="M185.72 270.078C189.171 270.078 191.968 267.287 191.968 263.843C191.968 260.4 189.171 257.609 185.72 257.609C182.27 257.609 179.473 260.4 179.473 263.843C179.473 267.287 182.27 270.078 185.72 270.078Z" fill="#C1D8ED"/>
<path d="M240.943 217.229H207.639V257.598H240.943V217.229Z" fill="#DEE8F5"/>
<path d="M238.154 220.013H210.428V254.815H238.154V220.013Z" fill="white"/>
<path d="M230.549 225.608H215.722V242.918H230.549V225.608Z" fill="#DEE8F5"/>
<path d="M229.759 238.521H229.758C226.798 238.521 224.398 240.915 224.398 243.87V243.87C224.398 246.825 226.798 249.22 229.758 249.22H229.759C232.72 249.22 235.12 246.825 235.12 243.87V243.87C235.12 240.915 232.72 238.521 229.759 238.521Z" fill="#C1D8ED"/>
<path d="M235.119 233.159H223.136V235.52H235.119V233.159Z" fill="#F3F5FD"/>
<path d="M242.155 265.199H214.221V293.074H242.155V265.199Z" fill="#DEE8F5"/>
<path d="M239.878 267.47H216.498V290.802H239.878V267.47Z" fill="white"/>
<path d="M236.438 270.279H230.489V287.792H236.438V270.279Z" fill="#DEE8F5"/>
<path d="M227.573 270.279L219.66 278.175H235.399L227.573 270.279Z" fill="#C1D8ED"/>
<path d="M233.521 281.549H221.538V283.91H233.521V281.549Z" fill="#F3F5FD"/>
<path d="M354.981 354.457C354.981 354.457 353.876 313.621 343.252 312.938C332.627 312.256 351.961 357.105 351.961 357.105" fill="#DEE8F5"/>
<path d="M355.455 351.666C355.455 351.666 368.696 322.284 359.88 316.331C351.064 310.379 351.508 352.426 351.508 352.426" fill="#C1D8ED"/>
<path d="M358.227 349.137H346.319V361.396H358.227V349.137Z" fill="#C1D8ED"/>
<path d="M203.135 317.004H147.126V361.396H203.135V317.004Z" fill="#C1D8ED"/>
<path d="M218.007 317.004H161.998V361.396H218.007V317.004Z" fill="#DEE8F5"/>
<g opacity="0.53">
<path d="M214.996 320.861H165.014V336.692H214.996V320.861Z" fill="#F3F5FD"/>
</g>
<g opacity="0.53">
<path d="M214.996 340.567H165.014V356.398H214.996V340.567Z" fill="#F3F5FD"/>
</g>
<path d="M190.005 330.992C191.231 330.992 192.225 330 192.225 328.777C192.225 327.553 191.231 326.562 190.005 326.562C188.779 326.562 187.785 327.553 187.785 328.777C187.785 330 188.779 330.992 190.005 330.992Z" fill="white"/>
<path d="M190.005 350.697C191.231 350.697 192.225 349.706 192.225 348.482C192.225 347.259 191.231 346.267 190.005 346.267C188.779 346.267 187.785 347.259 187.785 348.482C187.785 349.706 188.779 350.697 190.005 350.697Z" fill="white"/>
<path d="M240.28 282.057C240.28 282.057 247.347 278.319 245.769 259.114L260.371 256.412C260.371 256.412 258.73 273.63 266.117 279.097L240.28 282.057Z" fill="#E98862"/>
<g opacity="0.15">
<path d="M263.125 275.497L250.995 266.237L260.522 266.138C260.886 269.338 261.635 272.773 263.125 275.497Z" fill="black"/>
</g>
<path d="M237.484 251.667C238.495 257.494 241.681 263.011 246.831 264.894C252.946 267.127 257.474 267.279 264.523 267.279C274.143 267.279 273.825 257.268 274.095 247.179C274.367 237.05 273.559 226.185 269.758 222.656C262.168 215.61 239.895 220.072 237.186 231.855C235.785 237.95 236.522 246.121 237.484 251.667Z" fill="#E98862"/>
<path d="M279.251 228.511C279.251 228.511 283.191 227.633 282.111 223.711C281.396 221.111 278.058 221.689 278.058 221.689C278.058 221.689 281.219 221.111 281.219 218.358C281.219 216.622 279.883 213.684 275.853 215.364C271.124 217.334 265.732 217.082 261.631 216.393C259.24 215.992 256.907 215.433 254.587 215.402H254.575C251.85 215.355 249.135 215.717 246.519 216.477C239.189 218.665 228.096 225.224 230.454 240.093C233.086 256.687 240.889 263.033 244.322 265.069C244.526 265.191 244.754 265.265 244.99 265.286C245.226 265.307 245.464 265.275 245.686 265.191C245.907 265.107 246.107 264.973 246.269 264.801C246.432 264.628 246.553 264.422 246.623 264.196C247.598 261.086 249.277 253.26 248.805 237.125C271.336 236.022 277.819 235.687 277.819 235.687C277.819 235.687 283.123 235.885 283.123 232.019C283.123 228.152 279.251 228.511 279.251 228.511Z" fill="#0F1011"/>
<path d="M260.35 247.179C261.081 247.179 261.674 246.587 261.674 245.858C261.674 245.128 261.081 244.536 260.35 244.536C259.618 244.536 259.026 245.128 259.026 245.858C259.026 246.587 259.618 247.179 260.35 247.179Z" fill="#0F1011"/>
<path d="M270.798 246.324C271.529 246.324 272.122 245.732 272.122 245.003C272.122 244.273 271.529 243.682 270.798 243.682C270.066 243.682 269.474 244.273 269.474 245.003C269.474 245.732 270.066 246.324 270.798 246.324Z" fill="#0F1011"/>
<path d="M273.093 242.188H273.085L269.575 242.145C269.41 242.143 269.253 242.076 269.137 241.958C269.022 241.84 268.959 241.681 268.961 241.516C268.963 241.352 269.03 241.195 269.148 241.08C269.267 240.965 269.426 240.901 269.591 240.903L273.1 240.947C273.262 240.953 273.415 241.022 273.527 241.138C273.639 241.255 273.701 241.41 273.7 241.571C273.699 241.733 273.635 241.888 273.522 242.003C273.409 242.118 273.255 242.185 273.093 242.189L273.093 242.188Z" fill="#0F1011"/>
<path d="M257.492 243.463C257.339 243.463 257.192 243.408 257.078 243.307C256.963 243.206 256.89 243.067 256.872 242.915C256.854 242.764 256.893 242.612 256.98 242.487C257.067 242.362 257.198 242.274 257.346 242.238L260.805 241.41C260.885 241.391 260.967 241.388 261.048 241.4C261.129 241.413 261.206 241.442 261.276 241.484C261.345 241.527 261.406 241.582 261.454 241.648C261.502 241.714 261.537 241.789 261.556 241.868C261.575 241.948 261.578 242.03 261.565 242.11C261.553 242.191 261.524 242.268 261.482 242.338C261.439 242.407 261.383 242.468 261.317 242.516C261.251 242.564 261.176 242.598 261.097 242.617L257.638 243.448C257.59 243.459 257.541 243.464 257.492 243.463Z" fill="#0F1011"/>
<path d="M253.461 249.091C253.582 250.572 253.109 252.04 252.146 253.173C251.183 254.306 249.808 255.011 248.324 255.133C246.84 255.254 245.369 254.782 244.233 253.821C243.098 252.86 242.392 251.488 242.27 250.007C242.197 249.271 242.273 248.529 242.493 247.823C242.714 247.118 243.075 246.464 243.554 245.9C244.033 245.336 244.621 244.874 245.282 244.542C245.944 244.21 246.666 244.014 247.405 243.966C251.408 243.835 253.208 246.008 253.461 249.091Z" fill="#E98862"/>
<g opacity="0.15">
<path d="M266.232 253.187C266.121 253.191 266.012 253.153 265.926 253.082C265.841 253.011 265.784 252.911 265.768 252.801C265.751 252.691 265.776 252.578 265.837 252.485C265.898 252.392 265.991 252.325 266.098 252.295L268.791 251.47L266.906 247.283C266.856 247.173 266.853 247.048 266.896 246.934C266.939 246.821 267.025 246.73 267.136 246.681C267.246 246.631 267.372 246.627 267.486 246.67C267.599 246.713 267.69 246.799 267.74 246.91L269.836 251.568C269.863 251.627 269.877 251.691 269.877 251.755C269.877 251.82 269.863 251.884 269.836 251.943C269.81 252.002 269.771 252.055 269.722 252.097C269.673 252.14 269.616 252.172 269.553 252.19L266.365 253.168C266.322 253.181 266.277 253.187 266.232 253.187Z" fill="black"/>
</g>
<path d="M260.963 256.264C260.963 256.264 265.851 256.778 269.277 255.583C269.277 255.583 269.251 258.796 265.382 259.112C261.513 259.429 260.963 256.264 260.963 256.264Z" fill="white"/>
<path d="M353.885 361.396H323.642C315.881 355.292 309.017 349.85 306.69 347.898L289.306 321.969C288.637 327.004 288.234 332.07 288.097 337.147C287.905 345.281 288.591 353.412 290.145 361.399H217.558C220.044 354.78 221.323 347.77 221.335 340.701C221.335 336.245 220.353 331.491 219.053 326.646L210.545 345.754L208.439 361.399H188.79L191.436 341.791C191.559 340.875 191.813 339.982 192.19 339.138L213.769 290.647L213.879 290.692C214.789 288.186 216.245 285.913 218.143 284.038C222.219 279.971 229.264 277.337 237.857 277.331C238.501 282.332 268.913 282.345 269.147 277.448C270.304 277.467 271.208 277.48 271.767 277.506C279.878 277.856 284.786 280.632 287.639 284.985L287.834 284.855L321.09 334.432L353.885 361.396Z" fill="#9EBCEA"/>
<path d="M269.145 277.444C268.913 282.345 266.242 289.553 258.001 290.096C247.016 290.818 238.501 282.327 237.857 277.328H237.884C248.697 277.328 262.84 277.344 269.145 277.444Z" fill="#E98862"/>
<path d="M313.848 237.864L310.128 240.007L317.415 252.603L321.135 250.46L313.848 237.864Z" fill="#DEE8F5"/>
<path d="M311.066 237.961H306.771V252.506H311.066V237.961Z" fill="#DEE8F5"/>
<path d="M336.08 234.012H331.785V252.506H336.08V234.012Z" fill="#DEE8F5"/>
<path d="M331.662 237.961H327.367V252.506H331.662V237.961Z" fill="#C1D8ED"/>
<path d="M340.375 236.092H336.08V252.506H340.375V236.092Z" fill="#C1D8ED"/>
<path d="M327.3 235.579H320.441V252.505H327.3V235.579Z" fill="white"/>
<path d="M347.255 247.673C347.255 247.673 347.235 240.438 350.876 238.928C354.518 237.417 349.066 247.673 349.066 247.673H347.255Z" fill="#DEE8F5"/>
<path d="M349.066 247.673C349.066 247.673 350.967 234.13 347.082 234.13C343.196 234.13 347.256 247.673 347.256 247.673" fill="#DEE8F5"/>
<path d="M347.901 248.269C347.901 248.269 346.078 236.199 342.825 237.167C339.573 238.136 346.622 248.648 346.622 248.648L347.901 248.269Z" fill="#DEE8F5"/>
<path d="M351.486 244.043H343.005V252.506H351.486V244.043Z" fill="#C1D8ED"/>
<path d="M354.941 252.506H304.624V254.386H354.941V252.506Z" fill="#DEE8F5"/>
<path d="M256.977 353.199C261.219 353.199 264.657 349.768 264.657 345.535C264.657 341.302 261.219 337.871 256.977 337.871C252.735 337.871 249.297 341.302 249.297 345.535C249.297 349.768 252.735 353.199 256.977 353.199Z" fill="#FD5D76"/>
<path d="M260.759 347.901H258.893C258.652 347.901 258.42 347.805 258.25 347.635C258.079 347.464 257.983 347.233 257.983 346.993V345.732C257.983 345.503 258.07 345.282 258.226 345.114C257.816 345.026 257.398 344.984 256.978 344.99C256.535 344.982 256.093 345.03 255.662 345.131C255.833 345.301 255.928 345.532 255.928 345.773V346.993C255.928 347.233 255.832 347.464 255.661 347.635C255.491 347.805 255.259 347.901 255.018 347.901H253.198C252.957 347.901 252.725 347.805 252.555 347.635C252.384 347.464 252.288 347.233 252.288 346.993C252.288 344.635 254.086 343.17 256.981 343.17C259.876 343.17 261.674 344.635 261.674 346.993C261.674 347.112 261.651 347.231 261.605 347.341C261.559 347.452 261.491 347.552 261.406 347.636C261.321 347.721 261.22 347.788 261.109 347.833C260.998 347.878 260.879 347.901 260.759 347.901Z" fill="white"/>
<path d="M236.462 350.954C239.462 350.954 241.893 348.528 241.893 345.535C241.893 342.542 239.462 340.116 236.462 340.116C233.463 340.116 231.032 342.542 231.032 345.535C231.032 348.528 233.463 350.954 236.462 350.954Z" fill="#8DDBE0"/>
<path d="M236.463 347.276C236.128 347.276 235.807 347.143 235.571 346.907C235.334 346.67 235.201 346.35 235.201 346.016V343.609C235.201 343.275 235.334 342.955 235.57 342.719C235.807 342.482 236.128 342.35 236.463 342.35C236.798 342.35 237.119 342.482 237.355 342.719C237.592 342.955 237.725 343.275 237.725 343.609V346.016C237.725 346.35 237.592 346.67 237.355 346.907C237.118 347.143 236.798 347.276 236.463 347.276Z" fill="white"/>
<path d="M236.463 348.593C236.395 348.592 236.331 348.564 236.283 348.517C236.235 348.469 236.208 348.405 236.207 348.337V346.038C236.207 345.97 236.234 345.905 236.282 345.857C236.33 345.809 236.395 345.782 236.463 345.782C236.531 345.782 236.596 345.809 236.644 345.857C236.692 345.905 236.719 345.97 236.719 346.038V348.337C236.719 348.405 236.692 348.47 236.644 348.518C236.596 348.566 236.531 348.593 236.463 348.593Z" fill="white"/>
<path d="M237.615 348.72H235.311C235.243 348.72 235.177 348.693 235.129 348.645C235.081 348.597 235.054 348.532 235.054 348.464C235.054 348.397 235.081 348.332 235.129 348.284C235.177 348.236 235.243 348.209 235.311 348.209H237.615C237.683 348.209 237.748 348.236 237.796 348.284C237.844 348.332 237.871 348.397 237.871 348.464C237.871 348.532 237.844 348.597 237.796 348.645C237.748 348.693 237.683 348.72 237.615 348.72Z" fill="white"/>
<path d="M277.492 350.954C280.492 350.954 282.923 348.528 282.923 345.535C282.923 342.542 280.492 340.116 277.492 340.116C274.493 340.116 272.062 342.542 272.062 345.535C272.062 348.528 274.493 350.954 277.492 350.954Z" fill="#0CBC8B"/>
<path d="M279.056 343.765H274.677V347.304H279.056V343.765Z" fill="white"/>
<path d="M280.307 347.018L278.755 345.468L280.307 343.919" fill="white"/>
</g>
<defs>
<clipPath id="clip0_105_1265">
<rect width="773" height="415" fill="white" transform="translate(0 0.770508)"/>
</clipPath>
</defs>
</svg>
